{"glyphs":{"0":{"ha":883,"x_min":64,"x_max":821,"o":"m 64 463 q 94 667 64 579 q 177 813 125 754 q 298 899 229 871 q 443 928 367 928 q 596 895 526 928 q 715 801 665 863 q 793 653 765 740 q 819 456 821 565 q 789 257 818 344 q 709 110 760 169 q 589 19 658 50 q 439 -12 519 -12 q 292 19 361 -12 q 173 110 224 50 q 93 258 122 169 q 64 463 64 347 m 207 458 q 224 332 207 392 q 273 227 242 272 q 347 155 304 182 q 439 128 390 128 q 531 154 488 128 q 606 226 574 181 q 656 331 638 271 q 675 458 675 392 q 665 560 675 503 q 628 669 654 618 q 558 755 603 719 q 444 790 513 790 q 326 753 372 790 q 254 663 281 715 q 217 554 228 611 q 207 458 207 497 z "},"1":{"ha":431,"x_min":71,"x_max":294,"o":"m 71 779 l 71 917 l 294 917 l 294 0 l 150 0 l 150 779 l 71 779 z "},"2":{"ha":765,"x_min":56,"x_max":713,"o":"m 413 139 l 713 139 l 713 0 l 71 0 q 238 169 157 88 q 381 326 318 250 q 481 475 443 403 q 519 614 519 547 q 503 692 519 658 q 464 747 488 725 q 413 779 440 768 q 361 790 385 790 q 281 773 313 790 q 231 732 250 756 q 206 682 213 708 q 199 638 199 656 q 213 556 199 592 q 254 494 228 521 l 169 407 q 121 449 142 421 q 85 511 100 478 q 63 578 71 544 q 56 638 56 611 q 76 746 56 693 q 135 839 96 799 q 231 903 174 879 q 361 928 288 928 q 485 903 429 928 q 581 838 542 879 q 642 743 621 797 q 664 631 664 689 q 644 501 664 564 q 590 378 624 439 q 510 258 556 318 q 413 139 464 199 z "},"3":{"ha":650,"x_min":35,"x_max":588,"o":"m 172 447 q 268 612 214 531 q 364 776 322 693 l 99 776 l 99 917 l 588 917 q 492 751 542 833 q 396 586 442 669 q 529 469 479 543 q 579 300 579 396 q 554 179 579 236 q 486 80 529 122 q 385 13 443 38 q 264 -11 328 -11 q 138 17 197 -11 q 35 90 78 44 l 139 188 q 265 128 188 128 q 331 142 300 128 q 385 178 363 156 q 422 233 408 201 q 436 300 436 264 q 422 366 436 335 q 385 420 408 397 q 331 456 363 443 q 265 469 300 469 q 172 447 213 469 z "},"4":{"ha":732,"x_min":-3,"x_max":685,"o":"m 404 542 q 375 505 393 528 q 338 457 357 482 q 301 408 319 432 q 274 371 283 385 l 404 371 l 404 542 m -3 233 q 131 404 61 317 q 272 581 201 492 q 413 757 343 669 q 547 928 483 844 l 547 371 l 685 371 l 685 233 l 547 233 l 547 0 l 404 0 l 404 233 l -3 233 z "},"5":{"ha":635,"x_min":49,"x_max":578,"o":"m 110 415 l 110 917 l 515 917 l 515 779 l 233 779 l 233 603 q 247 607 240 606 q 265 608 253 608 q 394 584 336 608 q 493 518 453 560 q 556 422 533 476 q 578 306 578 367 q 553 181 578 239 q 485 80 528 122 q 385 13 442 38 q 264 -11 328 -11 q 147 12 201 -11 q 49 76 92 35 q 101 125 75 101 q 153 172 128 149 q 203 140 175 153 q 267 128 232 128 q 332 142 301 128 q 385 178 363 156 q 422 233 408 201 q 436 300 436 264 q 422 366 436 335 q 385 421 408 397 q 331 458 363 444 q 265 471 300 471 q 188 462 229 471 q 110 415 146 453 z "},"6":{"ha":740,"x_min":57,"x_max":683,"o":"m 57 300 q 81 442 57 375 q 142 566 104 508 q 230 673 181 624 q 330 764 279 722 q 428 840 381 806 q 513 900 476 874 q 558 846 536 874 q 601 792 579 818 q 528 743 569 771 q 447 688 488 715 q 374 634 407 660 q 324 590 340 608 q 368 608 342 608 q 490 585 432 608 q 590 519 547 561 q 658 422 633 478 q 683 301 683 365 q 658 180 683 236 q 590 81 633 124 q 490 13 547 38 q 369 -11 433 -11 q 263 7 318 -11 q 163 63 208 25 q 87 159 117 100 q 57 300 57 218 m 206 300 q 218 234 206 265 q 253 179 231 203 q 305 142 275 156 q 369 128 335 128 q 435 142 404 128 q 490 179 467 156 q 526 234 513 203 q 540 300 540 265 q 526 366 540 335 q 489 421 513 397 q 435 458 465 444 q 369 471 404 471 q 305 458 335 471 q 253 421 275 444 q 218 366 231 397 q 206 300 206 335 m 319 586 l 324 590 l 319 586 z "},"7":{"ha":639,"x_min":43,"x_max":631,"o":"m 43 776 l 43 917 l 631 917 q 449 452 536 675 q 275 0 363 229 l 111 0 q 255 378 178 178 q 408 776 332 578 l 43 776 z "},"8":{"ha":740,"x_min":57,"x_max":683,"o":"m 281 696 q 309 634 281 660 q 374 608 338 608 q 438 634 410 608 q 465 696 465 660 q 438 762 465 733 q 374 790 410 790 q 339 783 356 790 q 309 762 322 775 q 288 731 296 749 q 281 696 281 714 m 204 300 q 217 233 204 264 q 253 178 231 201 q 305 142 275 156 q 369 128 335 128 q 435 142 404 128 q 490 178 467 156 q 526 233 513 201 q 540 300 540 264 q 528 365 540 335 q 493 419 515 396 q 441 456 471 442 q 376 471 411 469 q 310 458 342 471 q 256 423 279 446 q 218 368 232 400 q 204 300 204 336 m 57 293 q 69 386 57 344 q 103 460 82 428 q 150 516 124 493 q 206 553 176 539 q 156 619 169 582 q 143 688 143 656 q 161 785 143 740 q 210 861 179 829 q 282 910 240 893 q 371 928 324 928 q 460 910 418 928 q 534 860 503 892 q 583 785 565 829 q 601 690 601 742 q 587 620 601 657 q 535 553 572 583 q 590 514 564 538 q 638 458 617 490 q 671 385 658 426 q 683 293 683 343 q 661 178 683 233 q 598 81 639 124 q 499 14 557 39 q 369 -11 442 -11 q 240 14 297 -11 q 141 81 182 39 q 78 178 100 124 q 57 293 57 233 z "},"9":{"ha":740,"x_min":57,"x_max":683,"o":"m 535 589 q 522 655 535 624 q 488 710 510 686 q 435 749 465 735 q 371 763 406 763 q 306 749 336 763 q 251 710 275 735 q 214 655 228 686 q 200 589 200 624 q 214 522 200 553 q 251 469 228 492 q 306 433 275 446 q 371 419 336 419 q 435 433 406 419 q 488 469 465 446 q 522 522 510 492 q 535 589 535 553 m 683 589 q 660 448 683 514 q 598 324 636 382 q 511 217 560 267 q 412 125 463 167 q 313 49 361 83 q 228 -11 264 15 q 183 44 204 17 q 139 99 161 71 q 215 149 172 121 q 299 206 257 178 q 374 260 340 235 q 422 303 407 286 q 372 281 403 281 q 251 304 308 281 q 150 369 193 328 q 82 467 107 411 q 57 588 57 522 q 82 708 57 651 q 150 808 107 765 q 250 876 193 851 q 371 900 307 900 q 477 882 422 900 q 578 826 532 864 q 653 730 624 789 q 683 589 683 671 z "},"\u0000":{"ha":0,"x_min":0,"x_max":0,"o":""},"\r":{"ha":417,"x_min":0,"x_max":0,"o":""}," ":{"ha":317,"x_min":0,"x_max":0,"o":""},"t":{"ha":439,"x_min":36,"x_max":422,"o":"m 136 849 l 268 849 l 268 590 l 422 590 l 422 471 l 268 471 l 268 0 l 136 0 l 136 471 l 36 471 l 36 590 l 136 590 l 136 849 z "},"b":{"ha":761,"x_min":82,"x_max":714,"o":"m 714 293 q 692 170 714 226 q 628 72 669 114 q 531 8 588 31 q 406 -15 474 -15 q 285 10 338 -15 q 214 65 233 36 q 215 55 214 60 q 215 43 215 50 l 215 0 l 82 0 l 82 1085 l 215 1085 l 215 515 q 244 545 226 529 q 286 574 261 561 q 342 597 311 588 q 411 606 374 606 q 535 584 479 606 q 630 522 590 563 q 692 423 669 481 q 714 293 714 365 m 569 296 q 524 424 569 374 q 399 475 479 475 q 325 462 358 475 q 267 424 292 449 q 229 367 243 400 q 215 297 215 335 q 229 225 215 258 q 267 167 243 192 q 325 129 292 143 q 399 115 358 115 q 471 129 439 115 q 524 168 503 143 q 558 226 546 193 q 569 296 569 258 z "},"l":{"ha":296,"x_min":82,"x_max":214,"o":"m 214 0 l 82 0 l 82 1085 l 214 1085 l 214 0 z "},"m":{"ha":1138,"x_min":82,"x_max":1060,"o":"m 82 590 l 200 590 q 203 546 201 565 q 206 509 204 526 q 208 475 207 492 q 211 439 210 458 q 295 559 244 514 q 435 606 346 604 q 574 562 522 606 q 636 447 626 518 q 674 511 653 482 q 720 561 694 540 q 779 594 746 582 q 857 606 813 606 q 1003 556 949 606 q 1060 428 1057 507 l 1060 0 l 926 0 l 926 365 q 897 440 924 408 q 810 474 871 471 q 683 420 728 474 q 638 283 638 367 l 638 0 l 504 0 l 504 365 q 474 440 501 408 q 388 474 447 471 q 260 420 306 474 q 215 285 215 367 l 215 0 l 82 0 l 82 590 z "},"i":{"ha":297,"x_min":67,"x_max":232,"o":"m 67 819 q 93 879 67 856 q 150 903 119 903 q 206 879 181 903 q 232 819 232 856 q 206 759 232 782 q 150 736 181 736 q 93 759 119 736 q 67 819 67 782 m 215 0 l 82 0 l 82 590 l 215 590 l 215 0 z "},"h":{"ha":725,"x_min":82,"x_max":647,"o":"m 82 1085 l 215 1085 l 215 447 q 301 561 246 518 q 444 606 357 604 q 590 557 536 606 q 647 428 644 508 l 647 0 l 515 0 l 515 365 q 485 440 513 408 q 399 474 457 471 q 324 459 358 474 q 266 419 290 444 q 228 360 242 394 q 215 285 215 325 l 215 0 l 82 0 l 82 1085 z "},"c":{"ha":590,"x_min":44,"x_max":561,"o":"m 476 154 q 517 103 497 128 q 557 54 536 79 q 467 3 517 22 q 360 -15 417 -15 q 237 9 294 -15 q 137 76 179 33 q 69 175 94 118 q 44 296 44 232 q 69 416 44 360 q 137 515 94 472 q 237 581 179 557 q 360 606 294 606 q 469 587 418 606 q 561 536 519 568 l 476 438 q 360 475 428 475 q 286 461 319 475 q 228 424 253 447 q 191 367 204 400 q 178 296 178 335 q 191 226 178 258 q 228 168 204 193 q 286 129 253 143 q 360 115 319 115 q 476 154 429 115 z "},"q":{"ha":760,"x_min":46,"x_max":678,"o":"m 179 297 q 192 225 179 258 q 230 167 206 192 q 288 129 254 143 q 361 115 321 115 q 435 129 401 115 q 494 168 469 143 q 531 226 518 193 q 544 297 544 260 q 531 367 544 335 q 494 424 518 400 q 435 461 469 447 q 361 475 401 475 q 288 462 321 475 q 230 424 254 449 q 192 367 206 400 q 179 297 179 335 m 46 294 q 69 421 46 364 q 133 519 92 478 q 228 583 174 560 q 349 606 283 606 q 426 596 393 606 q 483 572 460 586 q 522 542 507 558 q 544 515 536 526 q 547 551 544 532 q 550 590 550 571 l 678 590 l 678 -283 l 544 -283 l 544 39 q 546 54 544 46 q 547 67 547 63 q 517 40 535 54 q 474 13 499 25 q 417 -8 449 0 q 346 -15 386 -15 q 219 9 275 -15 q 124 76 163 33 q 66 174 86 118 q 46 294 46 231 z "},"u":{"ha":725,"x_min":78,"x_max":643,"o":"m 643 -14 l 532 -14 l 515 150 q 427 33 483 79 q 279 -14 371 -14 q 134 34 188 -14 q 78 161 81 82 l 78 590 l 211 590 l 211 224 q 241 151 214 181 q 328 118 268 121 q 401 132 368 118 q 459 171 435 146 q 497 231 483 196 q 511 306 511 265 l 511 590 l 643 590 l 643 -14 z "},"r":{"ha":450,"x_min":82,"x_max":442,"o":"m 413 433 q 338 424 374 433 q 276 394 303 414 q 232 344 249 374 q 215 274 215 314 l 215 0 l 82 0 l 82 590 l 199 590 q 205 509 201 540 q 211 439 208 478 q 260 508 229 478 q 323 560 290 539 q 388 594 356 582 q 442 606 419 606 l 413 433 z "},"e":{"ha":658,"x_min":44,"x_max":638,"o":"m 589 68 q 485 7 546 29 q 360 -15 424 -15 q 237 9 294 -15 q 137 76 179 33 q 69 174 94 118 q 44 294 44 231 q 69 415 44 358 q 137 513 94 471 q 235 580 179 556 q 354 604 292 604 q 530 544 454 604 q 638 385 606 483 q 541 348 596 369 q 426 303 486 326 q 307 255 367 279 q 197 211 247 231 q 263 142 221 168 q 357 115 304 115 q 430 128 393 115 q 490 164 467 142 l 589 68 m 472 415 q 422 460 456 446 q 357 475 389 475 q 286 460 319 475 q 229 422 253 446 q 192 366 206 397 q 178 301 178 335 l 178 296 q 252 326 213 310 q 331 358 292 342 q 407 390 371 375 q 472 415 443 404 z "},"p":{"ha":760,"x_min":82,"x_max":714,"o":"m 569 296 q 524 424 569 374 q 399 475 479 475 q 325 462 358 475 q 267 424 292 449 q 229 367 243 400 q 215 297 215 335 q 229 225 215 258 q 267 167 243 192 q 325 129 292 143 q 399 115 358 115 q 471 129 439 115 q 524 168 503 143 q 558 226 546 193 q 569 296 569 258 m 714 293 q 692 170 714 226 q 628 72 669 114 q 531 8 588 31 q 406 -15 474 -15 q 285 10 338 -15 q 214 65 233 36 q 215 55 214 60 q 215 43 215 50 l 215 -283 l 82 -283 l 82 590 l 210 590 q 213 551 210 571 q 215 515 215 532 q 244 545 226 529 q 286 574 261 561 q 342 597 311 588 q 411 606 374 606 q 535 584 479 606 q 630 522 590 563 q 692 423 669 481 q 714 293 714 365 z "},"á":{"ha":758,"x_min":43,"x_max":676,"o":"m 43 289 q 68 410 43 353 q 135 511 93 468 q 234 580 178 554 q 353 606 290 606 q 428 595 394 606 q 485 571 461 585 q 524 542 510 557 q 542 519 538 528 l 547 590 l 676 590 l 676 0 l 542 0 l 542 39 q 542 52 542 46 q 543 61 543 58 q 524 41 538 54 q 486 15 510 28 q 430 -6 463 3 q 354 -15 397 -15 q 229 10 286 -15 q 131 76 172 35 q 66 173 89 118 q 43 289 43 228 m 178 297 q 191 225 178 258 q 228 167 204 192 q 286 129 253 143 q 360 115 319 115 q 433 129 400 115 q 491 168 467 143 q 528 226 515 193 q 542 297 542 260 q 528 367 542 335 q 491 424 515 400 q 433 461 467 447 q 360 475 400 475 q 286 462 319 475 q 228 424 253 449 q 191 367 204 400 q 178 297 178 335 m 293 676 q 356 769 325 722 q 419 864 388 817 l 563 864 q 478 769 521 817 q 392 676 435 722 l 293 676 z "},"é":{"ha":657,"x_min":44,"x_max":638,"o":"m 589 68 q 485 7 546 29 q 360 -15 424 -15 q 237 9 294 -15 q 137 76 179 33 q 69 174 94 118 q 44 294 44 231 q 69 415 44 358 q 137 513 94 471 q 235 580 179 556 q 354 604 292 604 q 530 544 454 604 q 638 385 606 483 q 541 348 596 369 q 426 303 486 326 q 307 255 367 279 q 197 211 247 231 q 263 142 221 168 q 357 115 304 115 q 430 128 393 115 q 490 164 467 142 l 589 68 m 472 415 q 422 460 456 446 q 357 475 389 475 q 286 460 319 475 q 229 422 253 446 q 192 366 206 397 q 178 301 178 335 l 178 296 q 252 326 213 310 q 331 358 292 342 q 407 390 371 375 q 472 415 443 404 m 260 676 q 323 769 292 722 q 386 864 354 817 l 529 864 q 444 769 488 817 q 358 676 401 722 l 260 676 z "},"í":{"ha":297,"x_min":82,"x_max":354,"o":"m 215 0 l 82 0 l 82 590 l 215 590 l 215 0 m 85 676 q 148 769 117 722 q 211 864 179 817 l 354 864 q 269 769 313 817 q 183 676 226 722 l 85 676 z "},"ó":{"ha":714,"x_min":44,"x_max":669,"o":"m 44 296 q 69 416 44 360 q 136 514 93 472 q 237 580 179 556 q 360 604 294 604 q 483 580 426 604 q 581 514 540 556 q 646 416 622 472 q 669 296 669 360 q 647 175 669 232 q 582 76 624 118 q 483 9 540 33 q 358 -15 426 -15 q 236 7 293 -15 q 137 70 179 29 q 69 169 94 111 q 44 296 44 226 m 176 294 q 190 224 176 257 q 228 167 204 192 q 285 129 253 143 q 356 115 318 115 q 426 129 393 115 q 483 167 458 143 q 522 224 507 192 q 536 294 536 257 q 522 365 536 332 q 483 422 507 397 q 426 460 458 446 q 356 475 393 475 q 285 460 318 475 q 228 422 253 446 q 190 365 204 397 q 176 294 176 332 m 356 676 q 419 769 388 722 q 482 864 450 817 l 625 864 q 540 769 583 817 q 454 676 497 722 l 356 676 z "},"ú":{"ha":726,"x_min":78,"x_max":643,"o":"m 643 -14 l 532 -14 l 515 150 q 427 33 483 79 q 279 -14 371 -14 q 134 34 188 -14 q 78 161 81 82 l 78 590 l 211 590 l 211 224 q 241 151 214 181 q 328 118 268 121 q 401 132 368 118 q 459 171 435 146 q 497 231 483 196 q 511 306 511 265 l 511 590 l 643 590 l 643 -14 m 276 676 q 340 769 308 722 q 403 864 371 817 l 546 864 q 461 769 504 817 q 375 676 418 722 l 276 676 z "},"ä":{"ha":758,"x_min":43,"x_max":676,"o":"m 43 289 q 68 410 43 353 q 135 511 93 468 q 234 580 178 554 q 353 606 290 606 q 428 595 394 606 q 485 571 461 585 q 524 542 510 557 q 542 519 538 528 l 547 590 l 676 590 l 676 0 l 542 0 l 542 39 q 542 52 542 46 q 543 61 543 58 q 524 41 538 54 q 486 15 510 28 q 430 -6 463 3 q 354 -15 397 -15 q 229 10 286 -15 q 131 76 172 35 q 66 173 89 118 q 43 289 43 228 m 178 297 q 191 225 178 258 q 228 167 204 192 q 286 129 253 143 q 360 115 319 115 q 433 129 400 115 q 491 168 467 143 q 528 226 515 193 q 542 297 542 260 q 528 367 542 335 q 491 424 515 400 q 433 461 467 447 q 360 475 400 475 q 286 462 319 475 q 228 424 253 449 q 191 367 204 400 q 178 297 178 335 m 403 742 q 430 803 403 778 q 489 828 457 828 q 545 803 518 828 q 572 742 572 778 q 545 679 572 703 q 489 656 518 656 q 430 679 457 656 q 403 742 403 703 m 135 742 q 162 803 135 778 q 221 828 189 828 q 277 803 250 828 q 304 742 304 778 q 277 679 304 703 q 221 656 250 656 q 162 679 189 656 q 135 742 135 703 z "},"ë":{"ha":657,"x_min":44,"x_max":638,"o":"m 589 68 q 485 7 546 29 q 360 -15 424 -15 q 237 9 294 -15 q 137 76 179 33 q 69 174 94 118 q 44 294 44 231 q 69 415 44 358 q 137 513 94 471 q 235 580 179 556 q 354 604 292 604 q 530 544 454 604 q 638 385 606 483 q 541 348 596 369 q 426 303 486 326 q 307 255 367 279 q 197 211 247 231 q 263 142 221 168 q 357 115 304 115 q 430 128 393 115 q 490 164 467 142 l 589 68 m 472 415 q 422 460 456 446 q 357 475 389 475 q 286 460 319 475 q 229 422 253 446 q 192 366 206 397 q 178 301 178 335 l 178 296 q 252 326 213 310 q 331 358 292 342 q 407 390 371 375 q 472 415 443 404 m 376 742 q 403 803 376 778 q 463 828 431 828 q 519 803 492 828 q 546 742 546 778 q 519 679 546 703 q 463 656 492 656 q 403 679 431 656 q 376 742 376 703 m 108 742 q 135 803 108 778 q 194 828 163 828 q 251 803 224 828 q 278 742 278 778 q 251 679 278 703 q 194 656 224 656 q 135 679 163 656 q 108 742 108 703 z "},"ö":{"ha":714,"x_min":44,"x_max":669,"o":"m 44 296 q 69 416 44 360 q 136 514 93 472 q 237 580 179 556 q 360 604 294 604 q 483 580 426 604 q 581 514 540 556 q 646 416 622 472 q 669 296 669 360 q 647 175 669 232 q 582 76 624 118 q 483 9 540 33 q 358 -15 426 -15 q 236 7 293 -15 q 137 70 179 29 q 69 169 94 111 q 44 296 44 226 m 176 294 q 190 224 176 257 q 228 167 204 192 q 285 129 253 143 q 356 115 318 115 q 426 129 393 115 q 483 167 458 143 q 522 224 507 192 q 536 294 536 257 q 522 365 536 332 q 483 422 507 397 q 426 460 458 446 q 356 475 393 475 q 285 460 318 475 q 228 422 253 446 q 190 365 204 397 q 176 294 176 332 m 429 742 q 456 803 429 778 q 515 828 483 828 q 572 803 544 828 q 599 742 599 778 q 572 679 599 703 q 515 656 544 656 q 456 679 483 656 q 429 742 429 703 m 161 742 q 188 803 161 778 q 247 828 215 828 q 303 803 276 828 q 331 742 331 778 q 303 679 331 703 q 247 656 276 656 q 188 679 215 656 q 161 742 161 703 z "},"ü":{"ha":726,"x_min":78,"x_max":643,"o":"m 643 -14 l 532 -14 l 515 150 q 427 33 483 79 q 279 -14 371 -14 q 134 34 188 -14 q 78 161 81 82 l 78 590 l 211 590 l 211 224 q 241 151 214 181 q 328 118 268 121 q 401 132 368 118 q 459 171 435 146 q 497 231 483 196 q 511 306 511 265 l 511 590 l 643 590 l 643 -14 m 382 742 q 409 803 382 778 q 468 828 436 828 q 524 803 497 828 q 551 742 551 778 q 524 679 551 703 q 468 656 497 656 q 409 679 436 656 q 382 742 382 703 m 114 742 q 141 803 114 778 q 200 828 168 828 q 256 803 229 828 q 283 742 283 778 q 256 679 283 703 q 200 656 229 656 q 141 679 168 656 q 114 742 114 703 z "},"à":{"ha":758,"x_min":43,"x_max":676,"o":"m 43 289 q 68 410 43 353 q 135 511 93 468 q 234 580 178 554 q 353 606 290 606 q 428 595 394 606 q 485 571 461 585 q 524 542 510 557 q 542 519 538 528 l 547 590 l 676 590 l 676 0 l 542 0 l 542 39 q 542 52 542 46 q 543 61 543 58 q 524 41 538 54 q 486 15 510 28 q 430 -6 463 3 q 354 -15 397 -15 q 229 10 286 -15 q 131 76 172 35 q 66 173 89 118 q 43 289 43 228 m 178 297 q 191 225 178 258 q 228 167 204 192 q 286 129 253 143 q 360 115 319 115 q 433 129 400 115 q 491 168 467 143 q 528 226 515 193 q 542 297 542 260 q 528 367 542 335 q 491 424 515 400 q 433 461 467 447 q 360 475 400 475 q 286 462 319 475 q 228 424 253 449 q 191 367 204 400 q 178 297 178 335 m 260 864 q 324 769 292 817 q 388 676 356 722 l 288 676 q 201 769 244 722 q 117 864 158 817 l 260 864 z "},"è":{"ha":657,"x_min":44,"x_max":638,"o":"m 589 68 q 485 7 546 29 q 360 -15 424 -15 q 237 9 294 -15 q 137 76 179 33 q 69 174 94 118 q 44 294 44 231 q 69 415 44 358 q 137 513 94 471 q 235 580 179 556 q 354 604 292 604 q 530 544 454 604 q 638 385 606 483 q 541 348 596 369 q 426 303 486 326 q 307 255 367 279 q 197 211 247 231 q 263 142 221 168 q 357 115 304 115 q 430 128 393 115 q 490 164 467 142 l 589 68 m 472 415 q 422 460 456 446 q 357 475 389 475 q 286 460 319 475 q 229 422 253 446 q 192 366 206 397 q 178 301 178 335 l 178 296 q 252 326 213 310 q 331 358 292 342 q 407 390 371 375 q 472 415 443 404 m 242 864 q 306 769 274 817 q 369 676 338 722 l 269 676 q 183 769 226 722 q 99 864 140 817 l 242 864 z "},"ì":{"ha":297,"x_min":-61,"x_max":215,"o":"m 215 0 l 82 0 l 82 590 l 215 590 l 215 0 m 82 864 q 146 769 114 817 q 210 676 178 722 l 110 676 q 24 769 67 722 q -61 864 -19 817 l 82 864 z "},"ò":{"ha":714,"x_min":44,"x_max":669,"o":"m 44 296 q 69 416 44 360 q 136 514 93 472 q 237 580 179 556 q 360 604 294 604 q 483 580 426 604 q 581 514 540 556 q 646 416 622 472 q 669 296 669 360 q 647 175 669 232 q 582 76 624 118 q 483 9 540 33 q 358 -15 426 -15 q 236 7 293 -15 q 137 70 179 29 q 69 169 94 111 q 44 296 44 226 m 176 294 q 190 224 176 257 q 228 167 204 192 q 285 129 253 143 q 356 115 318 115 q 426 129 393 115 q 483 167 458 143 q 522 224 507 192 q 536 294 536 257 q 522 365 536 332 q 483 422 507 397 q 426 460 458 446 q 356 475 393 475 q 285 460 318 475 q 228 422 253 446 q 190 365 204 397 q 176 294 176 332 m 263 864 q 326 769 294 817 q 390 676 358 722 l 290 676 q 204 769 247 722 q 119 864 161 817 l 263 864 z "},"ù":{"ha":726,"x_min":78,"x_max":643,"o":"m 643 -14 l 532 -14 l 515 150 q 427 33 483 79 q 279 -14 371 -14 q 134 34 188 -14 q 78 161 81 82 l 78 590 l 211 590 l 211 224 q 241 151 214 181 q 328 118 268 121 q 401 132 368 118 q 459 171 435 146 q 497 231 483 196 q 511 306 511 265 l 511 590 l 643 590 l 643 -14 m 275 864 q 339 769 307 817 q 403 676 371 722 l 303 676 q 217 769 260 722 q 132 864 174 817 l 275 864 z "},",":{"ha":346,"x_min":7,"x_max":257,"o":"m 257 122 l 135 -169 l 7 -169 q 61 -24 35 -96 q 115 122 88 47 l 257 122 z "},".":{"ha":314,"x_min":72,"x_max":242,"o":"m 72 86 q 99 147 72 122 q 158 172 126 172 q 215 147 188 172 q 242 86 242 122 q 215 23 242 46 q 158 0 188 0 q 99 23 126 0 q 72 86 72 46 z "},"f":{"ha":471,"x_min":36,"x_max":474,"o":"m 36 461 l 36 592 l 138 592 l 138 717 q 224 991 138 903 q 474 1085 310 1079 l 474 958 q 318 889 365 951 q 271 711 271 826 l 271 592 l 454 592 l 454 461 l 271 461 l 271 0 l 138 0 l 138 461 l 36 461 z "},"å":{"ha":758,"x_min":43,"x_max":676,"o":"m 43 289 q 68 410 43 353 q 135 511 93 468 q 234 580 178 554 q 353 606 290 606 q 428 595 394 606 q 485 571 461 585 q 524 542 510 557 q 542 519 538 528 l 547 590 l 676 590 l 676 0 l 542 0 l 542 39 q 542 52 542 46 q 543 61 543 58 q 524 41 538 54 q 486 15 510 28 q 430 -6 463 3 q 354 -15 397 -15 q 229 10 286 -15 q 131 76 172 35 q 66 173 89 118 q 43 289 43 228 m 178 297 q 191 225 178 258 q 228 167 204 192 q 286 129 253 143 q 360 115 319 115 q 433 129 400 115 q 491 168 467 143 q 528 226 515 193 q 542 297 542 260 q 528 367 542 335 q 491 424 515 400 q 433 461 467 447 q 360 475 400 475 q 286 462 319 475 q 228 424 253 449 q 191 367 204 400 q 178 297 178 335 m 242 771 q 251 817 242 796 q 278 856 261 839 q 317 882 294 872 q 364 892 339 892 q 411 882 389 892 q 450 856 433 872 q 476 817 467 839 q 486 771 486 796 q 476 724 486 746 q 450 684 467 701 q 411 657 433 667 q 364 647 389 647 q 317 657 339 647 q 278 684 294 667 q 251 724 261 701 q 242 771 242 746 m 318 768 q 331 736 318 749 q 364 724 344 724 q 397 736 383 724 q 410 768 410 749 q 397 802 410 789 q 364 815 383 815 q 331 802 344 815 q 318 768 318 789 z "},"v":{"ha":635,"x_min":6,"x_max":631,"o":"m 318 -35 q 160 277 235 122 q 6 590 85 432 l 150 590 q 233 425 203 488 q 279 324 263 363 q 303 262 296 285 q 318 214 311 239 q 334 262 326 239 q 358 324 342 285 q 405 425 375 363 q 488 590 435 488 l 631 590 q 475 277 551 432 q 318 -35 399 122 z "},"j":{"ha":297,"x_min":-3,"x_max":235,"o":"m 89 -285 q 42 -235 65 -258 q -3 -185 19 -211 q 60 -106 38 -153 q 82 6 82 -60 l 82 590 l 215 590 l 215 0 q 181 -167 215 -96 q 89 -285 147 -237 m 71 819 q 97 879 71 856 q 154 903 122 903 q 210 879 185 903 q 235 819 235 856 q 210 759 235 782 q 154 736 185 736 q 97 759 122 736 q 71 819 71 782 z "},"s":{"ha":486,"x_min":42,"x_max":442,"o":"m 418 538 q 398 509 410 525 q 375 479 386 493 q 356 455 364 465 q 349 444 349 444 q 342 449 349 444 q 322 460 335 454 q 291 470 308 465 q 256 475 274 475 q 215 466 236 475 q 193 429 193 457 q 212 390 193 406 q 258 360 231 374 q 317 333 285 347 q 377 299 350 319 q 423 247 404 278 q 442 169 442 215 q 427 96 442 129 q 385 39 413 63 q 321 1 358 15 q 236 -12 283 -12 q 126 7 179 -12 q 42 63 72 26 q 65 90 51 74 q 92 122 79 107 q 113 148 104 138 q 122 158 122 158 q 131 153 122 160 q 156 139 140 147 q 192 124 171 131 q 235 117 213 117 q 288 132 269 117 q 307 169 307 147 q 288 206 307 192 q 242 231 269 219 q 183 257 215 243 q 123 292 150 271 q 77 345 96 313 q 58 428 58 378 q 76 511 58 478 q 123 565 94 544 q 185 595 151 586 q 250 604 218 604 q 340 587 293 604 q 418 538 386 569 z "},"k":{"ha":636,"x_min":82,"x_max":629,"o":"m 507 604 l 586 526 q 485 431 533 478 q 385 336 438 385 q 507 168 447 253 q 629 0 567 83 l 476 0 q 383 124 431 63 q 292 249 336 186 l 215 179 l 215 0 l 82 0 l 82 1085 l 215 1085 l 215 333 q 361 469 290 404 q 507 604 432 533 z "},"y":{"ha":681,"x_min":6,"x_max":675,"o":"m 251 -283 l 118 -283 q 157 -203 139 -242 q 193 -126 175 -165 q 231 -44 211 -86 q 274 46 250 -3 q 208 178 242 108 q 139 318 174 247 q 70 458 104 389 q 6 590 36 528 l 150 590 q 236 418 203 488 q 290 301 269 349 q 322 224 311 254 q 340 169 333 194 q 360 224 349 194 q 392 301 371 254 q 446 418 413 349 q 532 590 479 488 l 675 590 l 251 -283 z "},"ø":{"ha":714,"x_min":43,"x_max":669,"o":"m 44 296 q 69 416 44 360 q 136 514 93 472 q 237 580 179 556 q 360 604 294 604 q 444 592 404 604 q 519 561 485 581 l 579 631 l 649 575 l 589 506 q 648 410 626 464 q 669 296 669 357 q 647 175 669 232 q 582 76 624 118 q 483 9 540 33 q 358 -15 426 -15 q 262 -1 307 -15 q 178 38 217 13 q 137 -10 154 11 q 110 -42 119 -31 l 43 18 l 111 97 q 62 186 79 136 q 44 296 44 236 m 265 139 q 356 115 306 115 q 426 129 393 115 q 483 167 458 143 q 522 224 507 192 q 536 294 536 257 q 499 403 536 354 l 265 139 m 176 294 q 203 200 176 244 l 429 458 q 356 475 396 475 q 285 460 318 475 q 228 422 253 446 q 190 365 204 397 q 176 294 176 332 z "},"w":{"ha":919,"x_min":13,"x_max":914,"o":"m 400 504 l 360 590 l 475 590 q 544 436 517 500 q 590 328 572 372 q 619 258 608 285 q 635 214 629 231 q 649 282 640 251 q 675 351 658 313 q 717 446 692 390 q 781 590 743 501 l 914 590 l 635 -35 q 588 69 608 18 q 546 169 567 119 q 503 270 525 219 q 456 374 482 321 q 366 169 408 268 q 278 -35 324 71 l 13 590 l 146 590 q 207 444 183 500 q 244 350 231 389 q 265 281 258 311 q 278 214 272 251 q 288 243 282 226 q 307 291 294 260 q 342 373 319 322 q 400 504 364 424 z "},"x":{"ha":625,"x_min":13,"x_max":617,"o":"m 229 314 q 129 452 182 383 q 28 590 76 521 l 192 590 q 223 542 208 564 q 252 501 238 521 q 283 461 267 482 q 315 415 299 440 q 347 461 332 440 q 378 501 363 482 q 408 542 393 521 q 440 589 424 564 l 589 589 q 539 516 563 549 q 492 451 515 483 q 445 385 469 419 q 393 308 421 350 q 446 234 417 274 q 506 154 475 194 q 565 74 536 114 q 617 0 593 35 l 446 0 q 372 97 408 53 q 299 192 335 140 q 230 97 263 139 q 161 0 197 54 l 13 0 q 122 157 65 79 q 229 314 178 235 z "},"z":{"ha":631,"x_min":19,"x_max":594,"o":"m 589 0 l 19 0 l 350 476 l 168 476 q 85 505 119 476 q 51 578 51 533 l 51 646 l 171 646 l 171 628 q 182 596 171 601 q 218 590 193 590 l 594 590 l 275 131 l 589 131 l 589 0 z "},"o":{"ha":714,"x_min":44,"x_max":669,"o":"m 44 296 q 69 416 44 360 q 136 514 93 472 q 237 580 179 556 q 360 604 294 604 q 483 580 426 604 q 581 514 540 556 q 646 416 622 472 q 669 296 669 360 q 647 175 669 232 q 582 76 624 118 q 483 9 540 33 q 358 -15 426 -15 q 236 7 293 -15 q 137 70 179 29 q 69 169 94 111 q 44 296 44 226 m 176 294 q 190 224 176 257 q 228 167 204 192 q 285 129 253 143 q 356 115 318 115 q 426 129 393 115 q 483 167 458 143 q 522 224 507 192 q 536 294 536 257 q 522 365 536 332 q 483 422 507 397 q 426 460 458 446 q 356 475 393 475 q 285 460 318 475 q 228 422 253 446 q 190 365 204 397 q 176 294 176 332 z "},"æ":{"ha":986,"x_min":39,"x_max":967,"o":"m 918 68 q 814 7 875 29 q 689 -15 753 -15 q 572 7 626 -15 q 475 68 517 29 q 378 8 436 29 q 249 -12 319 -12 q 150 2 190 -12 q 85 41 110 17 q 50 97 61 65 q 39 161 39 128 q 57 240 39 207 q 103 293 75 272 q 167 324 132 314 q 235 335 201 335 l 376 335 q 407 433 382 385 q 363 465 392 456 q 293 474 333 474 q 196 462 239 474 q 121 432 153 450 l 67 535 q 178 587 115 568 q 310 606 240 606 q 418 588 371 606 q 493 538 465 569 q 582 587 533 569 q 683 604 631 604 q 859 544 783 604 q 967 385 935 483 q 870 348 925 369 q 756 303 815 326 q 636 255 696 279 q 526 211 576 231 q 592 142 550 168 q 686 115 633 115 q 759 128 722 115 q 819 164 796 142 l 918 68 m 801 415 q 751 460 785 446 q 686 475 718 475 q 615 460 649 475 q 558 422 582 446 q 521 366 535 397 q 507 301 507 335 l 507 296 q 581 326 542 310 q 660 358 621 342 q 736 390 700 375 q 801 415 772 404 m 160 174 q 190 126 160 138 q 257 115 221 115 q 345 126 306 115 q 403 164 385 138 q 379 238 385 199 l 307 238 q 191 219 222 238 q 160 174 160 201 z "},"A":{"ha":907,"x_min":0,"x_max":907,"o":"m 739 0 q 724 35 735 10 q 699 96 714 60 q 665 176 683 132 q 628 267 647 219 l 279 267 l 168 0 l 0 0 q 26 62 6 13 q 78 184 47 111 q 148 347 110 257 q 226 529 186 436 q 305 712 267 622 q 374 874 343 801 q 426 997 406 947 q 453 1058 447 1046 q 480 997 458 1046 q 533 874 501 947 q 602 712 564 801 q 681 529 640 622 q 759 347 721 436 q 828 184 797 257 q 881 62 860 111 q 907 0 901 13 l 739 0 m 338 410 l 568 410 l 468 651 q 461 670 467 653 q 453 701 456 688 q 444 670 450 688 q 439 651 439 653 l 338 410 z "},"ï":{"ha":297,"x_min":-65,"x_max":372,"o":"m 215 0 l 82 0 l 82 590 l 215 590 l 215 0 m 203 742 q 230 803 203 778 q 289 828 257 828 q 345 803 318 828 q 372 742 372 778 q 345 679 372 703 q 289 656 318 656 q 230 679 257 656 q 203 742 203 703 m -65 742 q -38 803 -65 778 q 21 828 -11 828 q 77 803 50 828 q 104 742 104 778 q 77 679 104 703 q 21 656 50 656 q -38 679 -11 656 q -65 742 -65 703 z "},"ý":{"ha":681,"x_min":6,"x_max":675,"o":"m 251 -283 l 118 -283 q 157 -203 139 -242 q 193 -126 175 -165 q 231 -44 211 -86 q 274 46 250 -3 q 208 178 242 108 q 139 318 174 247 q 70 458 104 389 q 6 590 36 528 l 150 590 q 236 418 203 488 q 290 301 269 349 q 322 224 311 254 q 340 169 333 194 q 360 224 349 194 q 392 301 371 254 q 446 418 413 349 q 532 590 479 488 l 675 590 l 251 -283 m 283 676 q 347 769 315 722 q 410 864 378 817 l 553 864 q 468 769 511 817 q 382 676 425 722 l 283 676 z "},"ÿ":{"ha":681,"x_min":6,"x_max":675,"o":"m 251 -283 l 118 -283 q 157 -203 139 -242 q 193 -126 175 -165 q 231 -44 211 -86 q 274 46 250 -3 q 208 178 242 108 q 139 318 174 247 q 70 458 104 389 q 6 590 36 528 l 150 590 q 236 418 203 488 q 290 301 269 349 q 322 224 311 254 q 340 169 333 194 q 360 224 349 194 q 392 301 371 254 q 446 418 413 349 q 532 590 479 488 l 675 590 l 251 -283 m 369 742 q 397 803 369 778 q 456 828 424 828 q 512 803 485 828 q 539 742 539 778 q 512 679 539 703 q 456 656 485 656 q 397 679 424 656 q 369 742 369 703 m 101 742 q 128 803 101 778 q 188 828 156 828 q 244 803 217 828 q 271 742 271 778 q 244 679 271 703 q 188 656 217 656 q 128 679 156 656 q 101 742 101 703 z "},"B":{"ha":826,"x_min":117,"x_max":771,"o":"m 286 858 l 286 583 l 414 583 q 519 625 485 583 q 553 725 553 667 q 511 826 553 793 q 399 858 469 858 l 286 858 m 286 439 l 286 154 l 419 154 q 490 163 457 154 q 549 190 524 172 q 588 234 574 207 q 601 297 601 261 q 585 365 601 338 q 540 408 568 392 q 477 432 513 425 q 404 439 442 439 l 286 439 m 117 0 l 117 1013 l 393 1013 q 529 998 468 1013 q 633 952 590 983 q 699 870 676 921 q 722 749 722 819 q 715 673 722 710 q 690 605 707 636 q 644 550 672 574 q 575 514 617 526 q 645 490 610 507 q 708 445 681 474 q 753 374 736 417 q 771 275 771 332 q 742 149 771 201 q 667 64 714 97 q 560 15 621 31 q 433 0 499 0 l 117 0 z "},"D":{"ha":990,"x_min":117,"x_max":938,"o":"m 117 1013 l 379 1013 q 638 966 532 1013 q 811 846 744 919 q 908 678 878 772 q 938 492 938 585 q 897 287 938 378 q 786 132 856 196 q 624 34 717 68 q 429 0 532 0 l 117 0 l 117 1013 m 403 161 q 549 183 482 161 q 664 249 615 206 q 740 356 713 293 q 767 503 767 419 q 734 663 767 597 q 651 770 701 729 q 540 830 601 811 q 424 849 479 849 l 288 849 l 288 161 l 403 161 z "},"E":{"ha":860,"x_min":117,"x_max":808,"o":"m 117 0 l 117 1013 l 789 1013 l 789 858 l 286 858 l 286 586 l 733 586 l 733 428 l 286 428 l 286 158 l 808 158 l 808 0 l 117 0 z "},"H":{"ha":1060,"x_min":117,"x_max":943,"o":"m 117 0 l 117 1013 l 288 1013 l 288 590 l 771 590 l 771 1013 l 943 1013 q 943 919 943 996 q 943 735 943 843 q 942 506 943 628 q 942 277 942 385 q 942 93 942 169 q 942 0 942 17 l 771 0 l 771 428 l 288 428 l 288 0 l 117 0 z "},"I":{"ha":404,"x_min":117,"x_max":288,"o":"m 117 1013 l 288 1013 l 288 0 l 117 0 l 117 1013 z "},"J":{"ha":475,"x_min":-28,"x_max":363,"o":"m -28 -210 l -28 -49 q 60 -31 19 -46 q 129 15 100 -15 q 174 91 158 44 q 190 201 190 138 l 190 1013 l 363 1013 l 363 197 q 333 27 363 101 q 251 -99 303 -47 q 127 -179 199 -151 q -28 -210 56 -207 z "},"K":{"ha":910,"x_min":117,"x_max":921,"o":"m 710 0 q 619 115 661 60 q 536 226 578 171 q 452 337 494 281 q 363 454 410 393 q 333 424 347 438 q 304 397 319 411 l 304 0 l 117 0 l 117 1013 l 304 1013 l 304 649 q 303 625 304 638 q 300 600 301 613 q 315 617 307 610 q 329 636 322 625 q 510 824 424 726 q 692 1013 597 921 l 907 1013 q 700 790 803 903 q 494 569 597 678 q 605 424 553 494 q 708 284 657 353 q 812 145 760 215 q 921 0 864 75 l 710 0 z "},"M":{"ha":1257,"x_min":117,"x_max":1140,"o":"m 117 1057 q 147 1013 124 1047 q 206 930 171 979 q 285 821 242 881 q 374 699 329 761 q 463 578 419 638 q 540 471 506 519 q 599 390 575 422 q 629 349 624 357 q 654 384 632 353 q 710 463 676 415 q 788 570 744 510 q 876 693 831 631 q 966 817 922 756 q 1047 928 1010 878 q 1108 1013 1083 978 q 1140 1057 1133 1047 l 1140 0 l 958 0 l 958 517 q 961 540 958 528 q 964 556 964 553 l 629 74 q 595 119 622 82 q 531 208 568 157 q 451 319 493 260 q 373 428 410 378 q 310 515 336 479 q 282 556 285 550 q 285 540 282 553 q 288 517 288 528 l 288 0 l 117 0 l 117 1057 z "},"N":{"ha":1128,"x_min":117,"x_max":1011,"o":"m 1011 1013 l 1011 -47 q 968 -1 1001 -35 q 886 78 935 32 q 778 181 838 125 q 658 295 719 238 q 539 408 597 353 q 433 510 481 464 q 352 590 385 557 q 310 635 319 622 q 299 649 308 638 q 282 671 289 661 l 286 626 l 286 0 l 117 0 l 117 1058 q 160 1013 126 1046 q 242 935 193 981 q 349 835 290 889 q 469 724 408 781 q 589 613 531 668 q 696 513 647 558 q 777 436 744 468 q 819 392 810 404 l 846 353 l 842 400 l 842 1013 l 1011 1013 z "},"P":{"ha":810,"x_min":117,"x_max":772,"o":"m 286 508 l 422 508 q 510 526 475 508 q 565 572 544 544 q 594 628 586 599 q 603 682 603 658 q 595 734 603 704 q 567 790 588 764 q 513 835 547 817 q 424 853 478 853 l 286 853 l 286 508 m 117 0 l 117 1013 l 403 1013 q 555 990 486 1013 q 672 926 624 968 q 746 824 719 885 q 772 686 772 763 q 754 565 772 625 q 695 456 736 504 q 589 378 654 408 q 428 349 524 349 l 286 349 l 286 0 l 117 0 z "},"R":{"ha":883,"x_min":117,"x_max":871,"o":"m 117 0 l 117 1013 l 403 1013 q 555 990 486 1013 q 672 926 624 968 q 746 824 719 885 q 772 686 772 763 q 764 603 772 644 q 738 522 756 561 q 690 451 719 483 q 621 394 661 418 q 681 299 651 346 q 740 206 710 253 q 801 108 769 158 q 871 0 833 58 l 667 0 q 549 184 604 97 q 442 349 493 271 l 428 349 l 286 349 l 286 0 l 117 0 m 286 508 l 422 508 q 510 526 475 508 q 565 570 544 544 q 594 626 586 596 q 603 681 603 656 q 595 734 603 704 q 567 790 588 764 q 513 835 547 817 q 424 853 478 853 l 286 853 l 286 508 z "},"U":{"ha":1000,"x_min":107,"x_max":893,"o":"m 499 -11 q 345 16 417 -11 q 221 92 274 43 q 138 209 168 140 q 107 361 107 278 l 107 1013 l 276 1013 l 276 365 q 294 282 276 321 q 341 214 311 243 q 411 167 371 185 q 499 150 451 150 q 587 167 546 150 q 658 214 628 185 q 706 282 689 243 q 724 365 724 321 l 724 1013 l 893 1013 l 893 361 q 863 209 893 278 q 778 92 832 140 q 653 16 725 43 q 499 -11 581 -11 z "},"Y":{"ha":929,"x_min":4,"x_max":924,"o":"m 550 328 l 550 0 l 379 0 l 379 328 q 344 390 372 338 q 276 515 317 442 q 192 670 236 588 q 107 826 147 753 q 39 951 67 899 q 4 1013 11 1003 l 197 1013 q 219 973 203 1003 q 257 901 235 943 q 306 808 279 858 q 358 706 332 757 q 408 609 385 656 q 450 528 432 563 l 465 481 q 475 505 471 492 q 483 528 479 518 q 525 609 501 563 q 574 706 549 656 q 626 808 600 757 q 673 901 651 858 q 710 973 694 943 q 731 1013 725 1003 l 924 1013 l 550 328 z "},"~":{"ha":654,"x_min":99,"x_max":560,"o":"m 317 674 q 279 701 294 693 q 244 708 264 708 q 224 706 235 708 q 202 697 213 704 q 183 678 192 690 q 174 647 175 667 l 99 650 q 113 703 100 679 q 144 745 125 728 q 185 772 163 763 q 231 782 208 782 q 292 771 265 782 q 342 738 318 760 q 379 710 364 717 q 414 703 394 703 q 435 705 424 703 q 456 714 446 707 q 474 733 467 721 q 485 764 482 744 l 560 761 q 546 708 558 732 q 515 666 533 683 q 473 639 496 649 q 428 629 450 629 q 367 641 394 629 q 317 674 340 653 z "},"ñ":{"ha":725,"x_min":82,"x_max":647,"o":"m 82 590 l 199 590 q 205 509 201 540 q 211 439 208 478 q 301 560 243 514 q 447 606 360 606 q 591 556 538 606 q 647 428 644 507 l 647 0 l 515 0 l 515 365 q 485 440 513 408 q 399 474 457 471 q 324 459 358 474 q 266 419 290 444 q 228 360 242 394 q 215 285 215 325 l 215 0 l 82 0 l 82 590 m 388 713 q 350 740 365 732 q 315 747 335 747 q 294 745 306 747 q 273 736 283 743 q 254 717 263 729 q 244 686 246 706 l 169 689 q 183 742 171 718 q 215 784 196 767 q 256 811 233 801 q 301 821 279 821 q 363 810 336 821 q 413 776 389 799 q 450 749 435 756 q 485 742 465 742 q 506 744 494 742 q 527 753 517 746 q 545 772 538 760 q 556 803 553 783 l 631 800 q 617 747 629 771 q 585 705 604 722 q 544 678 567 688 q 499 668 521 668 q 438 680 465 668 q 388 713 411 692 z "},"F":{"ha":776,"x_min":117,"x_max":732,"o":"m 117 0 l 117 1013 l 732 1013 l 732 856 l 286 856 l 286 572 l 674 572 l 674 414 l 286 414 l 286 0 l 117 0 z "},"L":{"ha":799,"x_min":117,"x_max":778,"o":"m 117 0 l 117 1013 l 286 1013 l 286 161 l 778 161 l 778 0 l 117 0 z "},"C":{"ha":889,"x_min":51,"x_max":879,"o":"m 879 75 q 833 49 863 64 q 762 20 803 33 q 669 -2 721 7 q 560 -11 618 -11 q 346 30 440 -11 q 186 140 251 71 q 86 303 121 210 q 51 499 51 396 q 93 709 51 613 q 206 876 135 806 q 373 985 278 946 q 576 1024 468 1024 q 660 1017 618 1024 q 740 1001 703 1011 q 806 979 778 992 q 847 953 835 967 q 828 921 835 933 q 813 895 821 908 q 797 865 806 882 q 771 819 788 849 q 731 839 754 831 q 681 852 707 847 q 629 860 656 857 q 582 863 603 863 q 438 833 504 863 q 324 756 372 804 q 249 644 276 708 q 222 513 222 581 q 248 383 222 446 q 320 271 274 319 q 431 192 367 222 q 572 163 494 163 q 658 172 617 163 q 732 192 700 181 q 784 214 764 203 q 806 229 804 225 l 879 75 z "},"Q":{"ha":1142,"x_min":50,"x_max":1117,"o":"m 50 504 q 90 704 50 610 q 201 869 131 799 q 365 982 271 940 q 565 1024 458 1024 q 765 982 671 1024 q 931 869 860 940 q 1042 704 1001 799 q 1083 504 1083 610 q 1054 317 1083 406 q 968 149 1025 229 l 1117 161 l 1117 0 l 674 0 q 619 -8 646 -6 q 565 -11 593 -11 q 365 29 458 -11 q 201 140 271 69 q 90 303 131 210 q 50 504 50 397 m 219 504 q 247 366 219 431 q 322 253 275 301 q 433 178 369 206 q 569 150 497 150 q 704 178 642 150 q 813 253 767 206 q 887 366 860 301 q 914 504 914 431 q 887 642 914 578 q 813 756 860 707 q 702 832 765 804 q 567 860 639 860 q 431 832 494 860 q 321 756 368 804 q 247 642 274 707 q 219 504 219 578 z "},"T":{"ha":782,"x_min":58,"x_max":724,"o":"m 724 1013 l 724 850 l 474 850 l 474 0 l 303 0 l 303 850 l 58 850 l 58 1013 l 724 1013 z "},"‹":{"ha":393,"x_min":54,"x_max":294,"o":"m 294 65 l 54 338 q 76 362 58 342 q 120 411 94 382 q 174 474 146 440 q 228 535 203 507 q 272 584 254 564 q 294 608 290 604 l 294 446 q 278 426 290 442 q 252 392 265 410 q 226 359 239 375 q 210 338 214 343 q 226 316 214 332 q 252 282 239 300 q 278 248 265 264 q 294 226 290 232 l 294 65 z "},">":{"ha":736,"x_min":85,"x_max":701,"o":"m 85 -19 l 85 176 l 363 336 l 85 496 l 85 690 q 393 514 240 603 q 701 336 546 425 q 393 158 546 246 q 85 -19 240 69 z "},"<":{"ha":736,"x_min":35,"x_max":651,"o":"m 651 176 l 651 -19 q 343 158 496 69 q 35 336 190 246 q 343 514 190 425 q 651 690 496 603 l 651 496 l 375 336 l 651 176 z "},"=":{"ha":875,"x_min":81,"x_max":794,"o":"m 794 283 l 794 144 l 81 144 l 81 283 l 794 283 m 794 557 l 794 418 l 81 418 l 81 557 l 794 557 z "},"@":{"ha":1322,"x_min":53,"x_max":1256,"o":"m 324 289 q 349 410 324 353 q 416 511 374 468 q 515 580 458 554 q 633 606 571 606 q 708 595 675 606 q 766 571 742 585 q 804 542 790 557 q 822 519 818 528 l 828 590 l 957 590 l 957 125 l 988 125 q 1027 135 1004 125 q 1072 172 1050 146 q 1108 242 1093 199 q 1124 351 1124 286 q 1097 501 1124 428 q 1015 633 1069 575 q 876 727 960 692 q 681 763 793 763 q 451 717 546 763 q 297 601 357 671 q 210 446 238 531 q 182 283 182 361 q 219 102 182 188 q 320 -47 256 17 q 472 -148 385 -111 q 657 -185 558 -185 q 812 -160 738 -185 q 949 -92 886 -136 l 1025 -183 q 943 -239 989 -215 q 848 -278 897 -262 q 748 -301 799 -293 q 650 -308 697 -308 q 419 -261 528 -308 q 230 -133 311 -214 q 101 56 149 -53 q 53 288 53 164 q 93 504 53 397 q 213 697 133 611 q 410 835 292 782 q 685 888 528 888 q 933 842 826 888 q 1112 720 1040 796 q 1219 549 1183 644 q 1256 353 1256 453 q 1235 207 1256 272 q 1179 96 1215 142 q 1094 25 1143 50 q 988 0 1046 0 l 822 0 l 822 39 q 823 52 822 46 q 824 61 824 58 q 804 41 818 54 q 767 15 790 28 q 710 -6 743 3 q 635 -15 678 -15 q 510 10 567 -15 q 411 76 453 35 q 347 173 369 118 q 324 289 324 228 m 458 297 q 472 225 458 258 q 509 167 485 192 q 567 129 533 143 q 640 115 600 115 q 714 129 681 115 q 772 168 747 143 q 809 226 796 193 q 822 297 822 260 q 809 367 822 335 q 772 424 796 400 q 714 461 747 447 q 640 475 681 475 q 567 462 600 475 q 509 424 533 449 q 472 367 485 400 q 458 297 458 335 z "},"?":{"ha":660,"x_min":46,"x_max":610,"o":"m 169 764 q 108 787 139 775 q 46 810 76 799 q 71 876 54 838 q 119 950 88 915 q 203 1009 151 985 q 333 1033 254 1033 q 442 1011 392 1033 q 530 951 493 989 q 588 864 567 914 q 610 758 610 814 q 573 619 610 679 q 472 511 536 560 q 432 483 454 499 q 390 448 410 468 q 356 402 369 428 q 342 342 342 376 l 342 231 l 197 231 l 197 368 q 211 443 197 414 q 248 494 225 472 q 300 534 271 515 q 361 576 329 553 q 464 758 464 654 q 428 856 464 817 q 333 894 393 894 q 268 886 294 894 q 223 862 242 878 q 192 822 204 846 q 169 764 179 797 m 268 -8 q 209 15 236 -8 q 182 76 182 38 q 209 138 182 113 q 268 163 236 163 q 325 138 299 163 q 351 76 351 113 q 325 15 351 38 q 268 -8 299 -8 z "},"!":{"ha":379,"x_min":104,"x_max":274,"o":"m 118 1058 l 261 1058 l 261 233 l 118 233 l 118 1058 m 190 -14 q 131 11 157 -14 q 104 74 104 36 q 131 135 104 111 q 190 158 157 158 q 247 135 221 158 q 274 74 274 111 q 247 11 274 36 q 190 -14 221 -14 z "},":":{"ha":322,"x_min":76,"x_max":246,"o":"m 76 472 q 103 533 76 508 q 163 558 131 558 q 219 533 192 558 q 246 472 246 508 q 219 409 246 432 q 163 386 192 386 q 103 409 131 386 q 76 472 76 432 m 76 86 q 103 147 76 122 q 163 172 131 172 q 219 147 192 172 q 246 86 246 122 q 219 23 246 46 q 163 0 192 0 q 103 23 131 0 q 76 86 76 46 z "},";":{"ha":360,"x_min":3,"x_max":278,"o":"m 253 122 l 131 -169 l 3 -169 q 57 -24 31 -96 q 111 122 83 47 l 253 122 m 110 439 q 136 500 110 475 q 194 525 163 525 q 251 500 225 525 q 278 439 278 475 q 251 376 278 399 q 194 353 225 353 q 136 376 163 353 q 110 439 110 399 z "},"\"":{"ha":499,"x_min":88,"x_max":415,"o":"m 275 665 l 275 1015 l 415 1015 l 410 665 l 275 665 m 88 665 l 88 1015 l 228 1015 l 222 665 l 88 665 z "},"#":{"ha":813,"x_min":54,"x_max":757,"o":"m 406 0 q 420 126 413 64 q 435 251 428 188 l 319 251 q 305 126 313 188 q 290 0 297 64 l 146 0 q 160 126 153 64 q 175 251 168 188 l 54 251 q 63 322 58 288 q 71 390 68 356 l 192 390 l 207 511 l 86 511 l 101 649 l 221 649 q 238 778 231 715 q 254 907 246 842 l 399 907 l 365 649 l 482 649 q 497 778 489 715 q 514 907 506 842 l 658 907 l 625 649 l 757 649 q 750 580 753 614 q 743 511 747 546 l 610 511 l 596 390 l 728 390 q 719 322 724 356 q 711 251 714 288 l 579 251 l 549 0 l 406 0 m 350 511 q 344 451 347 481 q 336 390 340 421 l 451 390 l 465 511 l 350 511 z "},"%":{"ha":1018,"x_min":53,"x_max":968,"o":"m 221 0 l 642 706 l 799 706 l 378 0 l 221 0 m 781 -31 q 708 -16 742 -31 q 648 24 674 -1 q 608 83 622 49 q 593 156 593 117 q 608 228 593 194 q 648 286 622 261 q 708 326 674 311 q 781 340 742 340 q 852 326 818 340 q 912 286 886 311 q 953 228 938 261 q 968 156 968 194 q 953 83 968 117 q 912 24 938 49 q 852 -16 886 -1 q 781 -31 818 -31 m 240 364 q 169 378 203 364 q 109 418 135 393 q 68 476 83 443 q 53 549 53 510 q 68 621 53 588 q 109 679 83 654 q 169 719 135 704 q 240 733 203 733 q 312 719 278 733 q 372 679 346 704 q 413 621 397 654 q 428 549 428 588 q 413 476 428 510 q 372 418 397 443 q 312 378 346 393 q 240 364 278 364 m 197 549 q 208 515 197 529 q 240 501 219 501 q 272 515 261 501 q 283 549 283 529 q 272 582 283 569 q 240 594 261 594 q 208 582 219 594 q 197 549 197 569 m 738 157 q 749 123 738 136 q 781 110 760 110 q 813 123 803 110 q 824 157 824 136 q 813 189 824 176 q 781 201 803 201 q 749 189 760 201 q 738 157 738 176 z "},"’":{"ha":256,"x_min":56,"x_max":200,"o":"m 126 797 q 92 814 108 806 q 56 833 75 822 q 99 903 86 861 q 103 993 113 944 l 189 1003 q 183 891 200 944 q 126 797 167 838 z "},"(":{"ha":422,"x_min":49,"x_max":410,"o":"m 49 410 q 68 611 49 515 q 120 790 88 707 q 194 939 153 872 q 281 1051 236 1006 q 345 1035 313 1043 q 410 1019 378 1028 q 330 910 369 974 q 260 769 290 846 q 210 601 229 692 q 192 410 192 510 q 210 219 192 310 q 260 51 229 129 q 330 -90 290 -26 q 410 -199 369 -153 q 345 -216 378 -208 q 281 -232 313 -224 q 194 -118 236 -185 q 120 31 153 -51 q 68 208 88 113 q 49 410 49 304 z "},")":{"ha":424,"x_min":14,"x_max":375,"o":"m 375 404 q 356 203 375 299 q 303 25 336 107 q 229 -124 271 -57 q 143 -237 188 -190 l 14 -208 q 94 -99 56 -162 q 164 42 133 -35 q 213 210 194 119 q 232 401 232 301 q 213 592 232 501 q 164 760 194 682 q 94 901 133 838 q 14 1011 56 964 q 78 1028 46 1019 q 143 1047 111 1038 q 229 933 188 1000 q 303 785 271 867 q 356 606 336 703 q 375 404 375 510 z "},"*":{"ha":519,"x_min":64,"x_max":457,"o":"m 353 799 l 454 740 l 406 656 l 306 715 q 305 659 306 688 q 304 603 304 631 l 211 603 l 211 715 l 113 660 l 64 744 q 113 772 89 758 q 164 800 138 786 l 65 860 q 88 899 76 879 q 110 939 99 919 l 211 881 l 211 1000 l 310 1000 q 309 940 310 969 q 308 881 308 911 q 359 910 333 896 q 411 938 385 924 q 434 898 422 918 q 457 858 446 878 q 406 828 431 843 q 353 799 381 814 z "},"+":{"ha":621,"x_min":57,"x_max":564,"o":"m 238 72 l 238 256 l 57 256 l 57 394 l 238 394 l 238 579 l 383 579 l 383 394 l 564 394 l 564 256 l 383 256 l 383 72 l 238 72 z "},"|":{"ha":378,"x_min":117,"x_max":261,"o":"m 117 -328 l 117 988 l 261 988 l 261 -328 l 117 -328 z "},"{":{"ha":471,"x_min":38,"x_max":425,"o":"m 38 350 l 38 485 q 94 506 72 486 q 128 553 115 525 q 144 614 140 581 q 149 676 149 647 l 149 886 q 163 987 149 953 q 201 1035 176 1021 q 258 1051 225 1050 q 328 1053 290 1053 l 425 1053 l 425 914 l 368 914 q 333 909 347 914 q 310 890 318 904 q 298 847 301 875 q 294 772 294 818 l 294 597 q 285 531 294 560 q 261 481 275 503 q 232 444 247 458 q 204 419 217 429 q 232 397 217 411 q 261 360 247 382 q 285 309 275 338 q 294 244 294 281 l 294 71 q 298 -3 294 25 q 310 -47 301 -32 q 333 -67 318 -62 q 368 -72 347 -72 l 425 -72 l 425 -211 l 328 -211 q 261 -210 293 -211 q 204 -196 229 -210 q 164 -150 179 -182 q 149 -57 149 -118 l 149 158 q 144 221 149 188 q 128 282 140 254 q 94 329 115 310 q 38 350 72 349 z "},"}":{"ha":472,"x_min":46,"x_max":435,"o":"m 435 485 l 435 350 q 382 332 403 349 q 347 290 361 315 q 328 234 333 265 q 322 172 322 203 l 322 -44 q 308 -144 322 -110 q 270 -194 294 -179 q 214 -210 246 -208 q 144 -211 182 -211 l 46 -211 l 46 -72 l 103 -72 q 139 -67 125 -72 q 161 -47 153 -62 q 173 -3 169 -32 q 176 71 176 25 l 176 232 q 186 305 176 274 q 210 359 196 336 q 240 397 224 382 q 268 419 256 411 q 240 444 256 429 q 210 481 224 458 q 186 531 196 503 q 176 597 176 560 l 176 772 q 173 847 176 818 q 161 890 169 875 q 139 909 153 904 q 103 914 125 914 l 46 914 l 46 1053 l 144 1053 q 212 1051 179 1053 q 269 1035 244 1050 q 308 987 293 1021 q 322 886 322 953 l 322 663 q 328 602 322 633 q 347 545 333 571 q 382 503 361 519 q 435 485 403 486 z "},"-":{"ha":414,"x_min":76,"x_max":336,"o":"m 76 238 l 76 378 l 336 378 l 336 238 l 76 238 z "},"/":{"ha":618,"x_min":40,"x_max":576,"o":"m 40 -26 q 237 506 140 242 q 433 1039 333 771 l 576 1039 l 185 -26 l 40 -26 z "},"\\":{"ha":633,"x_min":39,"x_max":594,"o":"m 201 1039 q 397 506 300 771 q 594 -26 494 242 l 432 -26 q 236 506 333 242 q 39 1039 139 771 l 201 1039 z "},"G":{"ha":956,"x_min":51,"x_max":882,"o":"m 882 492 l 882 61 q 741 8 824 26 q 572 -11 658 -11 q 356 26 453 -11 q 192 129 260 64 q 88 285 124 194 q 51 482 51 375 q 94 702 51 603 q 210 873 138 801 q 380 984 283 944 q 583 1024 476 1024 q 659 1019 619 1024 q 738 1004 699 1014 q 813 981 776 994 q 878 950 849 968 l 794 811 q 748 833 775 824 q 692 849 721 842 q 634 859 663 856 q 581 863 606 863 q 445 834 510 863 q 331 757 381 806 q 251 641 281 708 q 221 497 221 574 q 247 365 221 428 q 321 255 274 303 q 433 178 368 207 q 576 150 499 150 q 646 155 604 150 q 725 172 688 160 l 725 344 l 536 344 l 536 492 l 882 492 z "},"V":{"ha":907,"x_min":0,"x_max":907,"o":"m 168 1013 l 439 361 q 444 342 439 360 q 453 310 450 325 q 461 342 456 325 q 468 361 467 360 l 739 1013 l 907 1013 q 881 950 901 1000 q 828 827 860 900 q 759 665 797 754 q 681 483 721 575 q 602 300 640 390 q 533 137 564 210 q 480 15 501 64 q 453 -47 458 -35 q 426 15 447 -35 q 374 137 406 64 q 305 300 343 210 q 226 483 267 390 q 148 665 186 575 q 78 827 110 754 q 26 950 47 900 q 0 1013 6 1000 l 168 1013 z "},"S":{"ha":793,"x_min":29,"x_max":747,"o":"m 714 956 l 653 817 q 538 850 594 838 q 432 863 481 863 q 298 829 347 863 q 249 744 249 796 q 285 672 249 700 q 378 622 322 644 q 498 577 433 600 q 618 518 563 554 q 710 426 674 482 q 747 285 747 371 q 723 164 747 218 q 650 71 699 110 q 527 10 601 32 q 353 -11 453 -11 q 242 -3 292 -11 q 152 18 192 6 q 82 45 113 31 q 29 74 51 60 l 103 222 q 228 173 161 190 q 346 156 294 156 q 410 161 371 156 q 488 182 450 167 q 552 224 525 197 q 579 292 579 250 q 542 372 579 340 q 450 427 506 403 q 330 475 394 451 q 210 531 265 499 q 117 612 154 564 q 81 733 81 660 q 101 837 81 786 q 165 928 122 888 q 270 993 207 968 q 419 1018 333 1018 q 524 1009 474 1018 q 615 989 575 1000 q 682 967 656 978 q 714 956 708 957 z "},"Z":{"ha":889,"x_min":0,"x_max":856,"o":"m 261 1013 l 847 1013 l 297 164 l 856 164 l 856 0 l 0 0 q 35 54 8 13 q 101 156 63 96 q 188 291 140 217 q 283 442 235 365 q 378 592 331 518 q 464 725 425 665 q 530 826 503 785 q 565 879 557 868 l 189 879 q 144 885 167 879 q 105 904 122 892 q 76 934 88 917 q 65 972 65 951 l 65 1063 l 217 1063 l 217 1044 q 226 1015 217 1017 q 261 1013 236 1013 z "},"W":{"ha":1324,"x_min":8,"x_max":1315,"o":"m 1315 1007 q 1211 734 1265 875 q 1103 455 1157 593 q 1001 189 1050 317 q 913 -44 951 61 l 685 519 q 678 536 679 532 q 674 553 676 540 q 672 542 672 547 q 669 532 671 536 q 665 521 668 526 q 569 307 615 411 q 528 215 550 263 q 486 120 507 167 q 446 31 465 74 q 411 -47 426 -12 q 210 480 311 218 q 8 1007 108 742 l 201 1007 q 322 675 264 831 q 411 399 379 519 q 417 374 414 388 q 422 349 419 360 q 428 373 422 357 q 438 397 435 389 q 447 423 439 404 q 467 467 456 442 q 492 522 478 492 q 519 582 506 551 q 592 738 553 653 q 556 849 572 796 q 526 938 540 893 q 504 1007 511 983 l 668 1007 q 776 725 728 853 q 818 617 797 671 q 856 519 839 564 q 884 442 872 474 q 900 399 896 410 q 907 374 906 386 q 911 350 908 363 q 916 375 914 363 q 921 399 918 388 q 959 533 935 461 q 1013 682 983 604 q 1074 842 1042 760 q 1138 1007 1107 924 l 1315 1007 z "},"X":{"ha":897,"x_min":6,"x_max":889,"o":"m 338 518 q 308 563 332 525 q 250 653 283 600 q 178 765 217 706 q 106 877 139 825 q 48 967 72 929 q 19 1013 24 1004 l 229 1013 q 249 981 233 1006 q 285 922 264 956 q 328 849 306 888 q 372 777 351 811 q 408 718 393 743 q 428 686 422 693 q 438 667 429 685 q 451 636 446 649 q 465 667 457 649 q 475 686 474 685 q 494 718 479 693 q 528 777 508 743 q 571 849 549 811 q 613 922 593 888 q 648 981 633 956 q 667 1013 663 1006 l 876 1013 l 561 508 l 889 0 l 676 0 l 478 324 q 472 333 476 325 q 461 351 467 342 q 450 371 456 361 q 443 385 444 381 q 430 356 438 371 q 422 339 422 340 q 401 305 417 331 q 365 244 386 279 q 321 169 344 210 q 276 94 297 129 q 240 33 256 60 q 219 0 225 7 l 6 0 q 36 48 11 8 q 96 142 61 88 q 171 259 131 196 q 247 376 211 322 q 307 470 282 431 q 338 518 332 510 z "},"Æ":{"ha":1032,"x_min":1,"x_max":982,"o":"m 435 0 l 435 267 l 281 267 l 169 0 l 1 0 q 27 60 7 13 q 77 178 47 108 q 143 333 107 247 q 217 506 179 418 q 292 680 256 594 q 359 835 329 765 q 409 952 389 904 q 435 1013 429 1000 l 963 1013 l 963 858 l 594 858 l 594 586 l 907 586 l 907 428 l 594 428 l 594 158 l 982 158 l 982 0 l 435 0 m 435 639 q 394 544 422 610 q 335 399 367 478 l 435 399 l 435 639 z "},"Ñ":{"ha":1128,"x_min":117,"x_max":1011,"o":"m 1011 1013 l 1011 -47 q 968 -1 1001 -35 q 886 78 935 32 q 778 181 838 125 q 658 295 719 238 q 539 408 597 353 q 433 510 481 464 q 352 590 385 557 q 310 635 319 622 q 299 649 308 638 q 282 671 289 661 l 286 626 l 286 0 l 117 0 l 117 1058 q 160 1013 126 1046 q 242 935 193 981 q 349 835 290 889 q 469 724 408 781 q 589 613 531 668 q 696 513 647 558 q 777 436 744 468 q 819 392 810 404 l 846 353 l 842 400 l 842 1013 l 1011 1013 m 546 1096 q 508 1123 524 1115 q 474 1131 493 1131 q 453 1128 464 1131 q 431 1119 442 1126 q 413 1101 421 1113 q 403 1069 404 1089 l 328 1072 q 342 1126 329 1101 q 373 1167 354 1150 q 415 1194 392 1185 q 460 1204 438 1204 q 521 1193 494 1204 q 571 1160 547 1182 q 608 1132 593 1139 q 643 1125 624 1125 q 664 1127 653 1125 q 685 1136 675 1129 q 703 1155 696 1143 q 714 1186 711 1167 l 789 1183 q 775 1130 788 1154 q 744 1088 763 1106 q 702 1061 725 1071 q 657 1051 679 1051 q 597 1063 624 1051 q 546 1096 569 1075 z "},"Å":{"ha":907,"x_min":0,"x_max":907,"o":"m 739 0 q 724 35 735 10 q 699 96 714 60 q 665 176 683 132 q 628 267 647 219 l 279 267 l 168 0 l 0 0 q 26 62 6 13 q 78 184 47 111 q 148 347 110 257 q 226 529 186 436 q 305 712 267 622 q 374 874 343 801 q 426 997 406 947 q 453 1058 447 1046 q 480 997 458 1046 q 533 874 501 947 q 602 712 564 801 q 681 529 640 622 q 759 347 721 436 q 828 184 797 257 q 881 62 860 111 q 907 0 901 13 l 739 0 m 332 1183 q 342 1230 332 1208 q 368 1268 351 1251 q 407 1294 385 1285 q 454 1304 429 1304 q 501 1294 479 1304 q 540 1268 524 1285 q 567 1230 557 1251 q 576 1183 576 1208 q 567 1136 576 1158 q 540 1097 557 1114 q 501 1069 524 1079 q 454 1060 479 1060 q 407 1069 429 1060 q 368 1097 385 1079 q 342 1136 351 1114 q 332 1183 332 1158 m 338 410 l 568 410 l 468 651 q 461 670 467 653 q 453 701 456 688 q 444 670 450 688 q 439 651 439 653 l 338 410 m 408 1181 q 422 1149 408 1161 q 454 1136 435 1136 q 487 1149 474 1136 q 500 1181 500 1161 q 487 1215 500 1201 q 454 1228 474 1228 q 422 1215 435 1228 q 408 1181 408 1201 z "},"Á":{"ha":907,"x_min":0,"x_max":907,"o":"m 907 0 q 881 62 901 13 q 828 184 860 111 q 759 347 797 257 q 681 529 721 436 q 602 712 640 622 q 533 874 564 801 q 480 997 501 947 q 453 1058 458 1046 q 426 997 447 1046 q 374 874 406 947 q 305 712 343 801 q 226 529 267 622 q 148 347 186 436 q 78 184 110 257 q 26 62 47 111 q 0 0 6 13 l 168 0 l 279 267 l 628 267 q 665 176 647 219 q 699 96 683 132 q 724 35 714 60 q 739 0 735 10 l 907 0 m 439 651 q 444 670 439 653 q 453 701 450 688 q 461 670 456 688 q 468 651 467 653 l 568 410 l 338 410 l 439 651 m 382 1069 q 445 1163 414 1115 q 508 1257 476 1210 l 651 1257 q 567 1163 610 1210 q 481 1069 524 1115 l 382 1069 z "},"É":{"ha":860,"x_min":117,"x_max":808,"o":"m 117 0 l 117 1013 l 789 1013 l 789 858 l 286 858 l 286 586 l 733 586 l 733 428 l 286 428 l 286 158 l 808 158 l 808 0 l 117 0 m 374 1069 q 437 1163 406 1115 q 500 1257 468 1210 l 643 1257 q 558 1163 601 1210 q 472 1069 515 1115 l 374 1069 z "},"Í":{"ha":404,"x_min":117,"x_max":400,"o":"m 117 1013 l 288 1013 l 288 0 l 117 0 l 117 1013 m 131 1069 q 194 1163 163 1115 q 257 1257 225 1210 l 400 1257 q 315 1163 358 1210 q 229 1069 272 1115 l 131 1069 z "},"Ó":{"ha":1135,"x_min":50,"x_max":1085,"o":"m 50 504 q 91 704 50 610 q 202 869 132 799 q 366 982 272 940 q 567 1024 460 1024 q 767 982 672 1024 q 932 869 861 940 q 1044 704 1003 799 q 1085 504 1085 610 q 1044 303 1085 397 q 932 140 1003 210 q 767 29 861 69 q 567 -11 672 -11 q 366 29 460 -11 q 202 140 272 69 q 91 303 132 210 q 50 504 50 397 m 221 504 q 248 366 221 431 q 323 253 275 301 q 434 178 371 206 q 571 150 497 150 q 705 178 642 150 q 815 253 768 206 q 888 366 861 301 q 915 504 915 431 q 888 642 915 578 q 813 756 860 707 q 702 832 765 804 q 567 860 639 860 q 431 832 494 860 q 322 756 368 804 q 248 642 275 707 q 221 504 221 578 m 486 1069 q 549 1163 518 1115 q 613 1257 581 1210 l 756 1257 q 671 1163 714 1210 q 585 1069 628 1115 l 486 1069 z "},"Ú":{"ha":1000,"x_min":107,"x_max":893,"o":"m 499 -11 q 345 16 417 -11 q 221 92 274 43 q 138 209 168 140 q 107 361 107 278 l 107 1013 l 276 1013 l 276 365 q 294 282 276 321 q 341 214 311 243 q 411 167 371 185 q 499 150 451 150 q 587 167 546 150 q 658 214 628 185 q 706 282 689 243 q 724 365 724 321 l 724 1013 l 893 1013 l 893 361 q 863 209 893 278 q 778 92 832 140 q 653 16 725 43 q 499 -11 581 -11 m 425 1069 q 488 1163 457 1115 q 551 1257 519 1210 l 694 1257 q 610 1163 653 1210 q 524 1069 567 1115 l 425 1069 z "},"Ä":{"ha":907,"x_min":0,"x_max":907,"o":"m 907 0 q 881 62 901 13 q 828 184 860 111 q 759 347 797 257 q 681 529 721 436 q 602 712 640 622 q 533 874 564 801 q 480 997 501 947 q 453 1058 458 1046 q 426 997 447 1046 q 374 874 406 947 q 305 712 343 801 q 226 529 267 622 q 148 347 186 436 q 78 184 110 257 q 26 62 47 111 q 0 0 6 13 l 168 0 l 279 267 l 628 267 q 665 176 647 219 q 699 96 683 132 q 724 35 714 60 q 739 0 735 10 l 907 0 m 439 651 q 444 670 439 653 q 453 701 450 688 q 461 670 456 688 q 468 651 467 653 l 568 410 l 338 410 l 439 651 m 501 1163 q 528 1224 501 1199 q 588 1249 556 1249 q 644 1224 617 1249 q 671 1163 671 1199 q 644 1100 671 1124 q 588 1076 617 1076 q 528 1100 556 1076 q 501 1163 501 1124 m 233 1163 q 260 1224 233 1199 q 319 1249 288 1249 q 376 1224 349 1249 q 403 1163 403 1199 q 376 1100 403 1124 q 319 1076 349 1076 q 260 1100 288 1076 q 233 1163 233 1124 z "},"Ë":{"ha":860,"x_min":117,"x_max":808,"o":"m 117 0 l 117 1013 l 789 1013 l 789 858 l 286 858 l 286 586 l 733 586 l 733 428 l 286 428 l 286 158 l 808 158 l 808 0 l 117 0 m 521 1163 q 548 1224 521 1199 q 607 1249 575 1249 q 663 1224 636 1249 q 690 1163 690 1199 q 663 1100 690 1124 q 607 1076 636 1076 q 548 1100 575 1076 q 521 1163 521 1124 m 253 1163 q 280 1224 253 1199 q 339 1249 307 1249 q 395 1224 368 1249 q 422 1163 422 1199 q 395 1100 422 1124 q 339 1076 368 1076 q 280 1100 307 1076 q 253 1163 253 1124 z "},"Ï":{"ha":404,"x_min":-12,"x_max":425,"o":"m 117 1013 l 288 1013 l 288 0 l 117 0 l 117 1013 m 256 1163 q 283 1224 256 1199 q 342 1249 310 1249 q 398 1224 371 1249 q 425 1163 425 1199 q 398 1100 425 1124 q 342 1076 371 1076 q 283 1100 310 1076 q 256 1163 256 1124 m -12 1163 q 15 1224 -12 1199 q 74 1249 42 1249 q 130 1224 103 1249 q 157 1163 157 1199 q 130 1100 157 1124 q 74 1076 103 1076 q 15 1100 42 1076 q -12 1163 -12 1124 z "},"Ö":{"ha":1135,"x_min":50,"x_max":1085,"o":"m 50 504 q 91 704 50 610 q 202 869 132 799 q 366 982 272 940 q 567 1024 460 1024 q 767 982 672 1024 q 932 869 861 940 q 1044 704 1003 799 q 1085 504 1085 610 q 1044 303 1085 397 q 932 140 1003 210 q 767 29 861 69 q 567 -11 672 -11 q 366 29 460 -11 q 202 140 272 69 q 91 303 132 210 q 50 504 50 397 m 221 504 q 248 366 221 431 q 323 253 275 301 q 434 178 371 206 q 571 150 497 150 q 705 178 642 150 q 815 253 768 206 q 888 366 861 301 q 915 504 915 431 q 888 642 915 578 q 813 756 860 707 q 702 832 765 804 q 567 860 639 860 q 431 832 494 860 q 322 756 368 804 q 248 642 275 707 q 221 504 221 578 m 624 1163 q 651 1224 624 1199 q 710 1249 678 1249 q 766 1224 739 1249 q 793 1163 793 1199 q 766 1100 793 1124 q 710 1076 739 1076 q 651 1100 678 1076 q 624 1163 624 1124 m 356 1163 q 383 1224 356 1199 q 442 1249 410 1249 q 498 1224 471 1249 q 525 1163 525 1199 q 498 1100 525 1124 q 442 1076 471 1076 q 383 1100 410 1076 q 356 1163 356 1124 z "},"Ü":{"ha":1000,"x_min":107,"x_max":893,"o":"m 499 -11 q 345 16 417 -11 q 221 92 274 43 q 138 209 168 140 q 107 361 107 278 l 107 1013 l 276 1013 l 276 365 q 294 282 276 321 q 341 214 311 243 q 411 167 371 185 q 499 150 451 150 q 587 167 546 150 q 658 214 628 185 q 706 282 689 243 q 724 365 724 321 l 724 1013 l 893 1013 l 893 361 q 863 209 893 278 q 778 92 832 140 q 653 16 725 43 q 499 -11 581 -11 m 563 1163 q 590 1224 563 1199 q 649 1249 617 1249 q 705 1224 678 1249 q 732 1163 732 1199 q 705 1100 732 1124 q 649 1076 678 1076 q 590 1100 617 1076 q 563 1163 563 1124 m 294 1163 q 322 1224 294 1199 q 381 1249 349 1249 q 437 1224 410 1249 q 464 1163 464 1199 q 437 1100 464 1124 q 381 1076 410 1076 q 322 1100 349 1076 q 294 1163 294 1124 z "},"À":{"ha":907,"x_min":0,"x_max":907,"o":"m 907 0 q 881 62 901 13 q 828 184 860 111 q 759 347 797 257 q 681 529 721 436 q 602 712 640 622 q 533 874 564 801 q 480 997 501 947 q 453 1058 458 1046 q 426 997 447 1046 q 374 874 406 947 q 305 712 343 801 q 226 529 267 622 q 148 347 186 436 q 78 184 110 257 q 26 62 47 111 q 0 0 6 13 l 168 0 l 279 267 l 628 267 q 665 176 647 219 q 699 96 683 132 q 724 35 714 60 q 739 0 735 10 l 907 0 m 439 651 q 444 670 439 653 q 453 701 450 688 q 461 670 456 688 q 468 651 467 653 l 568 410 l 338 410 l 439 651 m 404 1257 q 468 1163 436 1210 q 532 1069 500 1115 l 432 1069 q 346 1163 389 1115 q 261 1257 303 1210 l 404 1257 z "},"È":{"ha":860,"x_min":117,"x_max":808,"o":"m 117 0 l 117 1013 l 789 1013 l 789 858 l 286 858 l 286 586 l 733 586 l 733 428 l 286 428 l 286 158 l 808 158 l 808 0 l 117 0 m 436 1257 q 500 1163 468 1210 q 564 1069 532 1115 l 464 1069 q 378 1163 421 1115 q 293 1257 335 1210 l 436 1257 z "},"Ì":{"ha":404,"x_min":8,"x_max":288,"o":"m 117 1013 l 288 1013 l 288 0 l 117 0 l 117 1013 m 151 1257 q 215 1163 183 1210 q 279 1069 247 1115 l 179 1069 q 93 1163 136 1115 q 8 1257 50 1210 l 151 1257 z "},"Ò":{"ha":1135,"x_min":50,"x_max":1085,"o":"m 50 504 q 91 704 50 610 q 202 869 132 799 q 366 982 272 940 q 567 1024 460 1024 q 767 982 672 1024 q 932 869 861 940 q 1044 704 1003 799 q 1085 504 1085 610 q 1044 303 1085 397 q 932 140 1003 210 q 767 29 861 69 q 567 -11 672 -11 q 366 29 460 -11 q 202 140 272 69 q 91 303 132 210 q 50 504 50 397 m 221 504 q 248 366 221 431 q 323 253 275 301 q 434 178 371 206 q 571 150 497 150 q 705 178 642 150 q 815 253 768 206 q 888 366 861 301 q 915 504 915 431 q 888 642 915 578 q 813 756 860 707 q 702 832 765 804 q 567 860 639 860 q 431 832 494 860 q 322 756 368 804 q 248 642 275 707 q 221 504 221 578 m 550 1257 q 614 1163 582 1210 q 678 1069 646 1115 l 578 1069 q 492 1163 535 1115 q 407 1257 449 1210 l 550 1257 z "},"Ù":{"ha":1000,"x_min":107,"x_max":893,"o":"m 499 -11 q 345 16 417 -11 q 221 92 274 43 q 138 209 168 140 q 107 361 107 278 l 107 1013 l 276 1013 l 276 365 q 294 282 276 321 q 341 214 311 243 q 411 167 371 185 q 499 150 451 150 q 587 167 546 150 q 658 214 628 185 q 706 282 689 243 q 724 365 724 321 l 724 1013 l 893 1013 l 893 361 q 863 209 893 278 q 778 92 832 140 q 653 16 725 43 q 499 -11 581 -11 m 472 1257 q 536 1163 504 1210 q 600 1069 568 1115 l 500 1069 q 414 1163 457 1115 q 329 1257 371 1210 l 472 1257 z "},"Ý":{"ha":929,"x_min":4,"x_max":924,"o":"m 550 328 l 550 0 l 379 0 l 379 328 q 344 390 372 338 q 276 515 317 442 q 192 670 236 588 q 107 826 147 753 q 39 951 67 899 q 4 1013 11 1003 l 197 1013 q 219 973 203 1003 q 257 901 235 943 q 306 808 279 858 q 358 706 332 757 q 408 609 385 656 q 450 528 432 563 l 465 481 q 475 505 471 492 q 483 528 479 518 q 525 609 501 563 q 574 706 549 656 q 626 808 600 757 q 673 901 651 858 q 710 973 694 943 q 731 1013 725 1003 l 924 1013 l 550 328 m 393 1069 q 456 1163 425 1115 q 519 1257 488 1210 l 663 1257 q 578 1163 621 1210 q 492 1069 535 1115 l 393 1069 z "},"¡":{"ha":379,"x_min":104,"x_max":274,"o":"m 118 529 l 261 529 l 261 -296 l 118 -296 l 118 529 m 190 776 q 247 751 221 776 q 274 689 274 726 q 247 628 274 651 q 190 604 221 604 q 131 628 157 604 q 104 689 104 651 q 131 751 104 726 q 190 776 157 776 z "},"Ø":{"ha":1135,"x_min":50,"x_max":1085,"o":"m 50 504 q 91 704 50 610 q 202 869 132 799 q 366 982 272 940 q 567 1024 460 1024 q 724 998 649 1024 q 861 928 799 972 l 940 1019 l 1019 947 l 942 857 q 1047 696 1008 786 q 1085 504 1085 606 q 1044 303 1085 397 q 932 140 1003 210 q 767 29 861 69 q 567 -11 672 -11 q 411 13 485 -11 q 275 79 338 36 l 185 -25 l 103 47 l 192 150 q 88 310 125 219 q 50 504 50 400 m 221 504 q 242 381 221 439 q 301 276 263 322 l 754 803 q 666 845 714 831 q 567 860 618 860 q 431 832 494 860 q 322 756 368 804 q 248 642 275 707 q 221 504 221 578 m 382 204 q 470 164 422 178 q 571 150 518 150 q 705 178 642 150 q 815 253 768 206 q 888 366 861 301 q 915 504 915 431 q 894 627 915 569 q 833 731 872 685 l 382 204 z "},"¿":{"ha":660,"x_min":50,"x_max":614,"o":"m 490 -15 q 552 -38 521 -26 q 614 -61 583 -50 q 589 -128 606 -89 q 540 -201 572 -167 q 457 -260 508 -236 q 326 -285 406 -285 q 217 -263 268 -285 q 130 -204 167 -242 q 72 -117 93 -167 q 50 -10 50 -67 q 87 129 50 69 q 188 238 124 189 q 228 265 206 250 q 270 300 250 281 q 304 346 290 319 q 318 407 318 372 l 318 518 l 463 518 l 463 381 q 449 306 463 335 q 412 255 435 276 q 359 215 389 233 q 299 172 329 196 q 196 -10 196 94 q 231 -107 196 -68 q 326 -146 267 -146 q 392 -137 365 -146 q 437 -113 418 -129 q 467 -73 456 -97 q 490 -15 479 -49 m 392 757 q 451 734 424 757 q 478 672 478 711 q 451 611 478 636 q 392 586 424 586 q 335 611 361 586 q 308 672 308 636 q 335 734 308 711 q 392 757 361 757 z "},"Ã":{"ha":907,"x_min":0,"x_max":907,"o":"m 907 0 q 881 62 901 13 q 828 184 860 111 q 759 347 797 257 q 681 529 721 436 q 602 712 640 622 q 533 874 564 801 q 480 997 501 947 q 453 1058 458 1046 q 426 997 447 1046 q 374 874 406 947 q 305 712 343 801 q 226 529 267 622 q 148 347 186 436 q 78 184 110 257 q 26 62 47 111 q 0 0 6 13 l 168 0 l 279 267 l 628 267 q 665 176 647 219 q 699 96 683 132 q 724 35 714 60 q 739 0 735 10 l 907 0 m 442 1111 q 404 1138 419 1131 q 369 1146 389 1146 q 349 1144 360 1146 q 327 1135 338 1142 q 308 1116 317 1128 q 299 1085 300 1104 l 224 1088 q 238 1141 225 1117 q 269 1183 250 1165 q 310 1210 288 1200 q 356 1219 333 1219 q 417 1208 390 1219 q 467 1175 443 1197 q 504 1147 489 1154 q 539 1140 519 1140 q 560 1142 549 1140 q 581 1151 571 1144 q 599 1170 592 1158 q 610 1201 607 1182 l 685 1199 q 671 1145 683 1169 q 640 1103 658 1121 q 598 1076 621 1086 q 553 1067 575 1067 q 492 1078 519 1067 q 442 1111 465 1090 m 439 651 q 444 670 439 653 q 453 701 450 688 q 461 670 456 688 q 468 651 467 653 l 568 410 l 338 410 l 439 651 z "},"Õ":{"ha":1135,"x_min":50,"x_max":1085,"o":"m 50 504 q 91 704 50 610 q 202 869 132 799 q 366 982 272 940 q 567 1024 460 1024 q 767 982 672 1024 q 932 869 861 940 q 1044 704 1003 799 q 1085 504 1085 610 q 1044 303 1085 397 q 932 140 1003 210 q 767 29 861 69 q 567 -11 672 -11 q 366 29 460 -11 q 202 140 272 69 q 91 303 132 210 q 50 504 50 397 m 221 504 q 248 366 221 431 q 323 253 275 301 q 434 178 371 206 q 571 150 497 150 q 705 178 642 150 q 815 253 768 206 q 888 366 861 301 q 915 504 915 431 q 888 642 915 578 q 813 756 860 707 q 702 832 765 804 q 567 860 639 860 q 431 832 494 860 q 322 756 368 804 q 248 642 275 707 q 221 504 221 578 m 556 1143 q 518 1170 533 1163 q 483 1178 503 1178 q 463 1176 474 1178 q 441 1167 451 1174 q 422 1148 431 1160 q 413 1117 414 1136 l 338 1119 q 351 1173 339 1149 q 383 1215 364 1197 q 424 1242 401 1232 q 469 1251 447 1251 q 531 1240 504 1251 q 581 1207 557 1229 q 618 1179 603 1186 q 653 1172 633 1172 q 674 1174 663 1172 q 695 1183 685 1176 q 713 1202 706 1190 q 724 1233 721 1214 l 799 1231 q 785 1177 797 1201 q 753 1135 772 1153 q 712 1108 735 1118 q 667 1099 689 1099 q 606 1110 633 1099 q 556 1143 579 1122 z "},"â":{"ha":758,"x_min":43,"x_max":676,"o":"m 43 289 q 68 410 43 353 q 135 511 93 468 q 234 580 178 554 q 353 606 290 606 q 428 595 394 606 q 485 571 461 585 q 524 542 510 557 q 542 519 538 528 l 547 590 l 676 590 l 676 0 l 542 0 l 542 39 q 542 52 542 46 q 543 61 543 58 q 524 41 538 54 q 486 15 510 28 q 430 -6 463 3 q 354 -15 397 -15 q 229 10 286 -15 q 131 76 172 35 q 66 173 89 118 q 43 289 43 228 m 178 297 q 191 225 178 258 q 228 167 204 192 q 286 129 253 143 q 360 115 319 115 q 433 129 400 115 q 491 168 467 143 q 528 226 515 193 q 542 297 542 260 q 528 367 542 335 q 491 424 515 400 q 433 461 467 447 q 360 475 400 475 q 286 462 319 475 q 228 424 253 449 q 191 367 204 400 q 178 297 178 335 m 357 929 q 442 803 400 867 q 528 675 485 739 l 428 675 l 357 768 l 288 675 l 189 675 l 357 929 z "},"ê":{"ha":657,"x_min":44,"x_max":638,"o":"m 589 68 q 485 7 546 29 q 360 -15 424 -15 q 237 9 294 -15 q 137 76 179 33 q 69 174 94 118 q 44 294 44 231 q 69 415 44 358 q 137 513 94 471 q 235 580 179 556 q 354 604 292 604 q 530 544 454 604 q 638 385 606 483 q 541 348 596 369 q 426 303 486 326 q 307 255 367 279 q 197 211 247 231 q 263 142 221 168 q 357 115 304 115 q 430 128 393 115 q 490 164 467 142 l 589 68 m 315 931 q 401 804 358 868 q 486 676 443 740 l 386 676 l 315 769 l 246 676 l 147 676 l 315 931 m 472 415 q 422 460 456 446 q 357 475 389 475 q 286 460 319 475 q 229 422 253 446 q 192 366 206 397 q 178 301 178 335 l 178 296 q 252 326 213 310 q 331 358 292 342 q 407 390 371 375 q 472 415 443 404 z "},"î":{"ha":297,"x_min":-18,"x_max":321,"o":"m 215 0 l 82 0 l 82 590 l 215 590 l 215 0 m 150 931 q 235 804 193 868 q 321 676 278 740 l 221 676 l 150 769 l 81 676 l -18 676 l 150 931 z "},"ô":{"ha":714,"x_min":44,"x_max":669,"o":"m 44 296 q 69 416 44 360 q 136 514 93 472 q 237 580 179 556 q 360 604 294 604 q 483 580 426 604 q 581 514 540 556 q 646 416 622 472 q 669 296 669 360 q 647 175 669 232 q 582 76 624 118 q 483 9 540 33 q 358 -15 426 -15 q 236 7 293 -15 q 137 70 179 29 q 69 169 94 111 q 44 296 44 226 m 176 294 q 190 224 176 257 q 228 167 204 192 q 285 129 253 143 q 356 115 318 115 q 426 129 393 115 q 483 167 458 143 q 522 224 507 192 q 536 294 536 257 q 522 365 536 332 q 483 422 507 397 q 426 460 458 446 q 356 475 393 475 q 285 460 318 475 q 228 422 253 446 q 190 365 204 397 q 176 294 176 332 m 358 931 q 444 804 401 868 q 529 676 486 740 l 429 676 l 358 769 l 289 676 l 190 676 l 358 931 z "},"û":{"ha":726,"x_min":78,"x_max":643,"o":"m 643 -14 l 532 -14 l 515 150 q 427 33 483 79 q 279 -14 371 -14 q 134 34 188 -14 q 78 161 81 82 l 78 590 l 211 590 l 211 224 q 241 151 214 181 q 328 118 268 121 q 401 132 368 118 q 459 171 435 146 q 497 231 483 196 q 511 306 511 265 l 511 590 l 643 590 l 643 -14 m 326 931 q 412 804 369 868 q 497 676 454 740 l 397 676 l 326 769 l 257 676 l 158 676 l 326 931 z "},"ã":{"ha":758,"x_min":43,"x_max":676,"o":"m 43 289 q 68 410 43 353 q 135 511 93 468 q 234 580 178 554 q 353 606 290 606 q 428 595 394 606 q 485 571 461 585 q 524 542 510 557 q 542 519 538 528 l 547 590 l 676 590 l 676 0 l 542 0 l 542 39 q 542 52 542 46 q 543 61 543 58 q 524 41 538 54 q 486 15 510 28 q 430 -6 463 3 q 354 -15 397 -15 q 229 10 286 -15 q 131 76 172 35 q 66 173 89 118 q 43 289 43 228 m 178 297 q 191 225 178 258 q 228 167 204 192 q 286 129 253 143 q 360 115 319 115 q 433 129 400 115 q 491 168 467 143 q 528 226 515 193 q 542 297 542 260 q 528 367 542 335 q 491 424 515 400 q 433 461 467 447 q 360 475 400 475 q 286 462 319 475 q 228 424 253 449 q 191 367 204 400 q 178 297 178 335 m 344 674 q 307 701 322 693 q 272 708 292 708 q 251 706 263 708 q 230 697 240 704 q 211 678 219 690 q 201 647 203 667 l 126 650 q 140 703 128 679 q 172 745 153 728 q 213 772 190 763 q 258 782 236 782 q 319 771 293 782 q 369 738 346 760 q 407 710 392 717 q 442 703 422 703 q 463 705 451 703 q 484 714 474 707 q 502 733 494 721 q 513 764 510 744 l 588 761 q 574 708 586 732 q 542 666 561 683 q 501 639 524 649 q 456 629 478 629 q 395 641 422 629 q 344 674 368 653 z "},"`":{"ha":283,"x_min":-85,"x_max":186,"o":"m 58 864 q 122 769 90 817 q 186 676 154 722 l 86 676 q 0 769 43 722 q -85 864 -43 817 l 58 864 z "},"^":{"ha":494,"x_min":78,"x_max":417,"o":"m 246 931 q 331 804 289 868 q 417 676 374 740 l 317 676 l 246 769 l 176 676 l 78 676 l 246 931 z "},"õ":{"ha":714,"x_min":44,"x_max":669,"o":"m 44 296 q 69 416 44 360 q 136 514 93 472 q 237 580 179 556 q 360 604 294 604 q 483 580 426 604 q 581 514 540 556 q 646 416 622 472 q 669 296 669 360 q 647 175 669 232 q 582 76 624 118 q 483 9 540 33 q 358 -15 426 -15 q 236 7 293 -15 q 137 70 179 29 q 69 169 94 111 q 44 296 44 226 m 176 294 q 190 224 176 257 q 228 167 204 192 q 285 129 253 143 q 356 115 318 115 q 426 129 393 115 q 483 167 458 143 q 522 224 507 192 q 536 294 536 257 q 522 365 536 332 q 483 422 507 397 q 426 460 458 446 q 356 475 393 475 q 285 460 318 475 q 228 422 253 446 q 190 365 204 397 q 176 294 176 332 m 360 674 q 322 701 338 693 q 288 708 307 708 q 267 706 278 708 q 245 697 256 704 q 226 678 235 690 q 217 647 218 667 l 142 650 q 156 703 143 679 q 187 745 168 728 q 228 772 206 763 q 274 782 251 782 q 335 771 308 782 q 385 738 361 760 q 422 710 407 717 q 457 703 438 703 q 478 705 467 703 q 499 714 489 707 q 517 733 510 721 q 528 764 525 744 l 603 761 q 589 708 601 732 q 558 666 576 683 q 516 639 539 649 q 471 629 493 629 q 410 641 438 629 q 360 674 383 653 z "},"'":{"ha":315,"x_min":88,"x_max":231,"o":"m 88 665 l 88 1015 l 231 1015 l 225 665 l 88 665 z "},"_":{"ha":717,"x_min":76,"x_max":640,"o":"m 640 0 l 76 0 l 76 139 l 640 139 l 640 0 z "},"[":{"ha":444,"x_min":118,"x_max":400,"o":"m 118 -210 l 118 1053 l 400 1053 l 400 914 l 260 914 l 260 -72 l 400 -72 l 400 -210 l 118 -210 z "},"]":{"ha":444,"x_min":44,"x_max":326,"o":"m 326 1053 l 326 -210 l 44 -210 l 44 -72 l 185 -72 l 185 914 l 44 914 l 44 1053 l 326 1053 z "},"°":{"ha":422,"x_min":60,"x_max":363,"o":"m 213 726 q 258 744 240 726 q 276 789 276 763 q 258 834 276 815 q 213 853 240 853 q 168 834 186 853 q 150 789 150 815 q 168 744 150 763 q 213 726 186 726 m 60 790 q 72 849 60 821 q 104 897 83 876 q 153 928 125 917 q 213 940 181 940 q 270 928 243 940 q 318 897 297 917 q 351 849 339 876 q 363 790 363 821 q 351 731 363 758 q 318 684 339 704 q 270 652 297 664 q 213 640 243 640 q 153 652 181 640 q 104 684 125 664 q 72 731 83 704 q 60 790 60 758 z "},"ç":{"ha":590,"x_min":44,"x_max":561,"o":"m 476 154 q 517 103 497 128 q 557 54 536 79 q 469 4 518 22 q 367 -15 421 -14 q 373 -45 367 -35 q 388 -62 379 -56 q 408 -74 397 -69 q 426 -86 418 -79 q 467 -137 454 -108 q 479 -207 479 -167 q 469 -262 479 -235 q 440 -312 460 -290 q 392 -349 421 -335 q 322 -362 363 -362 q 230 -335 272 -362 q 168 -250 188 -308 q 206 -229 186 -239 q 244 -210 225 -219 q 268 -244 251 -231 q 310 -258 285 -258 q 358 -237 342 -258 q 374 -185 374 -217 q 359 -145 374 -158 q 327 -119 344 -132 q 295 -87 310 -106 q 281 -32 281 -68 l 281 -6 q 186 35 229 7 q 112 103 143 64 q 63 192 81 143 q 44 296 44 242 q 69 416 44 360 q 137 515 94 472 q 237 581 179 557 q 360 606 294 606 q 469 587 418 606 q 561 536 519 568 l 476 438 q 360 475 428 475 q 286 461 319 475 q 228 424 253 447 q 191 367 204 400 q 178 296 178 335 q 191 226 178 258 q 228 168 204 193 q 286 129 253 143 q 360 115 319 115 q 476 154 429 115 z "},"Ç":{"ha":889,"x_min":51,"x_max":879,"o":"m 879 75 q 837 50 864 64 q 772 24 810 36 q 688 1 735 11 q 589 -10 642 -8 l 589 -11 q 595 -43 589 -32 q 610 -62 601 -54 q 630 -74 619 -69 q 649 -86 640 -79 q 689 -137 676 -108 q 701 -207 701 -167 q 692 -262 701 -235 q 663 -312 682 -290 q 614 -349 643 -335 q 544 -362 585 -362 q 452 -335 494 -362 q 390 -250 410 -308 q 428 -229 408 -239 q 467 -210 447 -219 q 490 -244 474 -231 q 532 -258 507 -258 q 580 -237 564 -258 q 596 -185 596 -217 q 581 -145 596 -158 q 549 -119 567 -132 q 517 -87 532 -106 q 503 -32 503 -68 l 503 -8 q 313 46 396 1 q 171 158 229 90 q 82 314 113 226 q 51 499 51 401 q 93 709 51 613 q 206 876 135 806 q 373 985 278 946 q 576 1024 468 1024 q 660 1017 618 1024 q 740 1001 703 1011 q 806 979 778 992 q 847 953 835 967 q 828 921 835 933 q 813 895 821 908 q 797 865 806 882 q 771 819 788 849 q 731 839 754 831 q 681 852 707 847 q 629 860 656 857 q 582 863 603 863 q 438 833 504 863 q 324 756 372 804 q 249 644 276 708 q 222 513 222 581 q 248 383 222 446 q 320 271 274 319 q 431 192 367 222 q 572 163 494 163 q 658 172 617 163 q 732 192 700 181 q 784 214 764 203 q 806 229 804 225 l 879 75 z "},"–":{"ha":582,"x_min":79,"x_max":503,"o":"m 79 233 l 79 371 l 503 371 l 503 233 l 79 233 z "},"—":{"ha":867,"x_min":79,"x_max":788,"o":"m 79 233 l 79 371 l 788 371 l 788 233 l 79 233 z "},"¸":{"ha":638,"x_min":143,"x_max":454,"o":"m 256 0 l 342 0 l 342 -11 q 348 -43 342 -32 q 363 -62 354 -54 q 383 -74 372 -69 q 401 -86 393 -79 q 442 -137 429 -108 q 454 -207 454 -167 q 444 -262 454 -235 q 415 -312 435 -290 q 367 -349 396 -335 q 297 -362 338 -362 q 205 -335 247 -362 q 143 -250 163 -308 q 181 -229 161 -239 q 219 -210 200 -219 q 243 -244 226 -231 q 285 -258 260 -258 q 333 -237 317 -258 q 349 -185 349 -217 q 334 -144 349 -158 q 302 -117 319 -129 q 270 -91 285 -104 q 256 -54 256 -78 l 256 0 z "},"´":{"ha":407,"x_min":142,"x_max":411,"o":"m 142 676 q 205 769 174 722 q 268 864 236 817 l 411 864 q 326 769 369 817 q 240 676 283 722 l 142 676 z "},"¨":{"ha":522,"x_min":57,"x_max":494,"o":"m 325 742 q 352 803 325 778 q 411 828 379 828 q 467 803 440 828 q 494 742 494 778 q 467 679 494 703 q 411 656 440 656 q 352 679 379 656 q 325 742 325 703 m 57 742 q 84 803 57 778 q 143 828 111 828 q 199 803 172 828 q 226 742 226 778 q 199 679 226 703 q 143 656 172 656 q 84 679 111 656 q 57 742 57 703 z "},"Ð":{"ha":999,"x_min":25,"x_max":946,"o":"m 25 550 l 125 550 l 125 1013 l 388 1013 q 647 966 540 1013 q 819 846 753 919 q 916 678 886 772 q 946 492 946 585 q 905 287 946 378 q 794 132 864 196 q 633 34 725 68 q 438 0 540 0 l 125 0 l 125 436 l 25 436 l 25 550 m 411 161 q 557 183 490 161 q 672 249 624 206 q 748 356 721 293 q 775 503 775 419 q 742 663 775 597 q 660 770 710 729 q 549 830 610 811 q 432 849 488 849 l 296 849 l 296 550 l 446 550 l 446 436 l 296 436 l 296 161 l 411 161 z "},"þ":{"ha":760,"x_min":82,"x_max":714,"o":"m 714 293 q 692 170 714 226 q 628 72 669 114 q 531 8 588 31 q 406 -15 474 -15 q 285 10 338 -15 q 214 65 233 36 q 215 55 214 60 q 215 43 215 50 l 215 -283 l 82 -283 l 82 1085 l 215 1085 l 215 515 q 244 545 226 529 q 286 574 261 561 q 342 597 311 588 q 411 606 374 606 q 535 584 479 606 q 630 522 590 563 q 692 423 669 481 q 714 293 714 365 m 569 296 q 524 424 569 374 q 399 475 479 475 q 325 462 358 475 q 267 424 292 449 q 229 367 243 400 q 215 297 215 335 q 229 225 215 258 q 267 167 243 192 q 325 129 292 143 q 399 115 358 115 q 471 129 439 115 q 524 168 503 143 q 558 226 546 193 q 569 296 569 258 z "},"ð":{"ha":721,"x_min":46,"x_max":671,"o":"m 46 296 q 70 416 46 360 q 138 514 94 472 q 238 580 181 556 q 361 604 296 604 q 418 599 390 604 q 472 583 446 593 q 333 846 432 711 q 294 802 314 822 q 254 760 274 782 l 178 829 q 269 929 221 879 q 199 1003 235 968 q 125 1071 164 1039 l 206 1144 q 278 1084 243 1117 q 347 1015 313 1051 q 386 1056 367 1036 q 425 1100 406 1076 l 501 1031 q 458 983 479 1007 q 414 935 436 960 q 510 792 464 869 q 592 631 557 714 q 649 465 628 549 q 671 304 671 381 l 671 296 q 648 175 671 232 q 583 76 625 118 q 485 9 542 33 q 360 -15 428 -15 q 238 7 294 -15 q 138 70 181 29 q 71 169 96 111 q 46 296 46 226 m 178 294 q 192 224 178 257 q 230 167 206 192 q 287 129 254 143 q 357 115 319 115 q 427 129 394 115 q 484 167 460 143 q 523 224 508 192 q 538 294 538 257 q 523 365 538 332 q 484 422 508 397 q 427 460 460 446 q 357 475 394 475 q 287 460 319 475 q 230 422 254 446 q 192 365 206 397 q 178 294 178 332 z "},"Þ":{"ha":803,"x_min":117,"x_max":772,"o":"m 117 0 l 117 988 l 286 988 l 286 833 l 403 833 q 555 811 486 833 q 672 747 624 789 q 746 644 719 706 q 772 507 772 583 q 754 385 772 446 q 695 277 736 325 q 589 199 654 229 q 428 169 524 169 l 286 169 l 286 0 l 117 0 m 286 329 l 422 329 q 510 347 475 329 q 565 392 544 365 q 594 449 586 419 q 603 503 603 479 q 595 555 603 525 q 567 611 588 585 q 513 656 547 638 q 424 674 478 674 l 286 674 l 286 329 z "},"Â":{"ha":907,"x_min":0,"x_max":907,"o":"m 907 0 q 881 62 901 13 q 828 184 860 111 q 759 347 797 257 q 681 529 721 436 q 602 712 640 622 q 533 874 564 801 q 480 997 501 947 q 453 1058 458 1046 q 426 997 447 1046 q 374 874 406 947 q 305 712 343 801 q 226 529 267 622 q 148 347 186 436 q 78 184 110 257 q 26 62 47 111 q 0 0 6 13 l 168 0 l 279 267 l 628 267 q 665 176 647 219 q 699 96 683 132 q 724 35 714 60 q 739 0 735 10 l 907 0 m 465 1325 q 551 1199 508 1263 q 636 1071 593 1135 l 536 1071 l 465 1164 l 396 1071 l 297 1071 l 465 1325 m 439 651 q 444 670 439 653 q 453 701 450 688 q 461 670 456 688 q 468 651 467 653 l 568 410 l 338 410 l 439 651 z "},"Ê":{"ha":860,"x_min":117,"x_max":808,"o":"m 117 0 l 117 1013 l 789 1013 l 789 858 l 286 858 l 286 586 l 733 586 l 733 428 l 286 428 l 286 158 l 808 158 l 808 0 l 117 0 m 471 1325 q 556 1199 514 1263 q 642 1071 599 1135 l 542 1071 l 471 1164 l 401 1071 l 303 1071 l 471 1325 z "},"Î":{"ha":404,"x_min":35,"x_max":374,"o":"m 117 1013 l 288 1013 l 288 0 l 117 0 l 117 1013 m 203 1325 q 288 1199 246 1263 q 374 1071 331 1135 l 274 1071 l 203 1164 l 133 1071 l 35 1071 l 203 1325 z "},"Ô":{"ha":1135,"x_min":50,"x_max":1085,"o":"m 50 504 q 91 704 50 610 q 202 869 132 799 q 366 982 272 940 q 567 1024 460 1024 q 767 982 672 1024 q 932 869 861 940 q 1044 704 1003 799 q 1085 504 1085 610 q 1044 303 1085 397 q 932 140 1003 210 q 767 29 861 69 q 567 -11 672 -11 q 366 29 460 -11 q 202 140 272 69 q 91 303 132 210 q 50 504 50 397 m 221 504 q 248 366 221 431 q 323 253 275 301 q 434 178 371 206 q 571 150 497 150 q 705 178 642 150 q 815 253 768 206 q 888 366 861 301 q 915 504 915 431 q 888 642 915 578 q 813 756 860 707 q 702 832 765 804 q 567 860 639 860 q 431 832 494 860 q 322 756 368 804 q 248 642 275 707 q 221 504 221 578 m 576 1325 q 662 1199 619 1263 q 747 1071 704 1135 l 647 1071 l 576 1164 l 507 1071 l 408 1071 l 576 1325 z "},"Û":{"ha":1000,"x_min":107,"x_max":893,"o":"m 499 -11 q 345 16 417 -11 q 221 92 274 43 q 138 209 168 140 q 107 361 107 278 l 107 1013 l 276 1013 l 276 365 q 294 282 276 321 q 341 214 311 243 q 411 167 371 185 q 499 150 451 150 q 587 167 546 150 q 658 214 628 185 q 706 282 689 243 q 724 365 724 321 l 724 1013 l 893 1013 l 893 361 q 863 209 893 278 q 778 92 832 140 q 653 16 725 43 q 499 -11 581 -11 m 507 1360 q 592 1233 550 1297 q 678 1106 635 1169 l 578 1106 l 507 1199 l 438 1106 l 339 1106 l 507 1360 z "},"±":{"ha":682,"x_min":88,"x_max":594,"o":"m 268 297 l 268 482 l 88 482 l 88 619 l 268 619 l 268 806 l 414 806 l 414 619 l 594 619 l 594 482 l 414 482 l 414 297 l 268 297 m 594 106 l 88 106 l 88 244 l 594 244 l 594 106 z "},"$":{"ha":822,"x_min":47,"x_max":765,"o":"m 732 956 l 671 817 q 565 848 618 836 q 467 863 513 860 l 467 596 q 572 553 518 576 q 668 494 625 529 q 738 410 711 460 q 765 290 765 361 q 685 93 765 169 q 467 -4 606 17 l 467 -94 l 369 -94 l 369 -11 l 367 -11 q 257 -3 307 -11 q 167 19 207 6 q 98 47 128 32 q 47 74 68 61 l 121 222 q 246 173 179 190 q 364 156 313 156 l 369 156 l 369 467 q 272 507 319 485 q 185 560 224 529 q 122 633 146 590 q 99 733 99 675 q 115 826 99 781 q 166 910 132 872 q 251 976 200 949 q 369 1013 301 1003 l 369 1106 l 467 1106 l 467 1017 q 562 1005 517 1014 q 643 985 607 996 q 703 966 679 975 q 732 956 726 957 m 597 292 q 560 372 597 340 q 467 428 522 404 l 467 169 q 515 185 492 175 q 556 210 538 196 q 586 245 575 225 q 597 292 597 265 m 267 744 q 295 679 267 706 q 369 633 324 653 l 369 853 q 294 810 321 839 q 267 744 267 782 z "},"¢":{"ha":610,"x_min":46,"x_max":563,"o":"m 478 154 q 518 103 499 128 q 558 54 538 79 q 376 -15 481 -8 l 376 -94 l 279 -94 l 279 -4 q 186 38 229 10 q 112 106 143 67 q 63 194 81 146 q 46 296 46 242 q 63 397 46 349 q 112 485 81 446 q 186 552 143 524 q 279 594 229 581 l 279 683 l 376 683 l 376 606 q 476 585 429 603 q 563 536 522 567 l 478 438 q 376 474 435 469 l 376 115 q 478 154 435 119 m 179 296 q 206 198 179 242 q 279 132 233 154 l 279 457 q 206 394 233 436 q 179 296 179 351 z "},"•":{"ha":578,"x_min":88,"x_max":490,"o":"m 88 424 q 103 503 88 465 q 145 568 118 540 q 209 612 172 596 q 288 628 246 628 q 367 612 329 628 q 431 568 404 596 q 474 503 458 540 q 490 424 490 465 q 474 344 490 381 q 431 281 458 308 q 367 239 404 254 q 288 224 329 224 q 209 239 246 224 q 145 281 172 254 q 103 344 118 308 q 88 424 88 381 z "},"“":{"ha":400,"x_min":56,"x_max":346,"o":"m 199 833 q 128 797 167 814 q 72 891 89 838 q 67 1003 56 944 l 151 993 q 156 903 142 944 q 199 833 169 861 m 346 833 q 310 814 328 822 q 275 797 293 806 q 219 891 236 838 q 214 1003 203 944 l 299 993 q 303 903 289 944 q 346 833 317 861 z "},"”":{"ha":400,"x_min":54,"x_max":344,"o":"m 125 797 q 90 814 107 806 q 54 833 74 822 q 98 903 85 861 q 101 993 111 944 l 188 1003 q 182 891 199 944 q 125 797 165 838 m 272 797 q 237 814 254 806 q 201 833 219 822 q 245 903 232 861 q 249 993 258 944 l 333 1003 q 328 891 344 944 q 272 797 311 838 z "},"‘":{"ha":253,"x_min":56,"x_max":199,"o":"m 199 833 q 163 814 181 822 q 128 797 146 806 q 72 891 89 838 q 67 1003 56 944 l 151 993 q 156 903 142 944 q 199 833 169 861 z "},"„":{"ha":418,"x_min":44,"x_max":335,"o":"m 263 -78 q 226 -59 243 -68 q 192 -42 210 -50 q 235 30 222 -12 q 239 121 249 72 l 324 131 q 318 17 335 71 q 263 -78 301 -37 m 115 -78 q 80 -59 97 -68 q 44 -42 63 -50 q 88 30 75 -12 q 92 121 101 72 l 176 131 q 171 17 188 71 q 115 -78 154 -37 z "},"‚":{"ha":271,"x_min":44,"x_max":188,"o":"m 115 -78 q 80 -59 97 -68 q 44 -42 63 -50 q 88 30 75 -12 q 92 121 101 72 l 176 131 q 171 17 188 71 q 115 -78 154 -37 z "},"›":{"ha":392,"x_min":97,"x_max":338,"o":"m 97 226 q 114 248 101 232 q 140 282 126 264 q 165 316 153 300 q 182 338 178 332 q 165 359 178 343 q 140 392 153 375 q 114 426 126 410 q 97 446 101 442 l 97 608 q 119 584 101 604 q 163 535 138 564 q 217 474 189 507 q 272 411 246 440 q 315 362 297 382 q 338 338 333 342 l 97 65 l 97 226 z "},"«":{"ha":633,"x_min":54,"x_max":536,"o":"m 536 65 l 294 338 q 317 362 299 342 q 360 411 335 382 q 415 474 386 440 q 470 535 444 507 q 514 584 496 564 q 536 608 532 604 l 536 447 q 519 427 532 443 q 494 393 507 411 q 468 359 481 375 q 450 338 456 343 q 468 316 456 332 q 494 282 481 300 q 519 248 507 264 q 536 226 532 232 l 536 65 m 294 65 l 54 338 q 76 362 58 342 q 120 411 94 382 q 174 474 146 440 q 228 535 203 507 q 272 584 254 564 q 294 608 290 604 l 294 446 q 278 426 290 442 q 252 392 265 410 q 226 359 239 375 q 210 338 214 343 q 226 316 214 332 q 252 282 239 300 q 278 248 265 264 q 294 226 290 232 l 294 65 z "},"»":{"ha":633,"x_min":97,"x_max":579,"o":"m 97 226 q 114 248 101 232 q 140 282 126 264 q 165 316 153 300 q 183 338 178 332 q 165 359 178 343 q 140 393 153 375 q 114 427 126 411 q 97 447 101 443 l 97 608 q 119 584 101 604 q 163 535 138 564 q 218 474 189 507 q 273 411 247 440 q 317 362 299 382 q 339 338 335 342 l 97 65 l 97 226 m 339 226 q 356 248 343 232 q 381 282 368 264 q 407 316 394 300 q 424 338 419 332 q 407 359 419 343 q 381 392 394 375 q 356 426 368 410 q 339 446 343 442 l 339 608 q 361 584 343 604 q 405 535 379 564 q 459 474 431 507 q 513 411 488 440 q 557 362 539 382 q 579 338 575 342 l 339 65 l 339 226 z "},"¥":{"ha":992,"x_min":36,"x_max":956,"o":"m 582 328 l 582 233 l 719 233 l 719 139 l 582 139 l 582 0 l 411 0 l 411 139 l 257 139 l 257 233 l 411 233 l 411 328 l 389 365 l 257 365 l 257 460 l 338 460 q 249 623 299 532 q 155 797 200 714 q 76 941 110 881 q 36 1013 43 1001 l 229 1013 q 251 973 235 1003 q 289 901 267 943 q 338 808 311 858 q 390 706 364 757 q 440 609 417 656 q 482 528 464 563 l 497 481 q 507 505 503 492 q 515 528 511 518 q 557 609 533 563 q 606 706 581 656 q 658 808 632 757 q 705 901 683 858 q 742 973 726 943 q 763 1013 757 1003 l 956 1013 l 653 460 l 719 460 l 719 365 l 601 365 l 582 328 z "},"©":{"ha":847,"x_min":61,"x_max":786,"o":"m 424 201 q 547 225 490 201 q 647 291 604 249 q 715 391 690 333 q 739 517 739 449 q 715 643 739 585 q 647 744 690 701 q 547 810 604 786 q 424 833 490 833 q 300 810 357 833 q 200 744 243 786 q 133 643 157 701 q 108 517 108 585 q 133 391 108 449 q 200 291 157 333 q 300 225 243 249 q 424 201 357 201 m 424 156 q 283 183 349 156 q 167 259 217 211 q 90 373 118 307 q 61 517 61 439 q 90 661 61 594 q 167 776 118 728 q 283 852 217 825 q 424 879 349 879 q 565 852 499 879 q 680 776 631 825 q 758 661 729 728 q 786 517 786 594 q 758 373 786 439 q 680 259 729 307 q 565 183 631 211 q 424 156 499 156 m 574 325 q 520 300 558 314 q 429 286 482 286 q 333 305 375 286 q 261 355 290 324 q 216 428 232 386 q 200 517 200 471 q 219 613 200 568 q 269 688 238 657 q 344 738 301 719 q 436 756 388 756 q 510 745 474 756 q 560 722 547 735 q 551 708 554 714 q 544 697 547 703 q 536 683 540 690 q 525 663 532 675 q 484 678 510 674 q 439 682 458 682 q 374 669 404 682 q 323 634 344 656 q 289 583 301 613 q 276 524 276 554 q 288 465 276 493 q 321 414 300 436 q 371 378 342 392 q 435 365 400 365 q 473 369 454 365 q 506 378 492 374 q 531 388 521 383 q 540 396 540 393 l 574 325 z "},"®":{"ha":847,"x_min":61,"x_max":786,"o":"m 424 156 q 283 183 349 156 q 167 259 217 211 q 90 373 118 307 q 61 517 61 439 q 90 661 61 594 q 167 776 118 728 q 283 852 217 825 q 424 879 349 879 q 565 852 499 879 q 680 776 631 825 q 758 661 729 728 q 786 517 786 594 q 758 373 786 439 q 680 259 729 307 q 565 183 631 211 q 424 156 499 156 m 424 201 q 547 225 490 201 q 647 291 604 249 q 715 391 690 333 q 739 517 739 449 q 715 643 739 585 q 647 744 690 701 q 547 810 604 786 q 424 833 490 833 q 300 810 357 833 q 200 744 243 786 q 133 643 157 701 q 108 517 108 585 q 133 391 108 449 q 200 291 157 333 q 300 225 243 249 q 424 201 357 201 m 269 292 l 269 771 l 404 771 q 531 731 483 771 q 579 617 579 690 q 563 539 579 576 q 507 479 546 501 q 563 389 536 432 q 626 292 590 346 l 529 292 l 424 457 l 417 457 l 349 457 l 349 292 l 269 292 m 349 532 l 414 532 q 456 540 439 532 q 481 561 472 549 q 494 588 490 574 q 499 614 499 601 q 495 639 499 625 q 482 665 492 653 q 456 686 472 678 q 414 694 440 694 l 349 694 l 349 532 z "},"÷":{"ha":625,"x_min":58,"x_max":565,"o":"m 565 289 l 58 289 l 58 428 l 565 428 l 565 289 m 231 571 q 258 633 231 607 q 317 658 285 658 q 374 633 347 658 q 400 571 400 607 q 374 509 400 532 q 317 486 347 486 q 258 509 285 486 q 231 571 231 532 m 231 151 q 258 213 231 188 q 317 239 285 239 q 374 213 347 239 q 400 151 400 188 q 374 90 400 113 q 317 67 347 67 q 258 90 285 67 q 231 151 231 113 z "},"½":{"ha":1167,"x_min":60,"x_max":1118,"o":"m 257 -26 q 453 506 357 242 q 650 1039 550 771 l 793 1039 l 401 -26 l 257 -26 m 906 97 l 1118 97 l 1118 -1 l 664 -1 q 782 118 725 60 q 883 231 839 176 q 955 335 928 285 q 982 433 982 386 q 971 489 982 465 q 942 528 960 513 q 906 551 925 543 q 869 558 886 558 q 813 547 835 558 q 777 517 790 535 q 759 481 764 500 q 754 450 754 463 q 765 393 754 418 q 794 349 775 368 l 735 288 q 700 317 715 297 q 674 361 685 338 q 658 408 664 385 q 653 450 653 432 q 667 528 653 490 q 709 594 682 565 q 776 640 736 622 q 869 657 817 657 q 958 640 918 657 q 1026 593 997 622 q 1069 526 1054 564 q 1085 446 1085 488 q 1070 354 1085 399 q 1031 267 1056 310 q 974 182 1007 224 q 906 97 942 140 m 60 878 l 60 975 l 218 975 l 218 325 l 115 325 l 115 878 l 60 878 z "},"¼":{"ha":1117,"x_min":60,"x_max":1068,"o":"m 253 -26 q 449 506 353 242 q 646 1039 546 771 l 789 1039 l 397 -26 l 253 -26 m 558 174 q 763 432 654 299 q 967 690 871 565 l 967 276 l 1068 276 l 1068 174 l 967 174 l 967 0 l 860 0 l 860 174 l 558 174 m 60 878 l 60 975 l 218 975 l 218 325 l 115 325 l 115 878 l 60 878 m 860 403 q 838 375 851 392 q 811 340 825 358 q 784 305 797 322 q 764 276 771 288 l 860 276 l 860 403 z "},"ª":{"ha":600,"x_min":53,"x_max":510,"o":"m 53 633 q 71 721 53 679 q 119 794 89 763 q 190 843 149 825 q 276 861 231 861 q 331 853 307 861 q 372 836 354 846 q 399 816 389 826 q 413 800 410 806 l 417 851 l 510 851 l 510 425 l 413 425 l 413 453 q 413 463 413 458 q 414 469 414 467 q 399 455 410 464 q 372 437 389 446 q 331 421 356 428 q 276 414 307 414 q 187 432 228 414 q 116 480 146 450 q 69 549 86 510 q 53 633 53 589 m 150 639 q 186 546 150 583 q 281 508 222 508 q 376 547 340 508 q 413 639 413 585 q 376 731 413 693 q 281 768 340 768 q 186 731 222 768 q 150 639 150 694 z "},"£":{"ha":861,"x_min":53,"x_max":806,"o":"m 304 139 l 519 139 q 593 142 565 139 q 636 154 621 146 q 656 176 651 163 q 661 213 661 190 l 661 269 q 733 270 697 269 q 806 271 769 271 l 806 119 q 798 71 806 93 q 772 33 790 49 q 721 9 753 18 q 639 0 689 0 l 53 0 l 53 139 l 115 139 q 151 143 136 139 q 174 160 165 147 q 185 197 182 172 q 189 261 189 221 l 189 371 l 97 371 l 97 510 l 189 510 l 189 761 q 211 853 189 811 q 274 927 233 896 q 371 976 314 958 q 497 994 428 994 q 663 956 599 994 q 763 849 726 918 q 708 817 735 833 q 654 786 682 801 q 642 799 649 788 q 619 822 635 810 q 574 845 603 835 q 500 856 546 856 q 377 822 422 856 q 332 719 332 788 l 332 510 l 493 510 l 493 371 l 332 371 l 332 235 q 328 178 332 201 q 304 139 324 156 z "},"¹":{"ha":258,"x_min":67,"x_max":169,"o":"m 67 915 l 67 979 l 169 979 l 169 557 l 103 557 l 103 915 l 67 915 z "},"¾":{"ha":1378,"x_min":51,"x_max":1331,"o":"m 494 -26 q 691 506 594 242 q 888 1039 788 771 l 1031 1039 l 639 -26 l 494 -26 m 158 631 q 233 758 190 694 q 307 885 275 821 l 101 885 l 101 993 l 479 993 q 405 865 443 929 q 331 738 367 801 q 433 648 394 706 q 472 517 472 590 q 453 423 472 467 q 400 347 433 379 q 323 295 367 314 q 229 276 279 276 q 131 297 176 276 q 51 354 85 318 l 132 429 q 231 383 171 383 q 281 394 257 383 q 324 422 306 404 q 352 465 342 440 q 363 517 363 489 q 352 567 363 543 q 324 609 342 592 q 281 637 306 626 q 231 647 257 647 q 158 631 189 647 m 819 174 q 919 301 867 236 q 1024 432 971 367 q 1128 563 1076 497 q 1228 690 1181 628 l 1228 276 l 1331 276 l 1331 174 l 1228 174 l 1228 0 l 1121 0 l 1121 174 l 819 174 m 1121 403 q 1099 375 1113 392 q 1072 340 1086 358 q 1045 305 1058 322 q 1025 276 1032 288 l 1121 276 l 1121 403 z "},"²":{"ha":474,"x_min":75,"x_max":400,"o":"m 251 589 l 400 589 l 400 521 l 83 521 q 165 604 125 564 q 236 682 206 644 q 285 755 267 719 q 304 824 304 790 q 297 862 304 846 q 277 889 289 878 q 251 906 265 900 q 226 911 238 911 q 187 903 203 911 q 162 883 171 894 q 149 858 153 871 q 146 836 146 844 q 174 765 146 790 l 132 722 q 108 743 118 729 q 90 774 97 757 q 78 807 82 790 q 75 836 75 824 q 85 890 75 864 q 114 935 94 915 q 162 967 133 956 q 226 979 190 979 q 288 967 260 979 q 335 935 315 956 q 366 888 356 914 q 376 832 376 861 q 340 708 376 765 q 251 589 303 650 z "},"¶":{"ha":796,"x_min":46,"x_max":647,"o":"m 418 0 l 275 0 l 275 596 q 185 614 226 596 q 113 663 143 632 q 64 737 82 694 q 46 828 46 779 q 64 917 46 875 q 113 991 82 960 q 185 1040 143 1022 q 275 1058 226 1058 l 647 1058 l 647 0 l 506 0 l 506 919 l 418 919 l 418 0 z "},"¬":{"ha":672,"x_min":85,"x_max":592,"o":"m 449 208 l 449 251 l 85 251 l 85 353 l 592 353 l 592 208 l 449 208 z "},"³":{"ha":393,"x_min":57,"x_max":329,"o":"m 125 749 q 172 829 146 789 q 219 910 199 869 l 89 910 l 89 979 l 329 979 q 283 898 307 939 q 235 817 258 857 q 301 759 275 796 q 326 675 326 722 q 314 615 326 643 q 280 567 301 588 q 230 534 258 546 q 171 522 201 522 q 108 535 138 522 q 57 572 78 549 l 108 619 q 171 590 135 590 q 231 615 206 590 q 256 675 256 640 q 231 734 256 710 q 171 758 206 758 q 125 749 144 758 z "},"¦":{"ha":319,"x_min":88,"x_max":232,"o":"m 232 -329 l 88 -329 l 88 165 l 232 165 l 232 -329 m 232 494 l 88 494 l 88 988 l 232 988 l 232 494 z "},"&":{"ha":918,"x_min":47,"x_max":899,"o":"m 899 0 l 740 0 q 716 28 739 0 q 656 100 693 56 q 540 17 611 49 q 379 -15 468 -15 q 246 8 307 -15 q 141 71 185 31 q 72 167 97 111 q 47 289 47 222 q 65 394 47 344 q 113 482 82 443 q 186 549 143 521 q 279 592 229 578 q 249 640 263 617 q 225 683 235 664 q 187 767 201 729 q 172 849 172 806 q 192 934 172 896 q 244 999 211 972 q 322 1040 278 1025 q 417 1056 367 1054 q 539 1040 483 1058 q 626 1000 594 1021 q 615 983 626 1000 q 589 948 603 967 q 564 913 575 929 q 553 896 553 896 q 522 913 540 904 q 475 925 503 921 q 419 926 447 929 q 368 913 392 924 q 330 881 344 901 q 315 831 315 861 q 329 767 315 796 q 349 731 343 739 l 636 347 l 738 604 l 878 604 l 728 226 l 899 0 m 360 475 q 291 459 324 474 q 234 420 258 444 q 195 364 210 396 q 181 297 181 332 q 199 214 181 249 q 246 158 217 179 q 313 126 275 136 q 388 115 350 115 q 441 122 414 115 q 493 139 468 128 q 539 165 518 150 q 574 200 560 181 q 466 335 522 264 q 360 475 410 406 z "},"ß":{"ha":796,"x_min":42,"x_max":751,"o":"m 324 8 q 352 72 338 40 q 382 136 367 104 q 438 126 407 126 q 503 140 472 126 q 558 177 535 154 q 596 231 582 200 q 610 297 610 263 q 595 365 610 333 q 557 419 581 396 q 502 456 533 443 q 436 468 471 469 l 433 468 q 433 502 433 485 q 432 536 432 519 l 432 607 q 501 631 475 607 q 528 694 528 654 q 499 761 528 735 q 413 788 469 788 q 304 733 335 788 q 274 585 274 679 l 274 0 l 132 0 l 132 458 l 42 458 l 42 597 l 132 597 l 132 596 q 153 734 132 672 q 211 839 174 796 q 299 905 249 882 q 408 928 350 928 q 518 910 469 928 q 600 860 567 892 q 651 788 633 829 q 669 701 669 746 q 665 657 669 679 q 651 614 661 635 q 627 576 642 593 q 592 550 613 560 q 643 523 615 544 q 695 468 671 501 q 735 391 719 435 q 751 296 751 347 q 726 177 751 233 q 658 78 701 121 q 556 11 614 36 q 435 -14 499 -14 q 379 -8 408 -14 q 324 8 350 -3 z "},"¤":{"ha":622,"x_min":92,"x_max":531,"o":"m 96 501 q 128 613 96 564 l 92 650 l 160 718 l 197 681 q 250 705 222 696 q 310 714 278 714 q 424 681 371 714 l 461 718 l 529 649 l 494 614 q 528 501 528 561 q 492 386 528 438 l 531 349 l 463 281 l 422 319 q 310 288 374 288 q 199 318 249 288 l 160 279 l 92 347 l 129 385 q 96 501 96 438 m 193 500 q 228 417 193 451 q 311 382 263 382 q 358 391 336 382 q 395 416 379 400 q 421 453 411 432 q 431 500 431 475 q 421 547 431 525 q 395 585 411 568 q 358 610 379 601 q 311 619 336 619 q 228 585 263 619 q 193 500 193 550 z "},"§":{"ha":535,"x_min":56,"x_max":481,"o":"m 196 207 q 147 285 167 253 q 113 340 126 318 q 94 373 100 361 q 85 389 88 385 q 83 392 83 389 q 82 393 82 393 q 60 465 65 426 q 61 542 56 504 q 83 613 67 579 q 129 674 100 647 q 165 699 146 686 q 213 722 185 711 q 189 762 200 742 q 165 804 178 782 q 128 888 136 853 q 128 950 121 924 q 156 994 135 976 q 204 1026 176 1013 q 308 1088 260 1056 q 345 1026 328 1057 q 382 967 363 996 q 356 953 369 960 q 331 938 342 946 q 304 919 314 928 q 292 898 294 910 q 297 868 290 886 q 318 824 303 850 l 321 824 l 447 614 q 474 542 468 581 q 474 467 481 504 q 449 395 468 429 q 400 335 431 361 q 364 308 383 322 q 317 283 344 294 q 342 242 329 264 q 367 200 354 221 q 404 115 396 151 q 406 52 413 79 q 378 6 399 25 q 331 -26 358 -12 q 278 -55 303 -42 q 226 -85 254 -68 l 156 35 q 181 50 168 43 q 206 65 193 57 q 231 85 222 75 q 240 110 240 94 q 229 148 240 125 q 196 207 218 171 m 185 525 q 199 460 175 489 q 261 429 224 432 q 317 449 293 429 q 344 504 342 469 q 326 559 346 535 q 271 586 306 583 q 217 573 244 586 q 185 525 190 560 z "},"·":{"ha":322,"x_min":76,"x_max":246,"o":"m 76 400 q 103 461 76 436 q 163 486 131 486 q 219 461 192 486 q 246 400 246 436 q 219 337 246 360 q 163 314 192 314 q 103 337 131 314 q 76 400 76 360 z "},"º":{"ha":561,"x_min":56,"x_max":507,"o":"m 56 639 q 74 725 56 685 q 122 796 92 765 q 194 844 153 826 q 283 861 236 861 q 372 844 331 861 q 443 796 413 826 q 490 725 474 765 q 507 639 507 685 q 490 552 507 593 q 444 481 474 511 q 372 432 414 450 q 282 414 331 414 q 194 430 236 414 q 122 476 153 446 q 74 547 92 506 q 56 639 56 589 m 151 638 q 161 588 151 611 q 189 547 171 564 q 230 519 207 529 q 281 508 253 508 q 331 519 307 508 q 372 547 354 529 q 401 588 390 564 q 411 638 411 611 q 401 688 411 664 q 372 729 390 711 q 331 758 354 747 q 281 768 307 768 q 230 758 253 768 q 189 729 207 747 q 161 688 171 711 q 151 638 151 664 z "},"¯":{"ha":564,"x_min":121,"x_max":446,"o":"m 121 669 l 121 758 l 446 758 l 446 669 l 121 669 z "},"µ":{"ha":789,"x_min":107,"x_max":672,"o":"m 672 -14 l 561 -14 l 544 150 q 456 33 513 79 q 308 -14 400 -14 q 240 -6 271 -14 l 240 -279 l 108 -279 l 108 140 q 107 161 107 147 l 107 590 l 240 590 l 240 224 q 270 151 243 181 q 357 118 297 121 q 431 132 397 118 q 488 171 464 146 q 526 231 513 196 q 540 306 540 265 l 540 590 l 672 590 l 672 -14 z "},"×":{"ha":624,"x_min":64,"x_max":560,"o":"m 433 0 q 372 61 403 32 q 310 122 342 90 q 251 62 282 92 q 192 3 219 32 l 68 122 q 128 183 99 154 q 190 244 158 213 l 64 369 l 189 496 l 315 368 l 438 492 q 496 430 467 461 q 556 368 525 399 l 438 249 q 499 187 469 218 q 560 124 528 156 l 433 0 z "},"O":{"ha":1135,"x_min":50,"x_max":1085,"o":"m 50 504 q 91 704 50 610 q 202 869 132 799 q 366 982 272 940 q 567 1024 460 1024 q 767 982 672 1024 q 932 869 861 940 q 1044 704 1003 799 q 1085 504 1085 610 q 1044 303 1085 397 q 932 140 1003 210 q 767 29 861 69 q 567 -11 672 -11 q 366 29 460 -11 q 202 140 272 69 q 91 303 132 210 q 50 504 50 397 m 221 504 q 248 366 221 431 q 323 253 275 301 q 434 178 371 206 q 571 150 497 150 q 705 178 642 150 q 815 253 768 206 q 888 366 861 301 q 915 504 915 431 q 888 642 915 578 q 813 756 860 707 q 702 832 765 804 q 567 860 639 860 q 431 832 494 860 q 322 756 368 804 q 248 642 275 707 q 221 504 221 578 z "},"g":{"ha":760,"x_min":46,"x_max":678,"o":"m 46 292 q 69 416 46 358 q 134 516 93 474 q 230 582 175 558 q 347 606 285 606 q 431 593 394 606 q 491 565 467 581 q 528 536 515 550 q 544 519 542 522 q 547 553 544 535 q 550 590 550 571 l 678 590 l 678 31 q 654 -103 678 -44 q 588 -202 631 -162 q 487 -262 546 -242 q 357 -283 428 -283 q 262 -272 303 -283 q 188 -243 221 -261 q 128 -203 156 -225 q 76 -158 101 -181 l 163 -68 q 246 -130 201 -104 q 354 -156 290 -156 q 492 -114 440 -156 q 543 4 543 -72 q 543 20 543 11 q 544 39 543 29 q 547 61 544 51 q 550 78 550 71 q 520 47 538 64 q 478 17 503 31 q 422 -6 454 3 q 349 -15 390 -15 q 226 8 282 -15 q 131 74 171 32 q 68 171 90 115 q 46 292 46 226 m 179 297 q 192 225 179 258 q 230 167 206 192 q 288 129 254 143 q 361 115 321 115 q 435 129 401 115 q 494 168 469 143 q 531 226 518 193 q 544 297 544 260 q 531 367 544 335 q 494 424 518 400 q 435 461 469 447 q 361 475 401 475 q 288 462 321 475 q 230 424 254 449 q 192 367 206 400 q 179 297 179 335 z "},"d":{"ha":760,"x_min":46,"x_max":678,"o":"m 46 294 q 69 421 46 364 q 133 519 92 478 q 228 583 174 560 q 349 606 283 606 q 426 596 393 606 q 483 572 460 586 q 522 542 507 558 q 544 515 536 526 l 544 1085 l 678 1085 l 678 0 l 544 0 l 544 39 q 546 54 544 46 q 547 67 547 63 q 517 40 535 54 q 474 13 499 25 q 417 -8 449 0 q 346 -15 386 -15 q 219 9 275 -15 q 124 76 163 33 q 66 174 86 118 q 46 294 46 231 m 179 297 q 192 225 179 258 q 230 167 206 192 q 288 129 254 143 q 361 115 321 115 q 435 129 401 115 q 494 168 469 143 q 531 226 518 193 q 544 297 544 260 q 531 367 544 335 q 494 424 518 400 q 435 461 469 447 q 361 475 401 475 q 288 462 321 475 q 230 424 254 449 q 192 367 206 400 q 179 297 179 335 z "},"a":{"ha":760,"x_min":44,"x_max":678,"o":"m 44 289 q 69 410 44 353 q 137 511 94 468 q 235 580 179 554 q 354 606 292 606 q 429 595 396 606 q 487 571 463 585 q 525 542 511 557 q 543 519 539 528 l 549 590 l 678 590 l 678 0 l 543 0 l 543 39 q 544 52 543 46 q 544 61 544 58 q 525 41 539 54 q 488 15 511 28 q 431 -6 464 3 q 356 -15 399 -15 q 231 10 288 -15 q 132 76 174 35 q 67 173 90 118 q 44 289 44 228 m 179 297 q 192 225 179 258 q 230 167 206 192 q 288 129 254 143 q 361 115 321 115 q 435 129 401 115 q 492 168 468 143 q 530 226 517 193 q 543 297 543 260 q 530 367 543 335 q 492 424 517 400 q 435 461 468 447 q 361 475 401 475 q 288 462 321 475 q 230 424 254 449 q 192 367 206 400 q 179 297 179 335 z "},"n":{"ha":725,"x_min":82,"x_max":647,"o":"m 82 590 l 199 590 q 205 509 201 540 q 211 439 208 478 q 301 560 243 514 q 447 606 360 606 q 591 556 538 606 q 647 428 644 507 l 647 0 l 515 0 l 515 365 q 485 440 513 408 q 399 474 457 471 q 324 459 358 474 q 266 419 290 444 q 228 360 242 394 q 215 285 215 325 l 215 0 l 82 0 l 82 590 z "},"˛":{"ha":676,"x_min":143,"x_max":454,"o":"m 340 -54 q 326 -91 340 -78 q 294 -117 311 -104 q 262 -144 276 -129 q 247 -185 247 -158 q 263 -237 247 -217 q 311 -258 279 -258 q 353 -244 336 -258 q 378 -210 371 -231 l 454 -250 q 392 -335 435 -308 q 299 -362 349 -362 q 229 -349 258 -362 q 181 -312 200 -335 q 153 -262 163 -290 q 143 -207 143 -235 q 155 -137 143 -167 q 196 -86 167 -108 q 215 -74 204 -79 q 234 -62 225 -69 q 249 -43 243 -54 q 254 -11 254 -32 l 254 0 l 340 0 l 340 -54 z "},"ˇ":{"ha":618,"x_min":158,"x_max":497,"o":"m 158 931 l 257 931 l 326 839 q 340 857 331 844 q 362 884 350 869 q 383 912 374 899 q 397 931 393 925 l 497 931 q 412 804 454 868 q 326 676 369 740 l 158 931 z "},"˝":{"ha":733,"x_min":86,"x_max":664,"o":"m 86 676 q 149 769 118 722 q 213 864 181 817 l 356 864 q 271 769 314 817 q 185 676 228 722 l 86 676 m 393 676 q 456 769 425 722 q 519 864 488 817 l 664 864 l 492 676 l 393 676 z "},"˙":{"ha":350,"x_min":96,"x_max":261,"o":"m 96 819 q 122 879 96 856 q 179 903 149 903 q 235 879 210 903 q 261 819 261 856 q 235 759 261 782 q 179 736 210 736 q 122 759 149 736 q 96 819 96 782 z "},"˘":{"ha":1067,"x_min":139,"x_max":589,"o":"m 365 694 q 278 711 319 694 q 207 757 238 728 q 158 826 176 786 q 139 913 140 867 l 213 913 q 258 808 215 849 q 365 768 300 768 q 472 808 432 768 q 514 913 511 849 l 589 913 q 571 826 589 867 q 522 757 553 786 q 451 711 492 728 q 365 694 411 694 z "},"Ą":{"ha":904,"x_min":-1,"x_max":938,"o":"m 824 0 l 824 -54 q 809 -91 824 -78 q 777 -117 794 -104 q 745 -144 760 -129 q 731 -185 731 -158 q 747 -237 731 -217 q 794 -258 763 -258 q 837 -244 819 -258 q 861 -210 854 -231 l 938 -250 q 875 -335 918 -308 q 782 -362 832 -362 q 713 -349 742 -362 q 665 -312 683 -335 q 636 -262 646 -290 q 626 -207 626 -235 q 638 -137 626 -167 q 679 -86 650 -108 q 698 -74 688 -79 q 717 -62 708 -69 q 732 -43 726 -54 q 738 -11 738 -32 l 738 0 q 723 35 733 10 q 697 96 713 60 q 664 176 682 132 q 626 267 646 219 l 278 267 l 167 0 l -1 0 q 25 62 4 13 q 77 184 46 111 q 147 347 108 257 q 225 529 185 436 q 303 712 265 622 q 373 874 342 801 q 425 997 404 947 q 451 1058 446 1046 q 478 997 457 1046 q 531 874 500 947 q 601 712 563 801 q 679 529 639 622 q 758 347 719 436 q 827 184 796 257 q 879 62 858 111 q 906 0 900 13 l 824 0 m 336 410 l 567 410 l 467 651 q 460 670 465 653 q 451 701 454 688 q 443 670 449 688 q 438 651 438 653 l 336 410 z "},"Ł":{"ha":808,"x_min":22,"x_max":788,"o":"m 126 0 l 126 360 l 22 328 l 22 465 l 126 497 l 126 1013 l 296 1013 l 296 549 l 582 638 l 582 500 l 296 411 l 296 161 l 788 161 l 788 0 l 126 0 z "},"Ľ":{"ha":799,"x_min":117,"x_max":778,"o":"m 117 0 l 117 1013 l 286 1013 l 286 161 l 778 161 l 778 0 l 117 0 m 528 797 q 493 814 510 806 q 457 833 476 822 q 501 903 488 861 q 504 993 514 944 l 590 1003 q 585 891 601 944 q 528 797 568 838 z "},"Ś":{"ha":793,"x_min":29,"x_max":747,"o":"m 714 956 l 653 817 q 538 850 594 838 q 432 863 481 863 q 298 829 347 863 q 249 744 249 796 q 285 672 249 700 q 378 622 322 644 q 498 577 433 600 q 618 518 563 554 q 710 426 674 482 q 747 285 747 371 q 723 164 747 218 q 650 71 699 110 q 527 10 601 32 q 353 -11 453 -11 q 242 -3 292 -11 q 152 18 192 6 q 82 45 113 31 q 29 74 51 60 l 103 222 q 228 173 161 190 q 346 156 294 156 q 410 161 371 156 q 488 182 450 167 q 552 224 525 197 q 579 292 579 250 q 542 372 579 340 q 450 427 506 403 q 330 475 394 451 q 210 531 265 499 q 117 612 154 564 q 81 733 81 660 q 101 837 81 786 q 165 928 122 888 q 270 993 207 968 q 419 1018 333 1018 q 524 1009 474 1018 q 615 989 575 1000 q 682 967 656 978 q 714 956 708 957 m 306 1069 q 369 1163 338 1115 q 432 1257 400 1210 l 575 1257 q 490 1163 533 1210 q 404 1069 447 1115 l 306 1069 z "},"Š":{"ha":793,"x_min":29,"x_max":747,"o":"m 714 956 l 653 817 q 538 850 594 838 q 432 863 481 863 q 298 829 347 863 q 249 744 249 796 q 285 672 249 700 q 378 622 322 644 q 498 577 433 600 q 618 518 563 554 q 710 426 674 482 q 747 285 747 371 q 723 164 747 218 q 650 71 699 110 q 527 10 601 32 q 353 -11 453 -11 q 242 -3 292 -11 q 152 18 192 6 q 82 45 113 31 q 29 74 51 60 l 103 222 q 228 173 161 190 q 346 156 294 156 q 410 161 371 156 q 488 182 450 167 q 552 224 525 197 q 579 292 579 250 q 542 372 579 340 q 450 427 506 403 q 330 475 394 451 q 210 531 265 499 q 117 612 154 564 q 81 733 81 660 q 101 837 81 786 q 165 928 122 888 q 270 993 207 968 q 419 1018 333 1018 q 524 1009 474 1018 q 615 989 575 1000 q 682 967 656 978 q 714 956 708 957 m 233 1289 l 332 1289 l 401 1197 q 415 1215 406 1203 q 437 1242 425 1228 q 458 1270 449 1257 q 472 1289 468 1283 l 572 1289 q 487 1163 529 1226 q 401 1035 444 1099 l 233 1289 z "},"Ş":{"ha":793,"x_min":29,"x_max":747,"o":"m 714 956 l 653 817 q 538 850 594 838 q 432 863 481 863 q 298 829 347 863 q 249 744 249 796 q 285 672 249 700 q 378 622 322 644 q 498 577 433 600 q 618 518 563 554 q 710 426 674 482 q 747 285 747 371 q 726 172 747 224 q 664 83 706 121 q 560 21 622 44 q 413 -8 497 -3 l 413 -11 q 419 -43 413 -32 q 434 -62 425 -54 q 453 -74 443 -69 q 472 -86 464 -79 q 513 -137 500 -108 q 525 -207 525 -167 q 515 -262 525 -235 q 486 -312 506 -290 q 438 -349 467 -335 q 368 -362 408 -362 q 276 -335 318 -362 q 214 -250 233 -308 q 251 -229 232 -239 q 290 -210 271 -219 q 314 -244 297 -231 q 356 -258 331 -258 q 403 -237 388 -258 q 419 -185 419 -217 q 405 -144 419 -158 q 373 -117 390 -129 q 341 -91 356 -104 q 326 -54 326 -78 l 326 -10 q 226 0 271 -8 q 144 20 181 8 q 78 47 107 32 q 29 74 50 61 l 103 222 q 228 173 161 190 q 346 156 294 156 q 410 161 371 156 q 488 182 450 167 q 552 224 525 197 q 579 292 579 250 q 542 372 579 340 q 450 427 506 403 q 330 475 394 451 q 210 531 265 499 q 117 612 154 564 q 81 733 81 660 q 101 837 81 786 q 165 928 122 888 q 270 993 207 968 q 419 1018 333 1018 q 524 1009 474 1018 q 615 989 575 1000 q 682 967 656 978 q 714 956 708 957 z "},"Ť":{"ha":782,"x_min":58,"x_max":724,"o":"m 724 1013 l 724 850 l 474 850 l 474 0 l 303 0 l 303 850 l 58 850 l 58 1013 l 724 1013 m 221 1289 l 319 1289 l 389 1197 q 403 1215 393 1203 q 424 1242 413 1228 q 446 1270 436 1257 q 460 1289 456 1283 l 560 1289 q 474 1163 517 1226 q 389 1035 432 1099 l 221 1289 z "},"Ź":{"ha":889,"x_min":0,"x_max":856,"o":"m 261 1013 l 847 1013 l 297 164 l 856 164 l 856 0 l 0 0 q 35 54 8 13 q 101 156 63 96 q 188 291 140 217 q 283 442 235 365 q 378 592 331 518 q 464 725 425 665 q 530 826 503 785 q 565 879 557 868 l 189 879 q 144 885 167 879 q 105 904 122 892 q 76 934 88 917 q 65 972 65 951 l 65 1063 l 217 1063 l 217 1044 q 226 1015 217 1017 q 261 1013 236 1013 m 381 1069 q 444 1163 413 1115 q 507 1257 475 1210 l 650 1257 q 565 1163 608 1210 q 479 1069 522 1115 l 381 1069 z "},"Ž":{"ha":889,"x_min":0,"x_max":856,"o":"m 261 1013 l 847 1013 l 297 164 l 856 164 l 856 0 l 0 0 q 35 54 8 13 q 101 156 63 96 q 188 291 140 217 q 283 442 235 365 q 378 592 331 518 q 464 725 425 665 q 530 826 503 785 q 565 879 557 868 l 189 879 q 144 885 167 879 q 105 904 122 892 q 76 934 88 917 q 65 972 65 951 l 65 1063 l 217 1063 l 217 1044 q 226 1015 217 1017 q 261 1013 236 1013 m 278 1289 l 376 1289 l 446 1197 q 460 1215 450 1203 q 481 1242 469 1228 q 503 1270 493 1257 q 517 1289 513 1283 l 617 1289 q 531 1163 574 1226 q 446 1035 489 1099 l 278 1289 z "},"Ż":{"ha":889,"x_min":0,"x_max":856,"o":"m 261 1013 l 847 1013 l 297 164 l 856 164 l 856 0 l 0 0 q 35 54 8 13 q 101 156 63 96 q 188 291 140 217 q 283 442 235 365 q 378 592 331 518 q 464 725 425 665 q 530 826 503 785 q 565 879 557 868 l 189 879 q 144 885 167 879 q 105 904 122 892 q 76 934 88 917 q 65 972 65 951 l 65 1063 l 217 1063 l 217 1044 q 226 1015 217 1017 q 261 1013 236 1013 m 385 1156 q 411 1215 385 1192 q 468 1239 438 1239 q 524 1215 499 1239 q 550 1156 550 1192 q 524 1095 550 1118 q 468 1072 499 1072 q 411 1095 438 1072 q 385 1156 385 1118 z "},"ą":{"ha":760,"x_min":44,"x_max":743,"o":"m 678 0 l 543 0 l 543 39 q 544 52 543 46 q 544 61 544 58 q 525 41 539 54 q 488 15 511 28 q 431 -6 464 3 q 356 -15 399 -15 q 231 10 288 -15 q 132 76 174 35 q 67 173 90 118 q 44 289 44 228 q 69 410 44 353 q 137 511 94 468 q 235 580 179 554 q 354 606 292 606 q 429 595 396 606 q 487 571 463 585 q 525 542 511 557 q 543 519 539 528 l 549 590 l 678 590 l 678 0 m 179 297 q 192 225 179 258 q 230 167 206 192 q 288 129 254 143 q 361 115 321 115 q 435 129 401 115 q 492 168 468 143 q 530 226 517 193 q 543 297 543 260 q 530 367 543 335 q 492 424 517 400 q 435 461 468 447 q 361 475 401 475 q 288 462 321 475 q 230 424 254 449 q 192 367 206 400 q 179 297 179 335 m 629 0 l 543 0 l 543 -11 q 538 -43 543 -32 q 523 -62 532 -54 q 503 -74 514 -69 q 485 -86 493 -79 q 444 -137 456 -108 q 432 -207 432 -167 q 442 -262 432 -235 q 470 -312 451 -290 q 518 -349 489 -335 q 588 -362 547 -362 q 681 -335 638 -362 q 743 -250 724 -308 l 667 -210 q 642 -244 660 -231 q 600 -258 625 -258 q 552 -237 568 -258 q 536 -185 536 -217 q 551 -144 536 -158 q 583 -117 565 -129 q 615 -91 600 -104 q 629 -54 629 -78 l 629 0 z "},"ł":{"ha":344,"x_min":26,"x_max":318,"o":"m 225 0 l 93 0 l 93 349 l 26 328 l 26 465 l 93 486 l 93 1085 l 225 1085 l 225 526 l 318 556 l 318 418 l 225 389 l 225 0 z "},"ľ":{"ha":296,"x_min":82,"x_max":414,"o":"m 214 0 l 82 0 l 82 1085 l 214 1085 l 214 0 m 340 797 q 306 814 322 806 q 269 833 289 822 q 313 903 300 861 q 317 993 326 944 l 403 1003 q 397 891 414 944 q 340 797 381 838 z "},"ś":{"ha":486,"x_min":42,"x_max":442,"o":"m 418 538 q 398 509 410 525 q 375 479 386 493 q 356 455 364 465 q 349 444 349 444 q 342 449 349 444 q 322 460 335 454 q 291 470 308 465 q 256 475 274 475 q 215 466 236 475 q 193 429 193 457 q 212 390 193 406 q 258 360 231 374 q 317 333 285 347 q 377 299 350 319 q 423 247 404 278 q 442 169 442 215 q 427 96 442 129 q 385 39 413 63 q 321 1 358 15 q 236 -12 283 -12 q 126 7 179 -12 q 42 63 72 26 q 65 90 51 74 q 92 122 79 107 q 113 148 104 138 q 122 158 122 158 q 131 153 122 160 q 156 139 140 147 q 192 124 171 131 q 235 117 213 117 q 288 132 269 117 q 307 169 307 147 q 288 206 307 192 q 242 231 269 219 q 183 257 215 243 q 123 292 150 271 q 77 345 96 313 q 58 428 58 378 q 76 511 58 478 q 123 565 94 544 q 185 595 151 586 q 250 604 218 604 q 340 587 293 604 q 418 538 386 569 m 169 676 q 233 769 201 722 q 296 864 264 817 l 439 864 q 354 769 397 817 q 268 676 311 722 l 169 676 z "},"š":{"ha":486,"x_min":42,"x_max":442,"o":"m 418 538 q 398 509 410 525 q 375 479 386 493 q 356 455 364 465 q 349 444 349 444 q 342 449 349 444 q 322 460 335 454 q 291 470 308 465 q 256 475 274 475 q 215 466 236 475 q 193 429 193 457 q 212 390 193 406 q 258 360 231 374 q 317 333 285 347 q 377 299 350 319 q 423 247 404 278 q 442 169 442 215 q 427 96 442 129 q 385 39 413 63 q 321 1 358 15 q 236 -12 283 -12 q 126 7 179 -12 q 42 63 72 26 q 65 90 51 74 q 92 122 79 107 q 113 148 104 138 q 122 158 122 158 q 131 153 122 160 q 156 139 140 147 q 192 124 171 131 q 235 117 213 117 q 288 132 269 117 q 307 169 307 147 q 288 206 307 192 q 242 231 269 219 q 183 257 215 243 q 123 292 150 271 q 77 345 96 313 q 58 428 58 378 q 76 511 58 478 q 123 565 94 544 q 185 595 151 586 q 250 604 218 604 q 340 587 293 604 q 418 538 386 569 m 65 931 l 164 931 l 233 839 q 247 857 238 844 q 269 884 257 869 q 290 912 281 899 q 304 931 300 925 l 404 931 q 319 804 361 868 q 233 676 276 740 l 65 931 z "},"ş":{"ha":486,"x_min":42,"x_max":442,"o":"m 418 538 q 398 509 410 525 q 375 479 386 493 q 356 455 364 465 q 349 444 349 444 q 342 449 349 444 q 322 460 335 454 q 291 470 308 465 q 256 475 274 475 q 215 466 236 475 q 193 429 193 457 q 212 390 193 406 q 258 360 231 374 q 317 333 285 347 q 377 299 350 319 q 423 247 404 278 q 442 169 442 215 q 401 53 442 101 q 289 -7 360 6 l 289 -11 q 295 -43 289 -32 q 310 -62 301 -54 q 330 -74 319 -69 q 349 -86 340 -79 q 389 -137 376 -108 q 401 -207 401 -167 q 392 -262 401 -235 q 363 -312 382 -290 q 314 -349 343 -335 q 244 -362 285 -362 q 152 -335 194 -362 q 90 -250 110 -308 q 128 -229 108 -239 q 167 -210 147 -219 q 190 -244 174 -231 q 232 -258 207 -258 q 280 -237 264 -258 q 296 -185 296 -217 q 281 -144 296 -158 q 249 -117 267 -129 q 217 -91 232 -104 q 203 -54 203 -78 l 203 -10 q 110 14 154 -4 q 42 63 67 32 q 65 90 51 74 q 92 122 79 107 q 113 148 104 138 q 122 158 122 158 q 131 153 122 160 q 156 139 140 147 q 192 124 171 131 q 235 117 213 117 q 288 132 269 117 q 307 169 307 147 q 288 206 307 192 q 242 231 269 219 q 183 257 215 243 q 123 292 150 271 q 77 345 96 313 q 58 428 58 378 q 76 511 58 478 q 123 565 94 544 q 185 595 151 586 q 250 604 218 604 q 340 587 293 604 q 418 538 386 569 z "},"ť":{"ha":439,"x_min":36,"x_max":501,"o":"m 136 849 l 268 849 l 268 590 l 422 590 l 422 471 l 268 471 l 268 0 l 136 0 l 136 471 l 36 471 l 36 590 l 136 590 l 136 849 m 428 797 q 393 814 410 806 q 357 833 376 822 q 401 903 388 861 q 404 993 414 944 l 490 1003 q 485 891 501 944 q 428 797 468 838 z "},"ź":{"ha":631,"x_min":19,"x_max":594,"o":"m 589 0 l 19 0 l 350 476 l 168 476 q 85 505 119 476 q 51 578 51 533 l 51 646 l 171 646 l 171 628 q 182 596 171 601 q 218 590 193 590 l 594 590 l 275 131 l 589 131 l 589 0 m 265 676 q 328 769 297 722 q 392 864 360 817 l 535 864 q 450 769 493 817 q 364 676 407 722 l 265 676 z "},"ž":{"ha":631,"x_min":19,"x_max":594,"o":"m 589 0 l 19 0 l 350 476 l 168 476 q 85 505 119 476 q 51 578 51 533 l 51 646 l 171 646 l 171 628 q 182 596 171 601 q 218 590 193 590 l 594 590 l 275 131 l 589 131 l 589 0 m 158 931 l 257 931 l 326 839 q 340 857 331 844 q 362 884 350 869 q 383 912 374 899 q 397 931 393 925 l 497 931 q 412 804 454 868 q 326 676 369 740 l 158 931 z "},"ż":{"ha":631,"x_min":19,"x_max":594,"o":"m 589 0 l 19 0 l 350 476 l 168 476 q 85 505 119 476 q 51 578 51 533 l 51 646 l 171 646 l 171 628 q 182 596 171 601 q 218 590 193 590 l 594 590 l 275 131 l 589 131 l 589 0 m 240 819 q 267 879 240 856 q 324 903 293 903 q 380 879 354 903 q 406 819 406 856 q 380 759 406 782 q 324 736 354 736 q 267 759 293 736 q 240 819 240 782 z "},"Ŕ":{"ha":883,"x_min":117,"x_max":871,"o":"m 117 0 l 117 1013 l 403 1013 q 555 990 486 1013 q 672 926 624 968 q 746 824 719 885 q 772 686 772 763 q 764 603 772 644 q 738 522 756 561 q 690 451 719 483 q 621 394 661 418 q 681 299 651 346 q 740 206 710 253 q 801 108 769 158 q 871 0 833 58 l 667 0 q 549 184 604 97 q 442 349 493 271 l 428 349 l 286 349 l 286 0 l 117 0 m 286 508 l 422 508 q 510 526 475 508 q 565 570 544 544 q 594 626 586 596 q 603 681 603 656 q 595 734 603 704 q 567 790 588 764 q 513 835 547 817 q 424 853 478 853 l 286 853 l 286 508 m 329 1069 q 392 1163 361 1115 q 456 1257 424 1210 l 599 1257 q 514 1163 557 1210 q 428 1069 471 1115 l 329 1069 z "},"Ă":{"ha":907,"x_min":0,"x_max":907,"o":"m 907 0 q 881 62 901 13 q 828 184 860 111 q 759 347 797 257 q 681 529 721 436 q 602 712 640 622 q 533 874 564 801 q 480 997 501 947 q 453 1058 458 1046 q 426 997 447 1046 q 374 874 406 947 q 305 712 343 801 q 226 529 267 622 q 148 347 186 436 q 78 184 110 257 q 26 62 47 111 q 0 0 6 13 l 168 0 l 279 267 l 628 267 q 665 176 647 219 q 699 96 683 132 q 724 35 714 60 q 739 0 735 10 l 907 0 m 454 1075 q 367 1092 408 1075 q 296 1138 326 1108 q 247 1207 265 1167 q 228 1293 229 1247 l 301 1293 q 347 1189 304 1229 q 454 1149 389 1149 q 560 1189 521 1149 q 603 1293 600 1229 l 678 1293 q 660 1207 678 1247 q 611 1138 642 1167 q 540 1092 581 1108 q 454 1075 500 1075 m 439 651 q 444 670 439 653 q 453 701 450 688 q 461 670 456 688 q 468 651 467 653 l 568 410 l 338 410 l 439 651 z "},"Ĺ":{"ha":799,"x_min":117,"x_max":778,"o":"m 117 0 l 117 1013 l 286 1013 l 286 161 l 778 161 l 778 0 l 117 0 m 354 1069 q 417 1163 386 1115 q 481 1257 449 1210 l 624 1257 q 539 1163 582 1210 q 453 1069 496 1115 l 354 1069 z "},"Ć":{"ha":889,"x_min":51,"x_max":879,"o":"m 879 75 q 833 49 863 64 q 762 20 803 33 q 669 -2 721 7 q 560 -11 618 -11 q 346 30 440 -11 q 186 140 251 71 q 86 303 121 210 q 51 499 51 396 q 93 709 51 613 q 206 876 135 806 q 373 985 278 946 q 576 1024 468 1024 q 660 1017 618 1024 q 740 1001 703 1011 q 806 979 778 992 q 847 953 835 967 q 828 921 835 933 q 813 895 821 908 q 797 865 806 882 q 771 819 788 849 q 731 839 754 831 q 681 852 707 847 q 629 860 656 857 q 582 863 603 863 q 438 833 504 863 q 324 756 372 804 q 249 644 276 708 q 222 513 222 581 q 248 383 222 446 q 320 271 274 319 q 431 192 367 222 q 572 163 494 163 q 658 172 617 163 q 732 192 700 181 q 784 214 764 203 q 806 229 804 225 l 879 75 m 474 1069 q 537 1163 506 1115 q 600 1257 568 1210 l 743 1257 q 658 1163 701 1210 q 572 1069 615 1115 l 474 1069 z "},"Č":{"ha":889,"x_min":51,"x_max":879,"o":"m 879 75 q 833 49 863 64 q 762 20 803 33 q 669 -2 721 7 q 560 -11 618 -11 q 346 30 440 -11 q 186 140 251 71 q 86 303 121 210 q 51 499 51 396 q 93 709 51 613 q 206 876 135 806 q 373 985 278 946 q 576 1024 468 1024 q 660 1017 618 1024 q 740 1001 703 1011 q 806 979 778 992 q 847 953 835 967 q 828 921 835 933 q 813 895 821 908 q 797 865 806 882 q 771 819 788 849 q 731 839 754 831 q 681 852 707 847 q 629 860 656 857 q 582 863 603 863 q 438 833 504 863 q 324 756 372 804 q 249 644 276 708 q 222 513 222 581 q 248 383 222 446 q 320 271 274 319 q 431 192 367 222 q 572 163 494 163 q 658 172 617 163 q 732 192 700 181 q 784 214 764 203 q 806 229 804 225 l 879 75 m 400 1289 l 499 1289 l 568 1197 q 582 1215 572 1203 q 603 1242 592 1228 q 625 1270 615 1257 q 639 1289 635 1283 l 739 1289 q 653 1163 696 1226 q 568 1035 611 1099 l 400 1289 z "},"Ę":{"ha":860,"x_min":117,"x_max":922,"o":"m 117 0 l 117 1013 l 789 1013 l 789 858 l 286 858 l 286 586 l 733 586 l 733 428 l 286 428 l 286 158 l 808 158 l 808 0 l 117 0 m 808 0 l 722 0 l 722 -11 q 717 -43 722 -32 q 702 -62 711 -54 q 683 -74 693 -69 q 664 -86 672 -79 q 623 -137 635 -108 q 611 -207 611 -167 q 621 -262 611 -235 q 649 -312 631 -290 q 697 -349 668 -335 q 767 -362 726 -362 q 860 -335 817 -362 q 922 -250 903 -308 l 846 -210 q 822 -244 839 -231 q 779 -258 804 -258 q 731 -237 747 -258 q 715 -185 715 -217 q 730 -144 715 -158 q 762 -117 744 -129 q 794 -91 779 -104 q 808 -54 808 -78 l 808 0 z "},"Ě":{"ha":860,"x_min":117,"x_max":808,"o":"m 117 0 l 117 1013 l 789 1013 l 789 858 l 286 858 l 286 586 l 733 586 l 733 428 l 286 428 l 286 158 l 808 158 l 808 0 l 117 0 m 296 1289 l 394 1289 l 464 1197 q 478 1215 468 1203 q 499 1242 488 1228 q 521 1270 511 1257 q 535 1289 531 1283 l 635 1289 q 549 1163 592 1226 q 464 1035 507 1099 l 296 1289 z "},"Ď":{"ha":990,"x_min":117,"x_max":938,"o":"m 117 1013 l 379 1013 q 638 966 532 1013 q 811 846 744 919 q 908 678 878 772 q 938 492 938 585 q 897 287 938 378 q 786 132 856 196 q 624 34 717 68 q 429 0 532 0 l 117 0 l 117 1013 m 403 161 q 549 183 482 161 q 664 249 615 206 q 740 356 713 293 q 767 503 767 419 q 734 663 767 597 q 651 770 701 729 q 540 830 601 811 q 424 849 479 849 l 288 849 l 288 161 l 403 161 m 303 1289 l 401 1289 l 471 1197 q 485 1215 475 1203 q 506 1242 494 1228 q 528 1270 518 1257 q 542 1289 538 1283 l 642 1289 q 556 1163 599 1226 q 471 1035 514 1099 l 303 1289 z "},"Đ":{"ha":999,"x_min":25,"x_max":946,"o":"m 25 572 l 125 572 l 125 1013 l 388 1013 q 647 966 540 1013 q 819 846 753 919 q 916 678 886 772 q 946 492 946 585 q 905 287 946 378 q 794 132 864 196 q 633 34 725 68 q 438 0 540 0 l 125 0 l 125 458 l 25 458 l 25 572 m 411 161 q 557 183 490 161 q 672 249 624 206 q 748 356 721 293 q 775 503 775 419 q 742 663 775 597 q 660 770 710 729 q 549 830 610 811 q 432 849 488 849 l 296 849 l 296 572 l 446 572 l 446 458 l 296 458 l 296 161 l 411 161 z "},"Ń":{"ha":1126,"x_min":115,"x_max":1010,"o":"m 1010 1013 l 1010 -47 q 967 -1 1000 -35 q 885 78 933 32 q 777 181 836 125 q 657 295 718 238 q 538 408 596 353 q 431 510 479 464 q 351 590 383 557 q 308 635 318 622 q 297 649 307 638 q 281 671 288 661 l 285 626 l 285 0 l 115 0 l 115 1058 q 158 1013 125 1046 q 240 935 192 981 q 348 835 289 889 q 468 724 407 781 q 588 613 529 668 q 694 513 646 558 q 776 436 743 468 q 818 392 808 404 l 844 353 l 840 400 l 840 1013 l 1010 1013 m 474 1069 q 537 1163 506 1115 q 600 1257 568 1210 l 743 1257 q 658 1163 701 1210 q 572 1069 615 1115 l 474 1069 z "},"Ň":{"ha":1128,"x_min":117,"x_max":1011,"o":"m 1011 1013 l 1011 -47 q 968 -1 1001 -35 q 886 78 935 32 q 778 181 838 125 q 658 295 719 238 q 539 408 597 353 q 433 510 481 464 q 352 590 385 557 q 310 635 319 622 q 299 649 308 638 q 282 671 289 661 l 286 626 l 286 0 l 117 0 l 117 1058 q 160 1013 126 1046 q 242 935 193 981 q 349 835 290 889 q 469 724 408 781 q 589 613 531 668 q 696 513 647 558 q 777 436 744 468 q 819 392 810 404 l 846 353 l 842 400 l 842 1013 l 1011 1013 m 375 1289 l 474 1289 l 543 1197 q 557 1215 547 1203 q 578 1242 567 1228 q 600 1270 590 1257 q 614 1289 610 1283 l 714 1289 q 628 1163 671 1226 q 543 1035 586 1099 l 375 1289 z "},"Ő":{"ha":1135,"x_min":50,"x_max":1085,"o":"m 50 504 q 91 704 50 610 q 202 869 132 799 q 366 982 272 940 q 567 1024 460 1024 q 767 982 672 1024 q 932 869 861 940 q 1044 704 1003 799 q 1085 504 1085 610 q 1044 303 1085 397 q 932 140 1003 210 q 767 29 861 69 q 567 -11 672 -11 q 366 29 460 -11 q 202 140 272 69 q 91 303 132 210 q 50 504 50 397 m 221 504 q 248 366 221 431 q 323 253 275 301 q 434 178 371 206 q 571 150 497 150 q 705 178 642 150 q 815 253 768 206 q 888 366 861 301 q 915 504 915 431 q 888 642 915 578 q 813 756 860 707 q 702 832 765 804 q 567 860 639 860 q 431 832 494 860 q 322 756 368 804 q 248 642 275 707 q 221 504 221 578 m 354 1063 q 417 1156 386 1108 q 481 1250 449 1203 l 624 1250 q 539 1156 582 1203 q 453 1063 496 1108 l 354 1063 m 661 1063 q 724 1156 693 1108 q 788 1250 756 1203 l 932 1250 l 760 1063 l 661 1063 z "},"Ř":{"ha":883,"x_min":117,"x_max":871,"o":"m 117 0 l 117 1013 l 403 1013 q 555 990 486 1013 q 672 926 624 968 q 746 824 719 885 q 772 686 772 763 q 764 603 772 644 q 738 522 756 561 q 690 451 719 483 q 621 394 661 418 q 681 299 651 346 q 740 206 710 253 q 801 108 769 158 q 871 0 833 58 l 667 0 q 549 184 604 97 q 442 349 493 271 l 428 349 l 286 349 l 286 0 l 117 0 m 286 508 l 422 508 q 510 526 475 508 q 565 570 544 544 q 594 626 586 596 q 603 681 603 656 q 595 734 603 704 q 567 790 588 764 q 513 835 547 817 q 424 853 478 853 l 286 853 l 286 508 m 249 1289 l 347 1289 l 417 1197 q 431 1215 421 1203 q 452 1242 440 1228 q 474 1270 464 1257 q 488 1289 483 1283 l 588 1289 q 502 1163 544 1226 q 417 1035 460 1099 l 249 1289 z "},"Ů":{"ha":1000,"x_min":107,"x_max":893,"o":"m 463 1185 q 476 1153 463 1165 q 508 1140 489 1140 q 541 1153 528 1140 q 554 1185 554 1165 q 541 1219 554 1206 q 508 1232 528 1232 q 476 1219 489 1232 q 463 1185 463 1206 m 385 1188 q 394 1234 385 1213 q 422 1272 404 1256 q 461 1299 439 1289 q 508 1308 483 1308 q 556 1299 533 1308 q 594 1272 578 1289 q 621 1234 611 1256 q 631 1188 631 1213 q 621 1140 631 1163 q 594 1101 611 1118 q 556 1074 578 1083 q 508 1064 533 1064 q 461 1074 483 1064 q 422 1101 439 1083 q 394 1140 404 1118 q 385 1188 385 1163 m 499 -11 q 345 16 417 -11 q 221 92 274 43 q 138 209 168 140 q 107 361 107 278 l 107 1013 l 276 1013 l 276 365 q 294 282 276 321 q 341 214 311 243 q 411 167 371 185 q 499 150 451 150 q 587 167 546 150 q 658 214 628 185 q 706 282 689 243 q 724 365 724 321 l 724 1013 l 893 1013 l 893 361 q 863 209 893 278 q 778 92 832 140 q 653 16 725 43 q 499 -11 581 -11 z "},"Ű":{"ha":1000,"x_min":107,"x_max":893,"o":"m 499 -11 q 345 16 417 -11 q 221 92 274 43 q 138 209 168 140 q 107 361 107 278 l 107 1013 l 276 1013 l 276 365 q 294 282 276 321 q 341 214 311 243 q 411 167 371 185 q 499 150 451 150 q 587 167 546 150 q 658 214 628 185 q 706 282 689 243 q 724 365 724 321 l 724 1013 l 893 1013 l 893 361 q 863 209 893 278 q 778 92 832 140 q 653 16 725 43 q 499 -11 581 -11 m 268 1063 q 331 1156 300 1108 q 394 1250 363 1203 l 538 1250 q 453 1156 496 1203 q 367 1063 410 1108 l 268 1063 m 575 1063 q 638 1156 607 1108 q 701 1250 669 1203 l 846 1250 l 674 1063 l 575 1063 z "},"Ţ":{"ha":782,"x_min":58,"x_max":724,"o":"m 724 1013 l 724 850 l 474 850 l 474 0 l 303 0 l 303 850 l 58 850 l 58 1013 l 724 1013 m 476 -29 l 354 -321 l 226 -321 q 281 -176 254 -247 q 335 -29 307 -104 l 476 -29 z "},"ŕ":{"ha":450,"x_min":82,"x_max":442,"o":"m 413 433 q 338 424 374 433 q 276 394 303 414 q 232 344 249 374 q 215 274 215 314 l 215 0 l 82 0 l 82 590 l 199 590 q 205 509 201 540 q 211 439 208 478 q 260 508 229 478 q 323 560 290 539 q 388 594 356 582 q 442 606 419 606 l 413 433 m 156 676 q 219 769 188 722 q 282 864 250 817 l 425 864 q 340 769 383 817 q 254 676 297 722 l 156 676 z "},"ă":{"ha":760,"x_min":44,"x_max":678,"o":"m 44 289 q 69 410 44 353 q 137 511 94 468 q 235 580 179 554 q 354 606 292 606 q 429 595 396 606 q 487 571 463 585 q 525 542 511 557 q 543 519 539 528 l 549 590 l 678 590 l 678 0 l 543 0 l 543 39 q 544 52 543 46 q 544 61 544 58 q 525 41 539 54 q 488 15 511 28 q 431 -6 464 3 q 356 -15 399 -15 q 231 10 288 -15 q 132 76 174 35 q 67 173 90 118 q 44 289 44 228 m 179 297 q 192 225 179 258 q 230 167 206 192 q 288 129 254 143 q 361 115 321 115 q 435 129 401 115 q 492 168 468 143 q 530 226 517 193 q 543 297 543 260 q 530 367 543 335 q 492 424 517 400 q 435 461 468 447 q 361 475 401 475 q 288 462 321 475 q 230 424 254 449 q 192 367 206 400 q 179 297 179 335 m 385 694 q 298 711 339 694 q 226 757 257 728 q 178 826 196 786 q 158 913 160 867 l 232 913 q 277 808 235 849 q 385 768 319 768 q 491 808 451 768 q 533 913 531 849 l 608 913 q 590 826 608 867 q 542 757 572 786 q 471 711 511 728 q 385 694 431 694 z "},"ĺ":{"ha":296,"x_min":82,"x_max":360,"o":"m 214 0 l 82 0 l 82 1085 l 214 1085 l 214 0 m 90 1108 q 153 1201 122 1154 q 217 1296 185 1249 l 360 1296 q 275 1201 318 1249 q 189 1108 232 1154 l 90 1108 z "},"ć":{"ha":590,"x_min":44,"x_max":561,"o":"m 476 154 q 517 103 497 128 q 557 54 536 79 q 467 3 517 22 q 360 -15 417 -15 q 237 9 294 -15 q 137 76 179 33 q 69 175 94 118 q 44 296 44 232 q 69 416 44 360 q 137 515 94 472 q 237 581 179 557 q 360 606 294 606 q 469 587 418 606 q 561 536 519 568 l 476 438 q 360 475 428 475 q 286 461 319 475 q 228 424 253 447 q 191 367 204 400 q 178 296 178 335 q 191 226 178 258 q 228 168 204 193 q 286 129 253 143 q 360 115 319 115 q 476 154 429 115 m 258 676 q 322 769 290 722 q 385 864 353 817 l 528 864 q 443 769 486 817 q 357 676 400 722 l 258 676 z "},"č":{"ha":590,"x_min":44,"x_max":561,"o":"m 476 154 q 517 103 497 128 q 557 54 536 79 q 467 3 517 22 q 360 -15 417 -15 q 237 9 294 -15 q 137 76 179 33 q 69 175 94 118 q 44 296 44 232 q 69 416 44 360 q 137 515 94 472 q 237 581 179 557 q 360 606 294 606 q 469 587 418 606 q 561 536 519 568 l 476 438 q 360 475 428 475 q 286 461 319 475 q 228 424 253 447 q 191 367 204 400 q 178 296 178 335 q 191 226 178 258 q 228 168 204 193 q 286 129 253 143 q 360 115 319 115 q 476 154 429 115 m 175 931 l 274 931 l 343 839 q 357 857 347 844 q 378 884 367 869 q 400 912 390 899 q 414 931 410 925 l 514 931 q 428 804 471 868 q 343 676 386 740 l 175 931 z "},"ę":{"ha":658,"x_min":44,"x_max":638,"o":"m 399 0 l 313 0 l 313 -11 q 207 24 256 -3 q 122 92 158 51 q 65 185 86 133 q 44 294 44 236 q 69 415 44 358 q 137 513 94 471 q 235 580 179 556 q 354 604 292 604 q 530 544 454 604 q 638 385 606 483 q 541 348 596 369 q 426 303 486 326 q 307 255 367 279 q 197 211 247 231 q 263 142 221 168 q 357 115 304 115 q 430 128 393 115 q 490 164 467 142 l 589 68 q 502 15 553 35 q 399 -12 451 -6 l 399 0 m 360 -15 q 313 -11 335 -15 q 307 -43 313 -32 q 292 -62 301 -54 q 273 -74 283 -69 q 254 -86 263 -79 q 213 -137 225 -108 q 201 -207 201 -167 q 211 -262 201 -235 q 240 -312 221 -290 q 288 -349 258 -335 q 357 -362 317 -362 q 450 -335 407 -362 q 513 -250 493 -308 l 436 -210 q 412 -244 429 -231 q 369 -258 394 -258 q 322 -237 338 -258 q 306 -185 306 -217 q 320 -144 306 -158 q 352 -117 335 -129 q 384 -91 369 -104 q 399 -54 399 -78 l 399 -12 q 378 -15 388 -14 q 360 -15 369 -15 m 472 415 q 422 460 456 446 q 357 475 389 475 q 286 460 319 475 q 229 422 253 446 q 192 366 206 397 q 178 301 178 335 l 178 296 q 252 326 213 310 q 331 358 292 342 q 407 390 371 375 q 472 415 443 404 z "},"ě":{"ha":658,"x_min":44,"x_max":638,"o":"m 589 68 q 485 7 546 29 q 360 -15 424 -15 q 237 9 294 -15 q 137 76 179 33 q 69 174 94 118 q 44 294 44 231 q 69 415 44 358 q 137 513 94 471 q 235 580 179 556 q 354 604 292 604 q 530 544 454 604 q 638 385 606 483 q 541 348 596 369 q 426 303 486 326 q 307 255 367 279 q 197 211 247 231 q 263 142 221 168 q 357 115 304 115 q 430 128 393 115 q 490 164 467 142 l 589 68 m 163 931 l 261 931 l 331 839 q 344 857 335 844 q 366 884 354 869 q 388 912 378 899 q 401 931 397 925 l 501 931 q 416 804 458 868 q 331 676 374 740 l 163 931 m 472 415 q 422 460 456 446 q 357 475 389 475 q 286 460 319 475 q 229 422 253 446 q 192 366 206 397 q 178 301 178 335 l 178 296 q 252 326 213 310 q 331 358 292 342 q 407 390 371 375 q 472 415 443 404 z "},"ď":{"ha":761,"x_min":46,"x_max":879,"o":"m 46 294 q 69 421 46 364 q 133 519 92 478 q 228 583 174 560 q 349 606 283 606 q 426 596 393 606 q 483 572 460 586 q 522 542 507 558 q 544 515 536 526 l 544 1085 l 678 1085 l 678 0 l 544 0 l 544 39 q 546 54 544 46 q 547 67 547 63 q 517 40 535 54 q 474 13 499 25 q 417 -8 449 0 q 346 -15 386 -15 q 219 9 275 -15 q 124 76 163 33 q 66 174 86 118 q 46 294 46 231 m 179 297 q 192 225 179 258 q 230 167 206 192 q 288 129 254 143 q 361 115 321 115 q 435 129 401 115 q 494 168 469 143 q 531 226 518 193 q 544 297 544 260 q 531 367 544 335 q 494 424 518 400 q 435 461 469 447 q 361 475 401 475 q 288 462 321 475 q 230 424 254 449 q 192 367 206 400 q 179 297 179 335 m 806 797 q 771 814 788 806 q 735 833 754 822 q 778 903 765 861 q 782 993 792 944 l 868 1003 q 863 891 879 944 q 806 797 846 838 z "},"đ":{"ha":761,"x_min":46,"x_max":757,"o":"m 46 294 q 69 421 46 364 q 133 519 92 478 q 228 583 174 560 q 349 606 283 606 q 426 596 393 606 q 483 572 460 586 q 522 542 507 558 q 544 515 536 526 l 544 839 l 678 839 l 678 0 l 544 0 l 544 39 q 546 54 544 46 q 547 67 547 63 q 517 40 535 54 q 474 13 499 25 q 417 -8 449 0 q 346 -15 386 -15 q 219 9 275 -15 q 124 76 163 33 q 66 174 86 118 q 46 294 46 231 m 179 297 q 192 225 179 258 q 230 167 206 192 q 288 129 254 143 q 361 115 321 115 q 435 129 401 115 q 494 168 469 143 q 531 226 518 193 q 544 297 544 260 q 531 367 544 335 q 494 424 518 400 q 435 461 469 447 q 361 475 401 475 q 288 462 321 475 q 230 424 254 449 q 192 367 206 400 q 179 297 179 335 m 336 839 l 544 839 l 544 953 l 336 953 l 336 839 m 544 1085 l 678 1085 l 678 953 l 544 953 l 544 1085 m 757 839 l 757 953 l 678 953 l 678 839 l 757 839 z "},"ń":{"ha":725,"x_min":82,"x_max":647,"o":"m 82 590 l 199 590 q 205 509 201 540 q 211 439 208 478 q 301 560 243 514 q 447 606 360 606 q 591 556 538 606 q 647 428 644 507 l 647 0 l 515 0 l 515 365 q 485 440 513 408 q 399 474 457 471 q 324 459 358 474 q 266 419 290 444 q 228 360 242 394 q 215 285 215 325 l 215 0 l 82 0 l 82 590 m 315 676 q 378 769 347 722 q 442 864 410 817 l 585 864 q 500 769 543 817 q 414 676 457 722 l 315 676 z "},"ň":{"ha":725,"x_min":82,"x_max":647,"o":"m 82 590 l 199 590 q 205 509 201 540 q 211 439 208 478 q 301 560 243 514 q 447 606 360 606 q 591 556 538 606 q 647 428 644 507 l 647 0 l 515 0 l 515 365 q 485 440 513 408 q 399 474 457 471 q 324 459 358 474 q 266 419 290 444 q 228 360 242 394 q 215 285 215 325 l 215 0 l 82 0 l 82 590 m 207 931 l 306 931 l 375 839 q 389 857 379 844 q 410 884 399 869 q 432 912 422 899 q 446 931 442 925 l 546 931 q 460 804 503 868 q 375 676 418 740 l 207 931 z "},"ő":{"ha":714,"x_min":44,"x_max":692,"o":"m 44 296 q 69 416 44 360 q 136 514 93 472 q 237 580 179 556 q 360 604 294 604 q 483 580 426 604 q 581 514 540 556 q 646 416 622 472 q 669 296 669 360 q 647 175 669 232 q 582 76 624 118 q 483 9 540 33 q 358 -15 426 -15 q 236 7 293 -15 q 137 70 179 29 q 69 169 94 111 q 44 296 44 226 m 176 294 q 190 224 176 257 q 228 167 204 192 q 285 129 253 143 q 356 115 318 115 q 426 129 393 115 q 483 167 458 143 q 522 224 507 192 q 536 294 536 257 q 522 365 536 332 q 483 422 507 397 q 426 460 458 446 q 356 475 393 475 q 285 460 318 475 q 228 422 253 446 q 190 365 204 397 q 176 294 176 332 m 114 676 q 177 769 146 722 q 240 864 208 817 l 383 864 q 299 769 342 817 q 213 676 256 722 l 114 676 m 421 676 q 484 769 453 722 q 547 864 515 817 l 692 864 l 519 676 l 421 676 z "},"ř":{"ha":450,"x_min":82,"x_max":442,"o":"m 413 433 q 338 424 374 433 q 276 394 303 414 q 232 344 249 374 q 215 274 215 314 l 215 0 l 82 0 l 82 590 l 199 590 q 205 509 201 540 q 211 439 208 478 q 260 508 229 478 q 323 560 290 539 q 388 594 356 582 q 442 606 419 606 l 413 433 m 88 931 l 186 931 l 256 839 q 269 857 260 844 q 291 884 279 869 q 313 912 303 899 q 326 931 322 925 l 426 931 q 341 804 383 868 q 256 676 299 740 l 88 931 z "},"ů":{"ha":725,"x_min":78,"x_max":643,"o":"m 317 768 q 330 736 317 749 q 363 724 343 724 q 395 736 382 724 q 408 768 408 749 q 395 802 408 789 q 363 815 382 815 q 330 802 343 815 q 317 768 317 789 m 240 771 q 250 817 240 796 q 276 856 260 839 q 315 882 293 872 q 363 892 338 892 q 410 882 388 892 q 449 856 432 872 q 475 817 465 839 q 485 771 485 796 q 475 724 485 746 q 449 684 465 701 q 410 657 432 667 q 363 647 388 647 q 315 657 338 647 q 276 684 293 667 q 250 724 260 701 q 240 771 240 746 m 643 -14 l 532 -14 l 515 150 q 427 33 483 79 q 279 -14 371 -14 q 134 34 188 -14 q 78 161 81 82 l 78 590 l 211 590 l 211 224 q 241 151 214 181 q 328 118 268 121 q 401 132 368 118 q 459 171 435 146 q 497 231 483 196 q 511 306 511 265 l 511 590 l 643 590 l 643 -14 z "},"ű":{"ha":726,"x_min":78,"x_max":694,"o":"m 643 -14 l 532 -14 l 515 150 q 427 33 483 79 q 279 -14 371 -14 q 134 34 188 -14 q 78 161 81 82 l 78 590 l 211 590 l 211 224 q 241 151 214 181 q 328 118 268 121 q 401 132 368 118 q 459 171 435 146 q 497 231 483 196 q 511 306 511 265 l 511 590 l 643 590 l 643 -14 m 117 676 q 180 769 149 722 q 243 864 211 817 l 386 864 q 301 769 344 817 q 215 676 258 722 l 117 676 m 424 676 q 487 769 456 722 q 550 864 518 817 l 694 864 l 522 676 l 424 676 z "},"ţ":{"ha":439,"x_min":36,"x_max":422,"o":"m 136 849 l 268 849 l 268 590 l 422 590 l 422 471 l 268 471 l 268 0 l 136 0 l 136 471 l 36 471 l 36 590 l 136 590 l 136 849 m 297 -29 l 175 -321 l 47 -321 q 101 -176 75 -247 q 156 -29 128 -104 l 297 -29 z "},"Ħ":{"ha":1078,"x_min":17,"x_max":1058,"o":"m 126 0 l 126 725 l 17 725 l 17 814 l 126 814 l 126 1013 l 297 1013 l 297 814 l 781 814 l 781 1013 l 953 1013 l 953 814 l 1058 814 l 1058 725 l 953 725 q 952 576 953 654 q 951 420 951 497 q 951 272 951 343 q 951 144 951 200 q 951 49 951 88 q 951 0 951 11 l 781 0 l 781 428 l 297 428 l 297 0 l 126 0 m 781 590 l 781 725 l 297 725 l 297 590 l 781 590 z "},"Ĥ":{"ha":1060,"x_min":117,"x_max":943,"o":"m 117 0 l 117 1013 l 288 1013 l 288 590 l 771 590 l 771 1013 l 943 1013 q 943 919 943 996 q 943 735 943 843 q 942 506 943 628 q 942 277 942 385 q 942 93 942 169 q 942 0 942 17 l 771 0 l 771 428 l 288 428 l 288 0 l 117 0 m 526 1325 q 612 1199 569 1263 q 697 1071 654 1135 l 597 1071 l 526 1164 l 457 1071 l 358 1071 l 526 1325 z "},"İ":{"ha":404,"x_min":117,"x_max":288,"o":"m 117 1013 l 288 1013 l 288 0 l 117 0 l 117 1013 m 118 1161 q 144 1221 118 1197 q 201 1244 171 1244 q 258 1221 232 1244 q 283 1161 283 1197 q 258 1101 283 1124 q 201 1078 232 1078 q 144 1101 171 1078 q 118 1161 118 1124 z "},"Ğ":{"ha":956,"x_min":51,"x_max":882,"o":"m 882 492 l 882 61 q 741 8 824 26 q 572 -11 658 -11 q 356 26 453 -11 q 192 129 260 64 q 88 285 124 194 q 51 482 51 375 q 94 702 51 603 q 210 873 138 801 q 380 984 283 944 q 583 1024 476 1024 q 659 1019 619 1024 q 738 1004 699 1014 q 813 981 776 994 q 878 950 849 968 l 794 811 q 748 833 775 824 q 692 849 721 842 q 634 859 663 856 q 581 863 606 863 q 445 834 510 863 q 331 757 381 806 q 251 641 281 708 q 221 497 221 574 q 247 365 221 428 q 321 255 274 303 q 433 178 368 207 q 576 150 499 150 q 646 155 604 150 q 725 172 688 160 l 725 344 l 536 344 l 536 492 l 882 492 m 569 1068 q 483 1085 524 1068 q 411 1131 442 1101 q 363 1200 381 1160 q 343 1286 344 1240 l 417 1286 q 462 1182 419 1222 q 569 1142 504 1142 q 676 1182 636 1142 q 718 1286 715 1222 l 793 1286 q 775 1200 793 1240 q 726 1131 757 1160 q 656 1085 696 1101 q 569 1068 615 1068 z "},"Ĵ":{"ha":475,"x_min":-28,"x_max":444,"o":"m -28 -210 l -28 -49 q 60 -31 19 -46 q 129 15 100 -15 q 174 91 158 44 q 190 201 190 138 l 190 1013 l 363 1013 l 363 197 q 333 27 363 101 q 251 -99 303 -47 q 127 -179 199 -151 q -28 -210 56 -207 m 274 1325 q 359 1199 317 1263 q 444 1071 401 1135 l 344 1071 l 274 1164 l 204 1071 l 106 1071 l 274 1325 z "},"ħ":{"ha":725,"x_min":-6,"x_max":647,"o":"m 82 1085 l 215 1085 l 215 847 l 419 847 l 419 757 l 215 757 l 215 447 q 301 561 246 518 q 444 606 357 604 q 590 557 536 606 q 647 428 644 508 l 647 0 l 515 0 l 515 365 q 485 440 513 408 q 399 474 457 471 q 324 459 358 474 q 266 419 290 444 q 228 360 242 394 q 215 285 215 325 l 215 0 l 82 0 l 82 757 l -6 757 l -6 847 l 82 847 l 82 1085 z "},"ĥ":{"ha":725,"x_min":82,"x_max":647,"o":"m 82 1085 l 215 1085 l 215 447 q 301 561 246 518 q 444 606 357 604 q 590 557 536 606 q 647 428 644 508 l 647 0 l 515 0 l 515 365 q 485 440 513 408 q 399 474 457 471 q 324 459 358 474 q 266 419 290 444 q 228 360 242 394 q 215 285 215 325 l 215 0 l 82 0 l 82 1085 m 439 1325 q 524 1199 482 1263 q 610 1071 567 1135 l 510 1071 l 439 1164 l 369 1071 l 271 1071 l 439 1325 z "},"ı":{"ha":297,"x_min":82,"x_max":215,"o":"m 215 0 l 82 0 l 82 590 l 215 590 l 215 0 z "},"ğ":{"ha":760,"x_min":46,"x_max":678,"o":"m 46 292 q 69 416 46 358 q 134 516 93 474 q 230 582 175 558 q 347 606 285 606 q 431 593 394 606 q 491 565 467 581 q 528 536 515 550 q 544 519 542 522 q 547 553 544 535 q 550 590 550 571 l 678 590 l 678 31 q 654 -103 678 -44 q 588 -202 631 -162 q 487 -262 546 -242 q 357 -283 428 -283 q 262 -272 303 -283 q 188 -243 221 -261 q 128 -203 156 -225 q 76 -158 101 -181 l 163 -68 q 246 -130 201 -104 q 354 -156 290 -156 q 492 -114 440 -156 q 543 4 543 -72 q 543 20 543 11 q 544 39 543 29 q 547 61 544 51 q 550 78 550 71 q 520 47 538 64 q 478 17 503 31 q 422 -6 454 3 q 349 -15 390 -15 q 226 8 282 -15 q 131 74 171 32 q 68 171 90 115 q 46 292 46 226 m 179 297 q 192 225 179 258 q 230 167 206 192 q 288 129 254 143 q 361 115 321 115 q 435 129 401 115 q 494 168 469 143 q 531 226 518 193 q 544 297 544 260 q 531 367 544 335 q 494 424 518 400 q 435 461 469 447 q 361 475 401 475 q 288 462 321 475 q 230 424 254 449 q 192 367 206 400 q 179 297 179 335 m 392 694 q 305 711 346 694 q 233 757 264 728 q 185 826 203 786 q 165 913 167 867 l 239 913 q 284 808 242 849 q 392 768 326 768 q 498 808 458 768 q 540 913 538 849 l 615 913 q 597 826 615 867 q 549 757 579 786 q 478 711 518 728 q 392 694 438 694 z "},"ĵ":{"ha":297,"x_min":-24,"x_max":315,"o":"m 89 -285 q 42 -235 65 -258 q -3 -185 19 -211 q 60 -106 38 -153 q 82 6 82 -60 l 82 590 l 215 590 l 215 0 q 181 -167 215 -96 q 89 -285 147 -237 m 144 929 q 230 803 188 867 q 315 675 272 739 l 215 675 l 144 768 l 75 675 l -24 675 l 144 929 z "},"Ċ":{"ha":889,"x_min":51,"x_max":879,"o":"m 879 75 q 833 49 863 64 q 762 20 803 33 q 669 -2 721 7 q 560 -11 618 -11 q 346 30 440 -11 q 186 140 251 71 q 86 303 121 210 q 51 499 51 396 q 93 709 51 613 q 206 876 135 806 q 373 985 278 946 q 576 1024 468 1024 q 660 1017 618 1024 q 740 1001 703 1011 q 806 979 778 992 q 847 953 835 967 q 828 921 835 933 q 813 895 821 908 q 797 865 806 882 q 771 819 788 849 q 731 839 754 831 q 681 852 707 847 q 629 860 656 857 q 582 863 603 863 q 438 833 504 863 q 324 756 372 804 q 249 644 276 708 q 222 513 222 581 q 248 383 222 446 q 320 271 274 319 q 431 192 367 222 q 572 163 494 163 q 658 172 617 163 q 732 192 700 181 q 784 214 764 203 q 806 229 804 225 l 879 75 m 468 1149 q 494 1208 468 1185 q 551 1232 521 1232 q 608 1208 582 1232 q 633 1149 633 1185 q 608 1088 633 1111 q 551 1065 582 1065 q 494 1088 521 1065 q 468 1149 468 1111 z "},"Ĉ":{"ha":889,"x_min":51,"x_max":879,"o":"m 879 75 q 833 49 863 64 q 762 20 803 33 q 669 -2 721 7 q 560 -11 618 -11 q 346 30 440 -11 q 186 140 251 71 q 86 303 121 210 q 51 499 51 396 q 93 709 51 613 q 206 876 135 806 q 373 985 278 946 q 576 1024 468 1024 q 660 1017 618 1024 q 740 1001 703 1011 q 806 979 778 992 q 847 953 835 967 q 828 921 835 933 q 813 895 821 908 q 797 865 806 882 q 771 819 788 849 q 731 839 754 831 q 681 852 707 847 q 629 860 656 857 q 582 863 603 863 q 438 833 504 863 q 324 756 372 804 q 249 644 276 708 q 222 513 222 581 q 248 383 222 446 q 320 271 274 319 q 431 192 367 222 q 572 163 494 163 q 658 172 617 163 q 732 192 700 181 q 784 214 764 203 q 806 229 804 225 l 879 75 m 546 1325 q 631 1199 589 1263 q 717 1071 674 1135 l 617 1071 l 546 1164 l 476 1071 l 378 1071 l 546 1325 z "},"Ġ":{"ha":956,"x_min":51,"x_max":882,"o":"m 882 492 l 882 61 q 741 8 824 26 q 572 -11 658 -11 q 356 26 453 -11 q 192 129 260 64 q 88 285 124 194 q 51 482 51 375 q 94 702 51 603 q 210 873 138 801 q 380 984 283 944 q 583 1024 476 1024 q 659 1019 619 1024 q 738 1004 699 1014 q 813 981 776 994 q 878 950 849 968 l 794 811 q 748 833 775 824 q 692 849 721 842 q 634 859 663 856 q 581 863 606 863 q 445 834 510 863 q 331 757 381 806 q 251 641 281 708 q 221 497 221 574 q 247 365 221 428 q 321 255 274 303 q 433 178 368 207 q 576 150 499 150 q 646 155 604 150 q 725 172 688 160 l 725 344 l 536 344 l 536 492 l 882 492 m 450 1149 q 476 1208 450 1185 q 533 1232 503 1232 q 590 1208 564 1232 q 615 1149 615 1185 q 590 1088 615 1111 q 533 1065 564 1065 q 476 1088 503 1065 q 450 1149 450 1111 z "},"Ĝ":{"ha":956,"x_min":51,"x_max":882,"o":"m 882 492 l 882 61 q 741 8 824 26 q 572 -11 658 -11 q 356 26 453 -11 q 192 129 260 64 q 88 285 124 194 q 51 482 51 375 q 94 702 51 603 q 210 873 138 801 q 380 984 283 944 q 583 1024 476 1024 q 659 1019 619 1024 q 738 1004 699 1014 q 813 981 776 994 q 878 950 849 968 l 794 811 q 748 833 775 824 q 692 849 721 842 q 634 859 663 856 q 581 863 606 863 q 445 834 510 863 q 331 757 381 806 q 251 641 281 708 q 221 497 221 574 q 247 365 221 428 q 321 255 274 303 q 433 178 368 207 q 576 150 499 150 q 646 155 604 150 q 725 172 688 160 l 725 344 l 536 344 l 536 492 l 882 492 m 568 1325 q 653 1199 611 1263 q 739 1071 696 1135 l 639 1071 l 568 1164 l 499 1071 l 400 1071 l 568 1325 z "},"Ŭ":{"ha":1000,"x_min":107,"x_max":893,"o":"m 499 -11 q 345 16 417 -11 q 221 92 274 43 q 138 209 168 140 q 107 361 107 278 l 107 1013 l 276 1013 l 276 365 q 294 282 276 321 q 341 214 311 243 q 411 167 371 185 q 499 150 451 150 q 587 167 546 150 q 658 214 628 185 q 706 282 689 243 q 724 365 724 321 l 724 1013 l 893 1013 l 893 361 q 863 209 893 278 q 778 92 832 140 q 653 16 725 43 q 499 -11 581 -11 m 503 1068 q 416 1085 457 1068 q 344 1131 375 1101 q 296 1200 314 1160 q 276 1286 278 1240 l 350 1286 q 395 1182 353 1222 q 503 1142 438 1142 q 609 1182 569 1142 q 651 1286 649 1222 l 726 1286 q 708 1200 726 1240 q 660 1131 690 1160 q 589 1085 629 1101 q 503 1068 549 1068 z "},"Ŝ":{"ha":793,"x_min":29,"x_max":747,"o":"m 714 956 l 653 817 q 538 850 594 838 q 432 863 481 863 q 298 829 347 863 q 249 744 249 796 q 285 672 249 700 q 378 622 322 644 q 498 577 433 600 q 618 518 563 554 q 710 426 674 482 q 747 285 747 371 q 723 164 747 218 q 650 71 699 110 q 527 10 601 32 q 353 -11 453 -11 q 242 -3 292 -11 q 152 18 192 6 q 82 45 113 31 q 29 74 51 60 l 103 222 q 228 173 161 190 q 346 156 294 156 q 410 161 371 156 q 488 182 450 167 q 552 224 525 197 q 579 292 579 250 q 542 372 579 340 q 450 427 506 403 q 330 475 394 451 q 210 531 265 499 q 117 612 154 564 q 81 733 81 660 q 101 837 81 786 q 165 928 122 888 q 270 993 207 968 q 419 1018 333 1018 q 524 1009 474 1018 q 615 989 575 1000 q 682 967 656 978 q 714 956 708 957 m 407 1325 q 492 1199 450 1263 q 578 1071 535 1135 l 478 1071 l 407 1164 l 338 1071 l 239 1071 l 407 1325 z "},"ċ":{"ha":590,"x_min":44,"x_max":561,"o":"m 476 154 q 517 103 497 128 q 557 54 536 79 q 467 3 517 22 q 360 -15 417 -15 q 237 9 294 -15 q 137 76 179 33 q 69 175 94 118 q 44 296 44 232 q 69 416 44 360 q 137 515 94 472 q 237 581 179 557 q 360 606 294 606 q 469 587 418 606 q 561 536 519 568 l 476 438 q 360 475 428 475 q 286 461 319 475 q 228 424 253 447 q 191 367 204 400 q 178 296 178 335 q 191 226 178 258 q 228 168 204 193 q 286 129 253 143 q 360 115 319 115 q 476 154 429 115 m 282 819 q 308 879 282 856 q 365 903 335 903 q 422 879 396 903 q 447 819 447 856 q 422 759 447 782 q 365 736 396 736 q 308 759 335 736 q 282 819 282 782 z "},"ĉ":{"ha":590,"x_min":44,"x_max":561,"o":"m 476 154 q 517 103 497 128 q 557 54 536 79 q 467 3 517 22 q 360 -15 417 -15 q 237 9 294 -15 q 137 76 179 33 q 69 175 94 118 q 44 296 44 232 q 69 416 44 360 q 137 515 94 472 q 237 581 179 557 q 360 606 294 606 q 469 587 418 606 q 561 536 519 568 l 476 438 q 360 475 428 475 q 286 461 319 475 q 228 424 253 447 q 191 367 204 400 q 178 296 178 335 q 191 226 178 258 q 228 168 204 193 q 286 129 253 143 q 360 115 319 115 q 476 154 429 115 m 353 929 q 438 803 396 867 q 524 675 481 739 l 424 675 l 353 768 l 283 675 l 185 675 l 353 929 z "},"ġ":{"ha":760,"x_min":46,"x_max":678,"o":"m 46 292 q 69 416 46 358 q 134 516 93 474 q 230 582 175 558 q 347 606 285 606 q 431 593 394 606 q 491 565 467 581 q 528 536 515 550 q 544 519 542 522 q 547 553 544 535 q 550 590 550 571 l 678 590 l 678 31 q 654 -103 678 -44 q 588 -202 631 -162 q 487 -262 546 -242 q 357 -283 428 -283 q 262 -272 303 -283 q 188 -243 221 -261 q 128 -203 156 -225 q 76 -158 101 -181 l 163 -68 q 246 -130 201 -104 q 354 -156 290 -156 q 492 -114 440 -156 q 543 4 543 -72 q 543 20 543 11 q 544 39 543 29 q 547 61 544 51 q 550 78 550 71 q 520 47 538 64 q 478 17 503 31 q 422 -6 454 3 q 349 -15 390 -15 q 226 8 282 -15 q 131 74 171 32 q 68 171 90 115 q 46 292 46 226 m 179 297 q 192 225 179 258 q 230 167 206 192 q 288 129 254 143 q 361 115 321 115 q 435 129 401 115 q 494 168 469 143 q 531 226 518 193 q 544 297 544 260 q 531 367 544 335 q 494 424 518 400 q 435 461 469 447 q 361 475 401 475 q 288 462 321 475 q 230 424 254 449 q 192 367 206 400 q 179 297 179 335 m 307 819 q 333 879 307 856 q 390 903 360 903 q 447 879 421 903 q 472 819 472 856 q 447 759 472 782 q 390 736 421 736 q 333 759 360 736 q 307 819 307 782 z "},"ĝ":{"ha":760,"x_min":46,"x_max":678,"o":"m 46 292 q 69 416 46 358 q 134 516 93 474 q 230 582 175 558 q 347 606 285 606 q 431 593 394 606 q 491 565 467 581 q 528 536 515 550 q 544 519 542 522 q 547 553 544 535 q 550 590 550 571 l 678 590 l 678 31 q 654 -103 678 -44 q 588 -202 631 -162 q 487 -262 546 -242 q 357 -283 428 -283 q 262 -272 303 -283 q 188 -243 221 -261 q 128 -203 156 -225 q 76 -158 101 -181 l 163 -68 q 246 -130 201 -104 q 354 -156 290 -156 q 492 -114 440 -156 q 543 4 543 -72 q 543 20 543 11 q 544 39 543 29 q 547 61 544 51 q 550 78 550 71 q 520 47 538 64 q 478 17 503 31 q 422 -6 454 3 q 349 -15 390 -15 q 226 8 282 -15 q 131 74 171 32 q 68 171 90 115 q 46 292 46 226 m 179 297 q 192 225 179 258 q 230 167 206 192 q 288 129 254 143 q 361 115 321 115 q 435 129 401 115 q 494 168 469 143 q 531 226 518 193 q 544 297 544 260 q 531 367 544 335 q 494 424 518 400 q 435 461 469 447 q 361 475 401 475 q 288 462 321 475 q 230 424 254 449 q 192 367 206 400 q 179 297 179 335 m 353 931 q 438 804 396 868 q 524 676 481 740 l 424 676 l 353 769 l 283 676 l 185 676 l 353 931 z "},"ŭ":{"ha":725,"x_min":78,"x_max":643,"o":"m 643 -14 l 532 -14 l 515 150 q 427 33 483 79 q 279 -14 371 -14 q 134 34 188 -14 q 78 161 81 82 l 78 590 l 211 590 l 211 224 q 241 151 214 181 q 328 118 268 121 q 401 132 368 118 q 459 171 435 146 q 497 231 483 196 q 511 306 511 265 l 511 590 l 643 590 l 643 -14 m 363 694 q 276 711 317 694 q 204 757 235 728 q 156 826 174 786 q 136 913 138 867 l 210 913 q 255 808 213 849 q 363 768 297 768 q 469 808 429 768 q 511 913 508 849 l 586 913 q 568 826 586 867 q 519 757 550 786 q 449 711 489 728 q 363 694 408 694 z "},"ŝ":{"ha":486,"x_min":42,"x_max":442,"o":"m 418 538 q 398 509 410 525 q 375 479 386 493 q 356 455 364 465 q 349 444 349 444 q 342 449 349 444 q 322 460 335 454 q 291 470 308 465 q 256 475 274 475 q 215 466 236 475 q 193 429 193 457 q 212 390 193 406 q 258 360 231 374 q 317 333 285 347 q 377 299 350 319 q 423 247 404 278 q 442 169 442 215 q 427 96 442 129 q 385 39 413 63 q 321 1 358 15 q 236 -12 283 -12 q 126 7 179 -12 q 42 63 72 26 q 65 90 51 74 q 92 122 79 107 q 113 148 104 138 q 122 158 122 158 q 131 153 122 160 q 156 139 140 147 q 192 124 171 131 q 235 117 213 117 q 288 132 269 117 q 307 169 307 147 q 288 206 307 192 q 242 231 269 219 q 183 257 215 243 q 123 292 150 271 q 77 345 96 313 q 58 428 58 378 q 76 511 58 478 q 123 565 94 544 q 185 595 151 586 q 250 604 218 604 q 340 587 293 604 q 418 538 386 569 m 246 931 q 331 804 289 868 q 417 676 374 740 l 317 676 l 246 769 l 176 676 l 78 676 l 246 931 z "},"œ":{"ha":1007,"x_min":44,"x_max":988,"o":"m 939 68 q 835 7 896 29 q 710 -15 774 -15 q 617 -1 661 -15 q 535 38 572 13 q 452 -1 497 13 q 358 -15 407 -15 q 236 7 293 -15 q 137 70 179 29 q 69 169 94 111 q 44 296 44 226 q 69 416 44 360 q 136 514 93 472 q 237 580 179 556 q 360 604 294 604 q 453 590 408 604 q 535 553 499 576 q 615 590 572 576 q 704 604 658 604 q 880 544 804 604 q 988 385 956 483 q 891 348 946 369 q 776 303 836 326 q 657 255 717 279 q 547 211 597 231 q 613 142 571 168 q 707 115 654 115 q 780 128 743 115 q 840 164 817 142 l 939 68 m 356 475 q 285 460 318 475 q 228 422 253 446 q 190 365 204 397 q 176 294 176 332 q 190 224 176 257 q 228 167 204 192 q 285 129 253 143 q 356 115 318 115 q 439 136 401 115 q 394 294 394 206 q 406 378 394 339 q 439 454 418 418 q 399 469 419 464 q 356 475 378 475 m 822 415 q 772 460 806 446 q 707 475 739 475 q 636 460 669 475 q 579 422 603 446 q 542 366 556 397 q 528 301 528 335 l 528 296 q 602 326 563 310 q 681 358 642 342 q 757 390 721 375 q 822 415 793 404 z "},"Œ":{"ha":1335,"x_min":50,"x_max":1283,"o":"m 567 -11 q 366 29 460 -11 q 202 140 272 69 q 91 303 132 210 q 50 504 50 397 q 91 704 50 610 q 202 869 132 799 q 366 982 272 940 q 567 1024 460 1024 q 668 1013 615 1024 l 1264 1013 l 1264 858 l 804 858 l 804 586 l 1208 586 l 1208 428 l 804 428 l 804 158 l 1283 158 l 1283 0 l 671 0 q 567 -11 615 -11 m 567 860 q 431 832 494 860 q 322 756 368 804 q 248 642 275 707 q 221 504 221 578 q 248 366 221 431 q 323 253 275 301 q 434 178 371 206 q 571 150 497 150 q 633 156 606 150 l 633 853 q 600 858 617 856 q 567 860 583 860 z "},"Ÿ":{"ha":929,"x_min":4,"x_max":924,"o":"m 550 328 l 550 0 l 379 0 l 379 328 q 344 390 372 338 q 276 515 317 442 q 192 670 236 588 q 107 826 147 753 q 39 951 67 899 q 4 1013 11 1003 l 197 1013 q 219 973 203 1003 q 257 901 235 943 q 306 808 279 858 q 358 706 332 757 q 408 609 385 656 q 450 528 432 563 l 465 481 q 475 505 471 492 q 483 528 479 518 q 525 609 501 563 q 574 706 549 656 q 626 808 600 757 q 673 901 651 858 q 710 973 694 943 q 731 1013 725 1003 l 924 1013 l 550 328 m 517 1163 q 544 1224 517 1199 q 603 1249 571 1249 q 659 1224 632 1249 q 686 1163 686 1199 q 659 1100 686 1124 q 603 1076 632 1076 q 544 1100 571 1076 q 517 1163 517 1124 m 249 1163 q 276 1224 249 1199 q 335 1249 303 1249 q 391 1224 364 1249 q 418 1163 418 1199 q 391 1100 418 1124 q 335 1076 364 1076 q 276 1100 303 1076 q 249 1163 249 1124 z "},"Ẽ":{"ha":860,"x_min":117,"x_max":808,"o":"m 117 0 l 117 1013 l 789 1013 l 789 858 l 286 858 l 286 586 l 733 586 l 733 428 l 286 428 l 286 158 l 808 158 l 808 0 l 117 0 m 450 1140 q 413 1167 428 1160 q 378 1175 397 1175 q 357 1173 368 1175 q 335 1164 346 1171 q 317 1145 325 1157 q 307 1114 308 1133 l 232 1117 q 246 1170 233 1146 q 277 1212 258 1194 q 319 1239 296 1229 q 364 1249 342 1249 q 425 1238 399 1249 q 475 1204 451 1226 q 513 1176 497 1183 q 547 1169 528 1169 q 568 1172 557 1169 q 590 1181 579 1174 q 608 1199 600 1188 q 618 1231 615 1211 l 693 1228 q 679 1174 692 1199 q 648 1133 667 1150 q 606 1106 629 1115 q 561 1096 583 1096 q 501 1108 528 1096 q 450 1140 474 1119 z "},"Ŗ":{"ha":883,"x_min":117,"x_max":871,"o":"m 117 0 l 117 1013 l 403 1013 q 555 990 486 1013 q 672 926 624 968 q 746 824 719 885 q 772 686 772 763 q 764 603 772 644 q 738 522 756 561 q 690 451 719 483 q 621 394 661 418 q 681 299 651 346 q 740 206 710 253 q 801 108 769 158 q 871 0 833 58 l 667 0 q 549 184 604 97 q 442 349 493 271 l 428 349 l 286 349 l 286 0 l 117 0 m 286 508 l 422 508 q 510 526 475 508 q 565 570 544 544 q 594 626 586 596 q 603 681 603 656 q 595 734 603 704 q 567 790 588 764 q 513 835 547 817 q 424 853 478 853 l 286 853 l 286 508 m 544 -29 l 422 -321 l 294 -321 q 349 -176 322 -247 q 403 -29 375 -104 l 544 -29 z "},"Ĩ":{"ha":404,"x_min":-26,"x_max":435,"o":"m 117 1013 l 288 1013 l 288 0 l 117 0 l 117 1013 m 192 1111 q 154 1138 169 1131 q 119 1146 139 1146 q 99 1144 110 1146 q 77 1135 88 1142 q 58 1116 67 1128 q 49 1085 50 1104 l -26 1088 q -12 1141 -25 1117 q 19 1183 0 1165 q 60 1210 38 1200 q 106 1219 83 1219 q 167 1208 140 1219 q 217 1175 193 1197 q 254 1147 239 1154 q 289 1140 269 1140 q 310 1142 299 1140 q 331 1151 321 1144 q 349 1170 342 1158 q 360 1201 357 1182 l 435 1199 q 421 1145 433 1169 q 390 1103 408 1121 q 348 1076 371 1086 q 303 1067 325 1067 q 242 1078 269 1067 q 192 1111 215 1090 z "},"Ļ":{"ha":799,"x_min":117,"x_max":778,"o":"m 117 0 l 117 1013 l 286 1013 l 286 161 l 778 161 l 778 0 l 117 0 m 567 -29 l 444 -321 l 317 -321 q 371 -176 344 -247 q 425 -29 397 -104 l 567 -29 z "},"Ē":{"ha":860,"x_min":117,"x_max":808,"o":"m 117 0 l 117 1013 l 789 1013 l 789 858 l 286 858 l 286 586 l 733 586 l 733 428 l 286 428 l 286 158 l 808 158 l 808 0 l 117 0 m 306 1079 l 306 1168 l 631 1168 l 631 1079 l 306 1079 z "},"Ģ":{"ha":956,"x_min":51,"x_max":882,"o":"m 882 492 l 882 61 q 741 8 824 26 q 572 -11 658 -11 q 356 26 453 -11 q 192 129 260 64 q 88 285 124 194 q 51 482 51 375 q 94 702 51 603 q 210 873 138 801 q 380 984 283 944 q 583 1024 476 1024 q 659 1019 619 1024 q 738 1004 699 1014 q 813 981 776 994 q 878 950 849 968 l 794 811 q 748 833 775 824 q 692 849 721 842 q 634 859 663 856 q 581 863 606 863 q 445 834 510 863 q 331 757 381 806 q 251 641 281 708 q 221 497 221 574 q 247 365 221 428 q 321 255 274 303 q 433 178 368 207 q 576 150 499 150 q 646 155 604 150 q 725 172 688 160 l 725 344 l 536 344 l 536 492 l 882 492 m 613 -29 l 490 -321 l 363 -321 q 417 -176 390 -247 q 471 -29 443 -104 l 613 -29 z "},"Ŧ":{"ha":779,"x_min":57,"x_max":722,"o":"m 224 603 l 224 692 l 301 692 l 301 850 l 57 850 l 57 1013 l 722 1013 l 722 850 l 472 850 l 472 692 l 549 692 l 549 603 l 472 603 l 472 0 l 301 0 l 301 603 l 224 603 z "},"ŗ":{"ha":450,"x_min":60,"x_max":442,"o":"m 413 433 q 338 424 374 433 q 276 394 303 414 q 232 344 249 374 q 215 274 215 314 l 215 0 l 82 0 l 82 590 l 199 590 q 205 509 201 540 q 211 439 208 478 q 260 508 229 478 q 323 560 290 539 q 388 594 356 582 q 442 606 419 606 l 413 433 m 310 -29 l 188 -321 l 60 -321 q 114 -176 88 -247 q 168 -29 140 -104 l 310 -29 z "},"ē":{"ha":658,"x_min":44,"x_max":638,"o":"m 589 68 q 485 7 546 29 q 360 -15 424 -15 q 237 9 294 -15 q 137 76 179 33 q 69 174 94 118 q 44 294 44 231 q 69 415 44 358 q 137 513 94 471 q 235 580 179 556 q 354 604 292 604 q 530 544 454 604 q 638 385 606 483 q 541 348 596 369 q 426 303 486 326 q 307 255 367 279 q 197 211 247 231 q 263 142 221 168 q 357 115 304 115 q 430 128 393 115 q 490 164 467 142 l 589 68 m 203 669 l 203 758 l 528 758 l 528 669 l 203 669 m 472 415 q 422 460 456 446 q 357 475 389 475 q 286 460 319 475 q 229 422 253 446 q 192 366 206 397 q 178 301 178 335 l 178 296 q 252 326 213 310 q 331 358 292 342 q 407 390 371 375 q 472 415 443 404 z "},"ģ":{"ha":760,"x_min":46,"x_max":678,"o":"m 46 292 q 69 416 46 358 q 134 516 93 474 q 230 582 175 558 q 347 606 285 606 q 431 593 394 606 q 491 565 467 581 q 528 536 515 550 q 544 519 542 522 q 547 553 544 535 q 550 590 550 571 l 678 590 l 678 31 q 654 -103 678 -44 q 588 -202 631 -162 q 487 -262 546 -242 q 357 -283 428 -283 q 262 -272 303 -283 q 188 -243 221 -261 q 128 -203 156 -225 q 76 -158 101 -181 l 163 -68 q 246 -130 201 -104 q 354 -156 290 -156 q 492 -114 440 -156 q 543 4 543 -72 q 543 20 543 11 q 544 39 543 29 q 547 61 544 51 q 550 78 550 71 q 520 47 538 64 q 478 17 503 31 q 422 -6 454 3 q 349 -15 390 -15 q 226 8 282 -15 q 131 74 171 32 q 68 171 90 115 q 46 292 46 226 m 179 297 q 192 225 179 258 q 230 167 206 192 q 288 129 254 143 q 361 115 321 115 q 435 129 401 115 q 494 168 469 143 q 531 226 518 193 q 544 297 544 260 q 531 367 544 335 q 494 424 518 400 q 435 461 469 447 q 361 475 401 475 q 288 462 321 475 q 230 424 254 449 q 192 367 206 400 q 179 297 179 335 m 303 704 l 425 996 l 553 996 q 499 851 525 922 q 444 704 472 779 l 303 704 z "},"ŧ":{"ha":439,"x_min":36,"x_max":422,"o":"m 60 669 l 60 758 l 136 758 l 136 849 l 268 849 l 268 758 l 385 758 l 385 669 l 268 669 l 268 590 l 422 590 l 422 471 l 268 471 l 268 0 l 136 0 l 136 471 l 36 471 l 36 590 l 136 590 l 136 669 l 60 669 z "},"Ā":{"ha":907,"x_min":0,"x_max":907,"o":"m 907 0 q 881 62 901 13 q 828 184 860 111 q 759 347 797 257 q 681 529 721 436 q 602 712 640 622 q 533 874 564 801 q 480 997 501 947 q 453 1058 458 1046 q 426 997 447 1046 q 374 874 406 947 q 305 712 343 801 q 226 529 267 622 q 148 347 186 436 q 78 184 110 257 q 26 62 47 111 q 0 0 6 13 l 168 0 l 279 267 l 628 267 q 665 176 647 219 q 699 96 683 132 q 724 35 714 60 q 739 0 735 10 l 907 0 m 439 651 q 444 670 439 653 q 453 701 450 688 q 461 670 456 688 q 468 651 467 653 l 568 410 l 338 410 l 439 651 m 290 1097 l 290 1186 l 615 1186 l 615 1097 l 290 1097 z "},"Į":{"ha":404,"x_min":7,"x_max":318,"o":"m 117 1013 l 288 1013 l 288 0 l 117 0 l 117 1013 m 204 0 l 118 0 l 118 -11 q 113 -43 118 -32 q 98 -62 107 -54 q 78 -74 89 -69 q 60 -86 68 -79 q 19 -137 31 -108 q 7 -207 7 -167 q 17 -262 7 -235 q 45 -312 26 -290 q 93 -349 64 -335 q 163 -362 122 -362 q 256 -335 213 -362 q 318 -250 299 -308 l 242 -210 q 217 -244 235 -231 q 175 -258 200 -258 q 127 -237 143 -258 q 111 -185 111 -217 q 126 -144 111 -158 q 158 -117 140 -129 q 190 -91 175 -104 q 204 -54 204 -78 l 204 0 z "},"ĩ":{"ha":297,"x_min":-82,"x_max":379,"o":"m 215 0 l 82 0 l 82 590 l 215 590 l 215 0 m 136 713 q 99 740 114 732 q 64 747 83 747 q 43 745 54 747 q 22 736 32 743 q 3 717 11 729 q -7 686 -6 706 l -82 689 q -68 742 -81 718 q -37 784 -56 767 q 5 811 -18 801 q 50 821 28 821 q 111 810 85 821 q 161 776 138 799 q 199 749 183 756 q 233 742 214 742 q 254 744 243 742 q 276 753 265 746 q 294 772 286 760 q 304 803 301 783 l 379 800 q 365 747 378 771 q 334 705 353 722 q 292 678 315 688 q 247 668 269 668 q 187 680 214 668 q 136 713 160 692 z "},"ļ":{"ha":296,"x_min":-31,"x_max":219,"o":"m 214 0 l 82 0 l 82 1085 l 214 1085 l 214 0 m 219 -29 l 97 -321 l -31 -321 q 24 -176 -3 -247 q 78 -29 50 -104 l 219 -29 z "},"Ė":{"ha":860,"x_min":117,"x_max":808,"o":"m 117 0 l 117 1013 l 789 1013 l 789 858 l 286 858 l 286 586 l 733 586 l 733 428 l 286 428 l 286 158 l 808 158 l 808 0 l 117 0 m 368 1149 q 394 1208 368 1185 q 451 1232 421 1232 q 508 1208 482 1232 q 533 1149 533 1185 q 508 1088 533 1111 q 451 1065 482 1065 q 394 1088 421 1065 q 368 1149 368 1111 z "},"Ī":{"ha":404,"x_min":46,"x_max":371,"o":"m 117 1013 l 288 1013 l 288 0 l 117 0 l 117 1013 m 46 1097 l 46 1186 l 371 1186 l 371 1097 l 46 1097 z "},"Ņ":{"ha":1128,"x_min":117,"x_max":1011,"o":"m 1011 1013 l 1011 -47 q 968 -1 1001 -35 q 886 78 935 32 q 778 181 838 125 q 658 295 719 238 q 539 408 597 353 q 433 510 481 464 q 352 590 385 557 q 310 635 319 622 q 299 649 308 638 q 282 671 289 661 l 286 626 l 286 0 l 117 0 l 117 1058 q 160 1013 126 1046 q 242 935 193 981 q 349 835 290 889 q 469 724 408 781 q 589 613 531 668 q 696 513 647 558 q 777 436 744 468 q 819 392 810 404 l 846 353 l 842 400 l 842 1013 l 1011 1013 m 656 -29 l 533 -321 l 406 -321 q 460 -176 433 -247 q 514 -29 486 -104 l 656 -29 z "},"Ķ":{"ha":910,"x_min":117,"x_max":921,"o":"m 710 0 q 619 115 661 60 q 536 226 578 171 q 452 337 494 281 q 363 454 410 393 q 333 424 347 438 q 304 397 319 411 l 304 0 l 117 0 l 117 1013 l 304 1013 l 304 649 q 303 625 304 638 q 300 600 301 613 q 315 617 307 610 q 329 636 322 625 q 510 824 424 726 q 692 1013 597 921 l 907 1013 q 700 790 803 903 q 494 569 597 678 q 605 424 553 494 q 708 284 657 353 q 812 145 760 215 q 921 0 864 75 l 710 0 m 576 -29 l 454 -321 l 326 -321 q 381 -176 354 -247 q 435 -29 407 -104 l 576 -29 z "},"ņ":{"ha":725,"x_min":82,"x_max":647,"o":"m 82 590 l 199 590 q 205 509 201 540 q 211 439 208 478 q 301 560 243 514 q 447 606 360 606 q 591 556 538 606 q 647 428 644 507 l 647 0 l 515 0 l 515 365 q 485 440 513 408 q 399 474 457 471 q 324 459 358 474 q 266 419 290 444 q 228 360 242 394 q 215 285 215 325 l 215 0 l 82 0 l 82 590 m 446 -29 l 324 -321 l 196 -321 q 250 -176 224 -247 q 304 -29 276 -104 l 446 -29 z "},"ķ":{"ha":636,"x_min":82,"x_max":629,"o":"m 507 604 l 586 526 q 485 431 533 478 q 385 336 438 385 q 507 168 447 253 q 629 0 567 83 l 476 0 q 383 124 431 63 q 292 249 336 186 l 215 179 l 215 0 l 82 0 l 82 1085 l 215 1085 l 215 333 q 361 469 290 404 q 507 604 432 533 m 446 -29 l 324 -321 l 196 -321 q 250 -176 224 -247 q 304 -29 276 -104 l 446 -29 z "},"Ō":{"ha":1135,"x_min":50,"x_max":1085,"o":"m 50 504 q 91 704 50 610 q 202 869 132 799 q 366 982 272 940 q 567 1024 460 1024 q 767 982 672 1024 q 932 869 861 940 q 1044 704 1003 799 q 1085 504 1085 610 q 1044 303 1085 397 q 932 140 1003 210 q 767 29 861 69 q 567 -11 672 -11 q 366 29 460 -11 q 202 140 272 69 q 91 303 132 210 q 50 504 50 397 m 221 504 q 248 366 221 431 q 323 253 275 301 q 434 178 371 206 q 571 150 497 150 q 705 178 642 150 q 815 253 768 206 q 888 366 861 301 q 915 504 915 431 q 888 642 915 578 q 813 756 860 707 q 702 832 765 804 q 567 860 639 860 q 431 832 494 860 q 322 756 368 804 q 248 642 275 707 q 221 504 221 578 m 408 1097 l 408 1186 l 733 1186 l 733 1097 l 408 1097 z "},"Ū":{"ha":1000,"x_min":107,"x_max":893,"o":"m 499 -11 q 345 16 417 -11 q 221 92 274 43 q 138 209 168 140 q 107 361 107 278 l 107 1013 l 276 1013 l 276 365 q 294 282 276 321 q 341 214 311 243 q 411 167 371 185 q 499 150 451 150 q 587 167 546 150 q 658 214 628 185 q 706 282 689 243 q 724 365 724 321 l 724 1013 l 893 1013 l 893 361 q 863 209 893 278 q 778 92 832 140 q 653 16 725 43 q 499 -11 581 -11 m 339 1097 l 339 1186 l 664 1186 l 664 1097 l 339 1097 z "},"ō":{"ha":714,"x_min":44,"x_max":669,"o":"m 44 296 q 69 416 44 360 q 136 514 93 472 q 237 580 179 556 q 360 604 294 604 q 483 580 426 604 q 581 514 540 556 q 646 416 622 472 q 669 296 669 360 q 647 175 669 232 q 582 76 624 118 q 483 9 540 33 q 358 -15 426 -15 q 236 7 293 -15 q 137 70 179 29 q 69 169 94 111 q 44 296 44 226 m 176 294 q 190 224 176 257 q 228 167 204 192 q 285 129 253 143 q 356 115 318 115 q 426 129 393 115 q 483 167 458 143 q 522 224 507 192 q 536 294 536 257 q 522 365 536 332 q 483 422 507 397 q 426 460 458 446 q 356 475 393 475 q 285 460 318 475 q 228 422 253 446 q 190 365 204 397 q 176 294 176 332 m 207 669 l 207 758 l 532 758 l 532 669 l 207 669 z "},"ū":{"ha":725,"x_min":78,"x_max":643,"o":"m 643 -14 l 532 -14 l 515 150 q 427 33 483 79 q 279 -14 371 -14 q 134 34 188 -14 q 78 161 81 82 l 78 590 l 211 590 l 211 224 q 241 151 214 181 q 328 118 268 121 q 401 132 368 118 q 459 171 435 146 q 497 231 483 196 q 511 306 511 265 l 511 590 l 643 590 l 643 -14 m 199 669 l 199 758 l 524 758 l 524 669 l 199 669 z "},"ā":{"ha":760,"x_min":44,"x_max":678,"o":"m 44 289 q 69 410 44 353 q 137 511 94 468 q 235 580 179 554 q 354 606 292 606 q 429 595 396 606 q 487 571 463 585 q 525 542 511 557 q 543 519 539 528 l 549 590 l 678 590 l 678 0 l 543 0 l 543 39 q 544 52 543 46 q 544 61 544 58 q 525 41 539 54 q 488 15 511 28 q 431 -6 464 3 q 356 -15 399 -15 q 231 10 288 -15 q 132 76 174 35 q 67 173 90 118 q 44 289 44 228 m 179 297 q 192 225 179 258 q 230 167 206 192 q 288 129 254 143 q 361 115 321 115 q 435 129 401 115 q 492 168 468 143 q 530 226 517 193 q 543 297 543 260 q 530 367 543 335 q 492 424 517 400 q 435 461 468 447 q 361 475 401 475 q 288 462 321 475 q 230 424 254 449 q 192 367 206 400 q 179 297 179 335 m 221 669 l 221 758 l 546 758 l 546 669 l 221 669 z "},"Ų":{"ha":1000,"x_min":107,"x_max":893,"o":"m 558 0 l 472 0 l 472 -10 q 328 22 394 -6 q 212 99 261 50 q 135 214 163 147 q 107 361 107 281 l 107 1013 l 276 1013 l 276 365 q 294 282 276 321 q 341 214 311 243 q 411 167 371 185 q 499 150 451 150 q 587 167 546 150 q 658 214 628 185 q 706 282 689 243 q 724 365 724 321 l 724 1013 l 893 1013 l 893 361 q 867 222 893 286 q 797 110 842 158 q 691 32 753 63 q 558 -7 629 1 l 558 0 m 499 -11 q 485 -11 492 -11 q 472 -10 479 -11 l 472 -11 q 467 -43 472 -32 q 452 -62 461 -54 q 433 -74 443 -69 q 414 -86 422 -79 q 373 -137 385 -108 q 361 -207 361 -167 q 371 -262 361 -235 q 399 -312 381 -290 q 447 -349 418 -335 q 517 -362 476 -362 q 610 -335 567 -362 q 672 -250 653 -308 l 596 -210 q 572 -244 589 -231 q 529 -258 554 -258 q 481 -237 497 -258 q 465 -185 465 -217 q 480 -144 465 -158 q 512 -117 494 -129 q 544 -91 529 -104 q 558 -54 558 -78 l 558 -7 q 499 -11 529 -11 z "},"ī":{"ha":297,"x_min":-12,"x_max":313,"o":"m 215 0 l 82 0 l 82 590 l 215 590 l 215 0 m -12 669 l -12 758 l 313 758 l 313 669 l -12 669 z "},"ų":{"ha":725,"x_min":78,"x_max":729,"o":"m 615 0 l 531 0 l 515 150 q 427 33 483 79 q 279 -14 371 -14 q 134 34 188 -14 q 78 161 81 82 l 78 590 l 211 590 l 211 224 q 241 151 214 181 q 328 118 268 121 q 401 132 368 118 q 459 171 435 146 q 497 231 483 196 q 511 306 511 265 l 511 590 l 643 590 l 643 -14 l 615 -14 l 615 0 m 531 0 l 529 0 l 529 -11 q 524 -43 529 -32 q 509 -62 518 -54 q 490 -74 500 -69 q 471 -86 479 -79 q 430 -137 442 -108 q 418 -207 418 -167 q 428 -262 418 -235 q 456 -312 438 -290 q 504 -349 475 -335 q 574 -362 533 -362 q 667 -335 624 -362 q 729 -250 710 -308 l 653 -210 q 628 -244 646 -231 q 586 -258 611 -258 q 538 -237 554 -258 q 522 -185 522 -217 q 537 -144 522 -158 q 569 -117 551 -129 q 601 -91 586 -104 q 615 -54 615 -78 l 615 -14 l 532 -14 l 531 0 z "},"Ũ":{"ha":1000,"x_min":107,"x_max":893,"o":"m 499 -11 q 345 16 417 -11 q 221 92 274 43 q 138 209 168 140 q 107 361 107 278 l 107 1013 l 276 1013 l 276 365 q 294 282 276 321 q 341 214 311 243 q 411 167 371 185 q 499 150 451 150 q 587 167 546 150 q 658 214 628 185 q 706 282 689 243 q 724 365 724 321 l 724 1013 l 893 1013 l 893 361 q 863 209 893 278 q 778 92 832 140 q 653 16 725 43 q 499 -11 581 -11 m 490 1111 q 453 1138 468 1131 q 418 1146 438 1146 q 397 1144 408 1146 q 376 1135 386 1142 q 357 1116 365 1128 q 347 1085 349 1104 l 272 1088 q 286 1141 274 1117 q 317 1183 299 1165 q 359 1210 336 1200 q 404 1219 382 1219 q 465 1208 439 1219 q 515 1175 492 1197 q 553 1147 538 1154 q 588 1140 568 1140 q 608 1142 597 1140 q 630 1151 619 1144 q 648 1170 640 1158 q 658 1201 656 1182 l 733 1199 q 719 1145 732 1169 q 688 1103 707 1121 q 647 1076 669 1086 q 601 1067 624 1067 q 541 1078 568 1067 q 490 1111 514 1090 z "},"ũ":{"ha":725,"x_min":78,"x_max":643,"o":"m 643 -14 l 532 -14 l 515 150 q 427 33 483 79 q 279 -14 371 -14 q 134 34 188 -14 q 78 161 81 82 l 78 590 l 211 590 l 211 224 q 241 151 214 181 q 328 118 268 121 q 401 132 368 118 q 459 171 435 146 q 497 231 483 196 q 511 306 511 265 l 511 590 l 643 590 l 643 -14 m 361 713 q 324 740 339 732 q 289 747 308 747 q 268 745 279 747 q 247 736 257 743 q 228 717 236 729 q 218 686 219 706 l 143 689 q 157 742 144 718 q 188 784 169 767 q 230 811 207 801 q 275 821 253 821 q 336 810 310 821 q 386 776 363 799 q 424 749 408 756 q 458 742 439 742 q 479 744 468 742 q 501 753 490 746 q 519 772 511 760 q 529 803 526 783 l 604 800 q 590 747 603 771 q 559 705 578 722 q 517 678 540 688 q 472 668 494 668 q 412 680 439 668 q 361 713 385 692 z "},"ė":{"ha":658,"x_min":44,"x_max":638,"o":"m 589 68 q 485 7 546 29 q 360 -15 424 -15 q 237 9 294 -15 q 137 76 179 33 q 69 174 94 118 q 44 294 44 231 q 69 415 44 358 q 137 513 94 471 q 235 580 179 556 q 354 604 292 604 q 530 544 454 604 q 638 385 606 483 q 541 348 596 369 q 426 303 486 326 q 307 255 367 279 q 197 211 247 231 q 263 142 221 168 q 357 115 304 115 q 430 128 393 115 q 490 164 467 142 l 589 68 m 472 415 q 422 460 456 446 q 357 475 389 475 q 286 460 319 475 q 229 422 253 446 q 192 366 206 397 q 178 301 178 335 l 178 296 q 252 326 213 310 q 331 358 292 342 q 407 390 371 375 q 472 415 443 404 m 269 819 q 296 879 269 856 q 353 903 322 903 q 409 879 383 903 q 435 819 435 856 q 409 759 435 782 q 353 736 383 736 q 296 759 322 736 q 269 819 269 782 z "},"į":{"ha":297,"x_min":-29,"x_max":282,"o":"m 215 0 l 82 0 l 82 590 l 215 590 l 215 0 m 168 0 l 82 0 l 82 -11 q 76 -43 82 -32 q 62 -62 71 -54 q 42 -74 53 -69 q 24 -86 32 -79 q -17 -137 -6 -108 q -29 -207 -29 -167 q -19 -262 -29 -235 q 9 -312 -10 -290 q 57 -349 28 -335 q 126 -362 86 -362 q 219 -335 176 -362 q 282 -250 263 -308 l 206 -210 q 181 -244 199 -231 q 139 -258 164 -258 q 91 -237 107 -258 q 75 -185 75 -217 q 90 -144 75 -158 q 122 -117 104 -129 q 153 -91 139 -104 q 168 -54 168 -78 l 168 0 m 67 819 q 93 879 67 856 q 150 903 119 903 q 206 879 181 903 q 232 819 232 856 q 206 759 232 782 q 150 736 181 736 q 93 759 119 736 q 67 819 67 782 z "},"…":{"ha":775,"x_min":72,"x_max":703,"o":"m 72 86 q 99 147 72 122 q 158 172 126 172 q 215 147 188 172 q 242 86 242 122 q 215 23 242 46 q 158 0 188 0 q 99 23 126 0 q 72 86 72 46 m 303 86 q 330 147 303 122 q 389 172 357 172 q 446 147 419 172 q 472 86 472 122 q 446 23 472 46 q 389 0 419 0 q 330 23 357 0 q 303 86 303 46 m 535 86 q 561 147 535 122 q 619 172 588 172 q 676 147 650 172 q 703 86 703 122 q 676 23 703 46 q 619 0 650 0 q 561 23 588 0 q 535 86 535 46 z "},"‰":{"ha":1474,"x_min":53,"x_max":1426,"o":"m 221 0 l 642 706 l 799 706 l 378 0 l 221 0 m 781 -31 q 708 -16 742 -31 q 648 24 674 -1 q 608 83 622 49 q 593 156 593 117 q 608 228 593 194 q 648 286 622 261 q 708 326 674 311 q 781 340 742 340 q 852 326 818 340 q 912 286 886 311 q 953 228 938 261 q 968 156 968 194 q 953 83 968 117 q 912 24 938 49 q 852 -16 886 -1 q 781 -31 818 -31 m 1239 -31 q 1166 -16 1200 -31 q 1106 24 1132 -1 q 1066 83 1081 49 q 1051 156 1051 117 q 1066 228 1051 194 q 1106 286 1081 261 q 1166 326 1132 311 q 1239 340 1200 340 q 1310 326 1276 340 q 1370 286 1344 311 q 1411 228 1396 261 q 1426 156 1426 194 q 1411 83 1426 117 q 1370 24 1396 49 q 1310 -16 1344 -1 q 1239 -31 1276 -31 m 240 364 q 169 378 203 364 q 109 418 135 393 q 68 476 83 443 q 53 549 53 510 q 68 621 53 588 q 109 679 83 654 q 169 719 135 704 q 240 733 203 733 q 312 719 278 733 q 372 679 346 704 q 413 621 397 654 q 428 549 428 588 q 413 476 428 510 q 372 418 397 443 q 312 378 346 393 q 240 364 278 364 m 197 549 q 208 515 197 529 q 240 501 219 501 q 272 515 261 501 q 283 549 283 529 q 272 582 283 569 q 240 594 261 594 q 208 582 219 594 q 197 549 197 569 m 1196 157 q 1207 123 1196 136 q 1239 110 1218 110 q 1272 123 1261 110 q 1282 157 1282 136 q 1272 189 1282 176 q 1239 201 1261 201 q 1207 189 1218 201 q 1196 157 1196 176 m 738 157 q 749 123 738 136 q 781 110 760 110 q 813 123 803 110 q 824 157 824 136 q 813 189 824 176 q 781 201 803 201 q 749 189 760 201 q 738 157 738 176 z "},"ˆ":{"ha":625,"x_min":158,"x_max":497,"o":"m 326 931 q 412 804 369 868 q 497 676 454 740 l 397 676 l 326 769 l 257 676 l 158 676 l 326 931 z "},"˜":{"ha":832,"x_min":221,"x_max":682,"o":"m 439 713 q 401 740 417 732 q 367 747 386 747 q 346 745 357 747 q 324 736 335 743 q 306 717 314 729 q 296 686 297 706 l 221 689 q 235 742 222 718 q 266 784 247 767 q 308 811 285 801 q 353 821 331 821 q 414 810 388 821 q 464 776 440 799 q 501 749 486 756 q 536 742 517 742 q 557 744 546 742 q 578 753 568 746 q 597 772 589 760 q 607 803 604 783 l 682 800 q 668 747 681 771 q 637 705 656 722 q 595 678 618 688 q 550 668 572 668 q 490 680 517 668 q 439 713 463 692 z "},"ﬁ":{"ha":813,"x_min":36,"x_max":731,"o":"m 36 460 l 36 590 l 138 590 l 138 717 q 224 991 138 903 q 474 1085 310 1079 l 474 958 q 318 889 365 951 q 271 711 271 826 l 271 590 l 731 590 l 731 0 l 599 0 l 599 460 l 271 460 l 271 0 l 138 0 l 138 460 l 36 460 z "},"ﬂ":{"ha":792,"x_min":36,"x_max":710,"o":"m 36 461 l 36 592 l 138 592 l 138 717 q 224 991 138 903 q 474 1085 310 1079 l 710 1085 l 710 0 l 578 0 l 578 958 l 474 958 q 318 889 365 951 q 271 711 271 826 l 271 592 l 454 592 l 454 461 l 271 461 l 271 0 l 138 0 l 138 461 l 36 461 z "},"˚":{"ha":740,"x_min":274,"x_max":518,"o":"m 350 768 q 363 736 350 749 q 396 724 376 724 q 428 736 415 724 q 442 768 442 749 q 428 802 442 789 q 396 815 415 815 q 363 802 376 815 q 350 768 350 789 m 274 771 q 283 817 274 796 q 310 856 293 839 q 349 882 326 872 q 396 892 371 892 q 443 882 421 892 q 482 856 465 872 q 508 817 499 839 q 518 771 518 796 q 508 724 518 746 q 482 684 499 701 q 443 657 465 667 q 396 647 421 647 q 349 657 371 647 q 310 684 326 667 q 283 724 293 701 q 274 771 274 746 z "},"⁄":{"ha":511,"x_min":-12,"x_max":524,"o":"m -12 0 q 183 533 86 268 q 381 1065 281 797 l 524 1065 q 328 533 425 797 q 131 0 231 268 l -12 0 z "},"ƒ":{"ha":529,"x_min":-43,"x_max":497,"o":"m 294 461 l 294 139 q 208 -137 294 -49 q -43 -231 121 -225 l -43 -103 q 114 -33 67 -96 q 161 143 161 29 l 161 461 l 60 461 l 60 592 l 161 592 l 161 717 q 247 991 161 903 q 497 1085 333 1079 l 497 958 q 342 889 389 951 q 294 711 294 826 l 294 592 l 478 592 l 478 461 l 294 461 z "},"†":{"ha":485,"x_min":71,"x_max":414,"o":"m 171 -12 l 171 519 l 71 519 l 71 658 l 171 658 l 171 863 l 315 863 l 315 658 l 414 658 l 414 519 l 315 519 l 315 -12 l 171 -12 z "},"‡":{"ha":538,"x_min":60,"x_max":478,"o":"m 196 -12 l 196 281 l 60 281 l 60 419 l 196 419 l 196 519 l 96 519 l 96 658 l 196 658 l 196 863 l 340 863 l 340 658 l 439 658 l 439 519 l 340 519 l 340 419 l 478 419 l 478 281 l 340 281 l 340 -12 l 196 -12 z "},"™":{"ha":815,"x_min":61,"x_max":724,"o":"m 360 1067 l 542 815 q 556 836 543 818 q 588 881 569 854 q 629 938 607 907 q 672 995 651 968 q 706 1042 692 1022 q 724 1067 719 1061 l 724 692 l 658 692 l 658 876 q 660 885 658 881 q 661 890 661 889 q 639 858 657 883 q 601 804 621 833 q 563 749 581 775 q 542 718 546 724 l 418 890 q 419 885 418 889 q 421 876 421 881 l 421 692 l 360 692 l 360 1067 m 296 1051 l 296 994 l 207 994 l 207 692 l 149 692 l 149 994 l 61 994 l 61 1051 l 296 1051 z "},"−":{"ha":668,"x_min":81,"x_max":588,"o":"m 588 219 l 81 219 l 81 358 l 588 358 l 588 219 z "},"∫":{"ha":479,"x_min":36,"x_max":443,"o":"m 167 886 q 181 987 167 953 q 219 1035 194 1021 q 276 1051 243 1050 q 346 1053 308 1053 l 443 1053 l 443 914 l 386 914 q 351 909 365 914 q 328 890 336 904 q 316 847 319 875 q 313 772 313 818 l 313 -57 q 297 -150 313 -118 q 257 -196 282 -182 q 200 -210 232 -210 q 133 -211 168 -211 l 36 -211 l 36 -72 l 93 -72 q 129 -67 115 -72 q 151 -47 143 -62 q 163 -3 160 -32 q 167 71 167 25 l 167 886 z "},"∏":{"ha":703,"x_min":132,"x_max":571,"o":"m 275 -114 l 132 -114 l 132 1058 l 571 1058 l 571 -114 l 429 -114 l 429 919 l 275 919 l 275 -114 z "},"π":{"ha":643,"x_min":49,"x_max":592,"o":"m 271 360 l 271 0 l 128 0 l 128 360 l 49 360 l 49 497 l 592 497 l 592 360 l 511 360 l 511 0 l 369 0 l 369 360 l 271 360 z "},"€":{"ha":751,"x_min":51,"x_max":694,"o":"m 51 565 l 150 565 q 197 725 163 657 q 282 838 232 793 q 394 906 332 883 q 522 928 456 928 q 616 916 572 928 q 694 885 660 904 l 631 758 q 581 782 607 774 q 519 790 556 790 q 424 773 464 790 q 356 725 383 756 q 313 653 329 694 q 290 565 297 613 l 575 565 l 575 492 l 286 492 l 286 490 q 290 417 286 450 l 575 417 l 575 343 l 301 343 q 340 242 315 283 q 396 176 365 201 q 458 139 426 150 q 519 128 490 128 q 622 161 574 128 l 690 29 q 519 -12 613 -12 q 391 10 451 -12 q 282 78 331 33 q 199 190 233 124 q 151 343 165 256 l 53 343 l 53 417 l 144 417 q 143 439 143 428 q 143 463 143 450 l 143 492 l 51 492 l 51 565 z "},"≤":{"ha":756,"x_min":50,"x_max":665,"o":"m 665 497 l 665 301 l 50 657 q 358 835 206 746 q 665 1011 510 924 l 665 817 l 389 657 l 665 497 m 611 72 l 104 72 l 104 211 l 611 211 l 611 72 z "},"≥":{"ha":767,"x_min":104,"x_max":721,"o":"m 106 497 l 382 657 l 106 817 l 106 1011 q 413 835 261 924 q 721 657 565 746 l 106 301 l 106 497 m 104 211 l 611 211 l 611 72 l 104 72 l 104 211 z "},"≠":{"ha":929,"x_min":103,"x_max":821,"o":"m 821 557 l 821 418 l 565 418 l 450 283 l 821 283 l 821 144 l 331 144 q 253 53 290 96 q 185 -25 217 11 l 103 47 l 186 144 l 107 144 l 107 283 l 307 283 l 422 418 l 107 418 l 107 557 l 542 557 l 717 760 l 796 686 l 683 557 l 821 557 z "},"≈":{"ha":626,"x_min":83,"x_max":546,"o":"m 301 267 q 264 294 279 286 q 229 301 249 301 q 208 299 219 301 q 187 290 197 297 q 168 272 176 283 q 158 240 160 260 l 83 243 q 97 297 85 272 q 128 338 110 321 q 170 365 147 356 q 215 375 193 375 q 276 364 250 375 q 326 331 303 353 q 364 303 349 310 q 399 296 379 296 q 419 298 408 296 q 441 307 431 300 q 459 326 451 314 q 469 357 467 338 l 544 354 q 531 301 543 325 q 499 259 518 276 q 458 232 481 242 q 413 222 435 222 q 352 234 379 222 q 301 267 325 246 m 303 474 q 265 501 281 493 q 231 508 250 508 q 210 506 221 508 q 188 497 199 504 q 169 478 178 490 q 160 447 161 467 l 85 450 q 99 503 86 479 q 130 545 111 528 q 172 572 149 563 q 217 582 194 582 q 278 571 251 582 q 328 538 304 560 q 365 510 350 517 q 400 503 381 503 q 421 505 410 503 q 442 514 432 507 q 460 533 453 521 q 471 564 468 544 l 546 561 q 532 508 544 532 q 501 466 519 483 q 459 439 482 449 q 414 429 436 429 q 353 441 381 429 q 303 474 326 453 z "},"∑":{"ha":700,"x_min":71,"x_max":651,"o":"m 260 15 l 610 15 l 651 -124 l 71 -124 l 232 468 l 71 1058 l 651 1058 l 610 919 l 260 919 l 386 468 l 260 15 z "},"Ω":{"ha":929,"x_min":75,"x_max":854,"o":"m 75 139 l 233 139 q 177 186 204 158 q 131 252 150 214 q 99 342 111 290 q 88 460 88 393 q 118 639 88 564 q 199 761 149 714 q 318 831 250 808 q 461 853 386 853 q 633 821 558 853 q 755 733 707 789 q 825 601 803 678 q 843 433 847 524 q 796 247 836 317 q 704 139 756 178 l 854 139 l 854 0 l 549 0 l 549 139 q 613 184 585 156 q 660 251 640 213 q 689 335 679 289 q 699 429 699 381 q 688 527 699 476 q 652 619 678 578 q 581 688 626 661 q 468 714 536 714 q 350 685 396 714 q 278 615 304 657 q 241 524 251 572 q 231 436 231 475 q 243 335 231 382 q 278 251 256 289 q 330 184 300 213 q 396 139 360 156 l 396 0 l 75 0 l 75 139 z "},"√":{"ha":731,"x_min":24,"x_max":718,"o":"m 25 482 l 197 482 l 326 193 l 619 858 l 718 858 l 326 -19 l 135 399 l 24 399 l 25 482 z "},"∆":{"ha":582,"x_min":51,"x_max":531,"o":"m 290 1028 l 531 351 l 51 351 l 290 1028 m 178 435 l 404 435 l 290 772 l 178 435 z "},"◊":{"ha":579,"x_min":50,"x_max":529,"o":"m 50 504 l 289 1028 l 529 504 l 289 -19 l 50 504 m 149 504 l 289 193 l 431 504 l 289 817 l 149 504 z "},"∞":{"ha":714,"x_min":75,"x_max":639,"o":"m 494 296 q 419 308 456 296 q 358 344 383 321 q 296 308 332 321 q 221 296 260 296 q 154 308 182 296 q 109 340 126 321 q 83 383 92 360 q 75 429 75 407 q 83 474 75 450 q 110 517 92 497 q 156 549 128 536 q 221 561 183 561 q 296 548 260 561 q 358 511 332 535 q 421 548 385 535 q 496 561 457 561 q 560 549 533 561 q 604 517 586 536 q 631 474 622 497 q 639 429 639 451 q 631 383 639 407 q 605 340 622 360 q 560 308 588 321 q 494 296 532 296 m 317 426 q 288 463 317 450 q 222 476 258 476 q 160 428 160 476 q 173 394 160 408 q 222 379 186 379 q 287 392 257 379 q 317 426 317 404 m 400 426 q 409 407 400 415 q 431 392 418 399 q 461 383 444 386 q 494 379 478 379 q 544 394 531 379 q 557 428 557 408 q 494 476 557 476 q 431 463 460 476 q 400 428 401 450 l 400 426 z "}}}
